{
  "asset": {
    "version": "2.0",
    "generator": "model_tool (Raylib ASC Converter)"
  },
  "scene": 0,
  "scenes": [
    {
      "name": "Scene",
      "nodes": [
        0,
        1,
        2,
        3,
        4,
        5,
        6,
        7,
        8,
        9,
        10,
        11,
        12,
        13,
        14,
        15,
        16,
        17,
        18,
        19,
        20,
        21,
        22,
        23,
        24,
        25,
        26,
        27,
        28,
        29,
        30,
        31,
        32,
        33,
        34,
        35,
        36,
        37,
        38,
        39
      ]
    }
  ],
  "nodes": [
    {
      "name": "Mesh_0",
      "mesh": 0
    },
    {
      "name": "Mesh_1",
      "mesh": 1
    },
    {
      "name": "Mesh_2",
      "mesh": 2
    },
    {
      "name": "Mesh_3",
      "mesh": 3
    },
    {
      "name": "Mesh_4",
      "mesh": 4
    },
    {
      "name": "Mesh_5",
      "mesh": 5
    },
    {
      "name": "Mesh_6",
      "mesh": 6
    },
    {
      "name": "Mesh_7",
      "mesh": 7
    },
    {
      "name": "Mesh_8",
      "mesh": 8
    },
    {
      "name": "Mesh_9",
      "mesh": 9
    },
    {
      "name": "Mesh_10",
      "mesh": 10
    },
    {
      "name": "Mesh_11",
      "mesh": 11
    },
    {
      "name": "Mesh_12",
      "mesh": 12
    },
    {
      "name": "Mesh_13",
      "mesh": 13
    },
    {
      "name": "Mesh_14",
      "mesh": 14
    },
    {
      "name": "Mesh_15",
      "mesh": 15
    },
    {
      "name": "Mesh_16",
      "mesh": 16
    },
    {
      "name": "Mesh_17",
      "mesh": 17
    },
    {
      "name": "Mesh_18",
      "mesh": 18
    },
    {
      "name": "Mesh_19",
      "mesh": 19
    },
    {
      "name": "Mesh_20",
      "mesh": 20
    },
    {
      "name": "Mesh_21",
      "mesh": 21
    },
    {
      "name": "Mesh_22",
      "mesh": 22
    },
    {
      "name": "Mesh_23",
      "mesh": 23
    },
    {
      "name": "Mesh_24",
      "mesh": 24
    },
    {
      "name": "Mesh_25",
      "mesh": 25
    },
    {
      "name": "Mesh_26",
      "mesh": 26
    },
    {
      "name": "Mesh_27",
      "mesh": 27
    },
    {
      "name": "Mesh_28",
      "mesh": 28
    },
    {
      "name": "Mesh_29",
      "mesh": 29
    },
    {
      "name": "Mesh_30",
      "mesh": 30
    },
    {
      "name": "Mesh_31",
      "mesh": 31
    },
    {
      "name": "Mesh_32",
      "mesh": 32
    },
    {
      "name": "Mesh_33",
      "mesh": 33
    },
    {
      "name": "Mesh_34",
      "mesh": 34
    },
    {
      "name": "Mesh_35",
      "mesh": 35
    },
    {
      "name": "Mesh_36",
      "mesh": 36
    },
    {
      "name": "Mesh_37",
      "mesh": 37
    },
    {
      "name": "Mesh_38",
      "mesh": 38
    },
    {
      "name": "Mesh_39",
      "mesh": 39
    }
  ],
  "meshes": [
    {
      "name": "Mesh_0",
      "primitives": [
        {
          "attributes": {
            "POSITION": 0,
            "NORMAL": 1,
            "TEXCOORD_0": 2,
            "TANGENT": 3
          },
          "indices": 4,
          "material": 0
        }
      ]
    },
    {
      "name": "Mesh_1",
      "primitives": [
        {
          "attributes": {
            "POSITION": 5,
            "NORMAL": 6,
            "TEXCOORD_0": 7,
            "TANGENT": 8
          },
          "indices": 9,
          "material": 0
        }
      ]
    },
    {
      "name": "Mesh_2",
      "primitives": [
        {
          "attributes": {
            "POSITION": 10,
            "NORMAL": 11,
            "TEXCOORD_0": 12,
            "TANGENT": 13
          },
          "indices": 14,
          "material": 0
        }
      ]
    },
    {
      "name": "Mesh_3",
      "primitives": [
        {
          "attributes": {
            "POSITION": 15,
            "NORMAL": 16,
            "TEXCOORD_0": 17,
            "TANGENT": 18
          },
          "indices": 19,
          "material": 0
        }
      ]
    },
    {
      "name": "Mesh_4",
      "primitives": [
        {
          "attributes": {
            "POSITION": 20,
            "NORMAL": 21,
            "TEXCOORD_0": 22,
            "TANGENT": 23
          },
          "indices": 24,
          "material": 0
        }
      ]
    },
    {
      "name": "Mesh_5",
      "primitives": [
        {
          "attributes": {
            "POSITION": 25,
            "NORMAL": 26,
            "TEXCOORD_0": 27,
            "TANGENT": 28
          },
          "indices": 29,
          "material": 0
        }
      ]
    },
    {
      "name": "Mesh_6",
      "primitives": [
        {
          "attributes": {
            "POSITION": 30,
            "NORMAL": 31,
            "TEXCOORD_0": 32,
            "TANGENT": 33
          },
          "indices": 34,
          "material": 1
        }
      ]
    },
    {
      "name": "Mesh_7",
      "primitives": [
        {
          "attributes": {
            "POSITION": 35,
            "NORMAL": 36,
            "TEXCOORD_0": 37,
            "TANGENT": 38
          },
          "indices": 39,
          "material": 2
        }
      ]
    },
    {
      "name": "Mesh_8",
      "primitives": [
        {
          "attributes": {
            "POSITION": 40,
            "NORMAL": 41,
            "TEXCOORD_0": 42,
            "TANGENT": 43
          },
          "indices": 44,
          "material": 1
        }
      ]
    },
    {
      "name": "Mesh_9",
      "primitives": [
        {
          "attributes": {
            "POSITION": 45,
            "NORMAL": 46,
            "TEXCOORD_0": 47,
            "TANGENT": 48
          },
          "indices": 49,
          "material": 1
        }
      ]
    },
    {
      "name": "Mesh_10",
      "primitives": [
        {
          "attributes": {
            "POSITION": 50,
            "NORMAL": 51,
            "TEXCOORD_0": 52,
            "TANGENT": 53
          },
          "indices": 54,
          "material": 2
        }
      ]
    },
    {
      "name": "Mesh_11",
      "primitives": [
        {
          "attributes": {
            "POSITION": 55,
            "NORMAL": 56,
            "TEXCOORD_0": 57,
            "TANGENT": 58
          },
          "indices": 59,
          "material": 1
        }
      ]
    },
    {
      "name": "Mesh_12",
      "primitives": [
        {
          "attributes": {
            "POSITION": 60,
            "NORMAL": 61,
            "TEXCOORD_0": 62,
            "TANGENT": 63
          },
          "indices": 64,
          "material": 2
        }
      ]
    },
    {
      "name": "Mesh_13",
      "primitives": [
        {
          "attributes": {
            "POSITION": 65,
            "NORMAL": 66,
            "TEXCOORD_0": 67,
            "TANGENT": 68
          },
          "indices": 69,
          "material": 1
        }
      ]
    },
    {
      "name": "Mesh_14",
      "primitives": [
        {
          "attributes": {
            "POSITION": 70,
            "NORMAL": 71,
            "TEXCOORD_0": 72,
            "TANGENT": 73
          },
          "indices": 74,
          "material": 2
        }
      ]
    },
    {
      "name": "Mesh_15",
      "primitives": [
        {
          "attributes": {
            "POSITION": 75,
            "NORMAL": 76,
            "TEXCOORD_0": 77,
            "TANGENT": 78
          },
          "indices": 79,
          "material": 1
        }
      ]
    },
    {
      "name": "Mesh_16",
      "primitives": [
        {
          "attributes": {
            "POSITION": 80,
            "NORMAL": 81,
            "TEXCOORD_0": 82,
            "TANGENT": 83
          },
          "indices": 84,
          "material": 2
        }
      ]
    },
    {
      "name": "Mesh_17",
      "primitives": [
        {
          "attributes": {
            "POSITION": 85,
            "NORMAL": 86,
            "TEXCOORD_0": 87,
            "TANGENT": 88
          },
          "indices": 89,
          "material": 1
        }
      ]
    },
    {
      "name": "Mesh_18",
      "primitives": [
        {
          "attributes": {
            "POSITION": 90,
            "NORMAL": 91,
            "TEXCOORD_0": 92,
            "TANGENT": 93
          },
          "indices": 94,
          "material": 2
        }
      ]
    },
    {
      "name": "Mesh_19",
      "primitives": [
        {
          "attributes": {
            "POSITION": 95,
            "NORMAL": 96,
            "TEXCOORD_0": 97,
            "TANGENT": 98
          },
          "indices": 99,
          "material": 1
        }
      ]
    },
    {
      "name": "Mesh_20",
      "primitives": [
        {
          "attributes": {
            "POSITION": 100,
            "NORMAL": 101,
            "TEXCOORD_0": 102,
            "TANGENT": 103
          },
          "indices": 104,
          "material": 1
        }
      ]
    },
    {
      "name": "Mesh_21",
      "primitives": [
        {
          "attributes": {
            "POSITION": 105,
            "NORMAL": 106,
            "TEXCOORD_0": 107,
            "TANGENT": 108
          },
          "indices": 109,
          "material": 2
        }
      ]
    },
    {
      "name": "Mesh_22",
      "primitives": [
        {
          "attributes": {
            "POSITION": 110,
            "NORMAL": 111,
            "TEXCOORD_0": 112,
            "TANGENT": 113
          },
          "indices": 114,
          "material": 1
        }
      ]
    },
    {
      "name": "Mesh_23",
      "primitives": [
        {
          "attributes": {
            "POSITION": 115,
            "NORMAL": 116,
            "TEXCOORD_0": 117,
            "TANGENT": 118
          },
          "indices": 119,
          "material": 2
        }
      ]
    },
    {
      "name": "Mesh_24",
      "primitives": [
        {
          "attributes": {
            "POSITION": 120,
            "NORMAL": 121,
            "TEXCOORD_0": 122,
            "TANGENT": 123
          },
          "indices": 124,
          "material": 1
        }
      ]
    },
    {
      "name": "Mesh_25",
      "primitives": [
        {
          "attributes": {
            "POSITION": 125,
            "NORMAL": 126,
            "TEXCOORD_0": 127,
            "TANGENT": 128
          },
          "indices": 129,
          "material": 2
        }
      ]
    },
    {
      "name": "Mesh_26",
      "primitives": [
        {
          "attributes": {
            "POSITION": 130,
            "NORMAL": 131,
            "TEXCOORD_0": 132,
            "TANGENT": 133
          },
          "indices": 134,
          "material": 1
        }
      ]
    },
    {
      "name": "Mesh_27",
      "primitives": [
        {
          "attributes": {
            "POSITION": 135,
            "NORMAL": 136,
            "TEXCOORD_0": 137,
            "TANGENT": 138
          },
          "indices": 139,
          "material": 2
        }
      ]
    },
    {
      "name": "Mesh_28",
      "primitives": [
        {
          "attributes": {
            "POSITION": 140,
            "NORMAL": 141,
            "TEXCOORD_0": 142,
            "TANGENT": 143
          },
          "indices": 144,
          "material": 1
        }
      ]
    },
    {
      "name": "Mesh_29",
      "primitives": [
        {
          "attributes": {
            "POSITION": 145,
            "NORMAL": 146,
            "TEXCOORD_0": 147,
            "TANGENT": 148
          },
          "indices": 149,
          "material": 2
        }
      ]
    },
    {
      "name": "Mesh_30",
      "primitives": [
        {
          "attributes": {
            "POSITION": 150,
            "NORMAL": 151,
            "TEXCOORD_0": 152,
            "TANGENT": 153
          },
          "indices": 154,
          "material": 1
        }
      ]
    },
    {
      "name": "Mesh_31",
      "primitives": [
        {
          "attributes": {
            "POSITION": 155,
            "NORMAL": 156,
            "TEXCOORD_0": 157,
            "TANGENT": 158
          },
          "indices": 159,
          "material": 1
        }
      ]
    },
    {
      "name": "Mesh_32",
      "primitives": [
        {
          "attributes": {
            "POSITION": 160,
            "NORMAL": 161,
            "TEXCOORD_0": 162,
            "TANGENT": 163
          },
          "indices": 164,
          "material": 2
        }
      ]
    },
    {
      "name": "Mesh_33",
      "primitives": [
        {
          "attributes": {
            "POSITION": 165,
            "NORMAL": 166,
            "TEXCOORD_0": 167,
            "TANGENT": 168
          },
          "indices": 169,
          "material": 1
        }
      ]
    },
    {
      "name": "Mesh_34",
      "primitives": [
        {
          "attributes": {
            "POSITION": 170,
            "NORMAL": 171,
            "TEXCOORD_0": 172,
            "TANGENT": 173
          },
          "indices": 174,
          "material": 1
        }
      ]
    },
    {
      "name": "Mesh_35",
      "primitives": [
        {
          "attributes": {
            "POSITION": 175,
            "NORMAL": 176,
            "TEXCOORD_0": 177,
            "TANGENT": 178
          },
          "indices": 179,
          "material": 2
        }
      ]
    },
    {
      "name": "Mesh_36",
      "primitives": [
        {
          "attributes": {
            "POSITION": 180,
            "NORMAL": 181,
            "TEXCOORD_0": 182,
            "TANGENT": 183
          },
          "indices": 184,
          "material": 1
        }
      ]
    },
    {
      "name": "Mesh_37",
      "primitives": [
        {
          "attributes": {
            "POSITION": 185,
            "NORMAL": 186,
            "TEXCOORD_0": 187,
            "TANGENT": 188
          },
          "indices": 189,
          "material": 1
        }
      ]
    },
    {
      "name": "Mesh_38",
      "primitives": [
        {
          "attributes": {
            "POSITION": 190,
            "NORMAL": 191,
            "TEXCOORD_0": 192,
            "TANGENT": 193
          },
          "indices": 194,
          "material": 2
        }
      ]
    },
    {
      "name": "Mesh_39",
      "primitives": [
        {
          "attributes": {
            "POSITION": 195,
            "NORMAL": 196,
            "TEXCOORD_0": 197,
            "TANGENT": 198
          },
          "indices": 199,
          "material": 3
        }
      ]
    }
  ],
  "accessors": [
    {
      "bufferView": 0,
      "componentType": 5126,
      "count": 18,
      "type": "VEC3",
      "min": [
        27.1779995,
        0,
        -6.98500013
      ],
      "max": [
        33.5279999,
        0,
        -1.26999998
      ]
    },
    {
      "bufferView": 1,
      "componentType": 5126,
      "count": 18,
      "type": "VEC3"
    },
    {
      "bufferView": 2,
      "componentType": 5126,
      "count": 18,
      "type": "VEC2"
    },
    {
      "bufferView": 3,
      "componentType": 5126,
      "count": 18,
      "type": "VEC4"
    },
    {
      "bufferView": 4,
      "componentType": 5123,
      "count": 48,
      "type": "SCALAR"
    },
    {
      "bufferView": 5,
      "componentType": 5126,
      "count": 19,
      "type": "VEC3",
      "min": [
        22.0979996,
        0,
        -12.0649996
      ],
      "max": [
        27.1779995,
        0,
        -4.11479998
      ]
    },
    {
      "bufferView": 6,
      "componentType": 5126,
      "count": 19,
      "type": "VEC3"
    },
    {
      "bufferView": 7,
      "componentType": 5126,
      "count": 19,
      "type": "VEC2"
    },
    {
      "bufferView": 8,
      "componentType": 5126,
      "count": 19,
      "type": "VEC4"
    },
    {
      "bufferView": 9,
      "componentType": 5123,
      "count": 51,
      "type": "SCALAR"
    },
    {
      "bufferView": 10,
      "componentType": 5126,
      "count": 10,
      "type": "VEC3",
      "min": [
        14.4779997,
        0,
        -12.0649996
      ],
      "max": [
        22.0979996,
        0,
        -4.11479998
      ]
    },
    {
      "bufferView": 11,
      "componentType": 5126,
      "count": 10,
      "type": "VEC3"
    },
    {
      "bufferView": 12,
      "componentType": 5126,
      "count": 10,
      "type": "VEC2"
    },
    {
      "bufferView": 13,
      "componentType": 5126,
      "count": 10,
      "type": "VEC4"
    },
    {
      "bufferView": 14,
      "componentType": 5123,
      "count": 24,
      "type": "SCALAR"
    },
    {
      "bufferView": 15,
      "componentType": 5126,
      "count": 10,
      "type": "VEC3",
      "min": [
        14.4779997,
        0,
        -4.11479998
      ],
      "max": [
        22.0979996,
        0,
        3.80999994
      ]
    },
    {
      "bufferView": 16,
      "componentType": 5126,
      "count": 10,
      "type": "VEC3"
    },
    {
      "bufferView": 17,
      "componentType": 5126,
      "count": 10,
      "type": "VEC2"
    },
    {
      "bufferView": 18,
      "componentType": 5126,
      "count": 10,
      "type": "VEC4"
    },
    {
      "bufferView": 19,
      "componentType": 5123,
      "count": 24,
      "type": "SCALAR"
    },
    {
      "bufferView": 20,
      "componentType": 5126,
      "count": 19,
      "type": "VEC3",
      "min": [
        22.0979996,
        0,
        -4.11479998
      ],
      "max": [
        27.1779995,
        0,
        3.80999994
      ]
    },
    {
      "bufferView": 21,
      "componentType": 5126,
      "count": 19,
      "type": "VEC3"
    },
    {
      "bufferView": 22,
      "componentType": 5126,
      "count": 19,
      "type": "VEC2"
    },
    {
      "bufferView": 23,
      "componentType": 5126,
      "count": 19,
      "type": "VEC4"
    },
    {
      "bufferView": 24,
      "componentType": 5123,
      "count": 51,
      "type": "SCALAR"
    },
    {
      "bufferView": 25,
      "componentType": 5126,
      "count": 24,
      "type": "VEC3",
      "min": [
        0.99059999,
        0,
        -13.8176003
      ],
      "max": [
        10.7695999,
        0,
        -7.31519985
      ]
    },
    {
      "bufferView": 26,
      "componentType": 5126,
      "count": 24,
      "type": "VEC3"
    },
    {
      "bufferView": 27,
      "componentType": 5126,
      "count": 24,
      "type": "VEC2"
    },
    {
      "bufferView": 28,
      "componentType": 5126,
      "count": 24,
      "type": "VEC4"
    },
    {
      "bufferView": 29,
      "componentType": 5123,
      "count": 66,
      "type": "SCALAR"
    },
    {
      "bufferView": 30,
      "componentType": 5126,
      "count": 12,
      "type": "VEC3",
      "min": [
        27.5844002,
        0.00508000003,
        -3.04233813
      ],
      "max": [
        33.1216011,
        0.00762000028,
        -1.67639995
      ]
    },
    {
      "bufferView": 31,
      "componentType": 5126,
      "count": 12,
      "type": "VEC3"
    },
    {
      "bufferView": 32,
      "componentType": 5126,
      "count": 12,
      "type": "VEC2"
    },
    {
      "bufferView": 33,
      "componentType": 5126,
      "count": 12,
      "type": "VEC4"
    },
    {
      "bufferView": 34,
      "componentType": 5123,
      "count": 30,
      "type": "SCALAR"
    },
    {
      "bufferView": 35,
      "componentType": 5126,
      "count": 42,
      "type": "VEC3",
      "min": [
        27.1779995,
        0,
        -2.79116893
      ],
      "max": [
        33.9343987,
        1.52399993,
        -0.863600016
      ]
    },
    {
      "bufferView": 36,
      "componentType": 5126,
      "count": 42,
      "type": "VEC3"
    },
    {
      "bufferView": 37,
      "componentType": 5126,
      "count": 42,
      "type": "VEC2"
    },
    {
      "bufferView": 38,
      "componentType": 5126,
      "count": 42,
      "type": "VEC4"
    },
    {
      "bufferView": 39,
      "componentType": 5123,
      "count": 180,
      "type": "SCALAR"
    },
    {
      "bufferView": 40,
      "componentType": 5126,
      "count": 6,
      "type": "VEC3",
      "min": [
        26.3652,
        0.00508000003,
        -3.30200005
      ],
      "max": [
        26.7715988,
        0.00762000028,
        -1.67639995
      ]
    },
    {
      "bufferView": 41,
      "componentType": 5126,
      "count": 6,
      "type": "VEC3"
    },
    {
      "bufferView": 42,
      "componentType": 5126,
      "count": 6,
      "type": "VEC2"
    },
    {
      "bufferView": 43,
      "componentType": 5126,
      "count": 6,
      "type": "VEC4"
    },
    {
      "bufferView": 44,
      "componentType": 5123,
      "count": 12,
      "type": "SCALAR"
    },
    {
      "bufferView": 45,
      "componentType": 5126,
      "count": 6,
      "type": "VEC3",
      "min": [
        27.5844002,
        0.00508000003,
        -3.30200005
      ],
      "max": [
        27.990799,
        0.00762000028,
        -1.67639995
      ]
    },
    {
      "bufferView": 46,
      "componentType": 5126,
      "count": 6,
      "type": "VEC3"
    },
    {
      "bufferView": 47,
      "componentType": 5126,
      "count": 6,
      "type": "VEC2"
    },
    {
      "bufferView": 48,
      "componentType": 5126,
      "count": 6,
      "type": "VEC4"
    },
    {
      "bufferView": 49,
      "componentType": 5123,
      "count": 12,
      "type": "SCALAR"
    },
    {
      "bufferView": 50,
      "componentType": 5126,
      "count": 28,
      "type": "VEC3",
      "min": [
        26.7715988,
        0,
        -3.30200005
      ],
      "max": [
        27.5844002,
        1.52399993,
        -1.26999998
      ]
    },
    {
      "bufferView": 51,
      "componentType": 5126,
      "count": 28,
      "type": "VEC3"
    },
    {
      "bufferView": 52,
      "componentType": 5126,
      "count": 28,
      "type": "VEC2"
    },
    {
      "bufferView": 53,
      "componentType": 5126,
      "count": 28,
      "type": "VEC4"
    },
    {
      "bufferView": 54,
      "componentType": 5123,
      "count": 87,
      "type": "SCALAR"
    },
    {
      "bufferView": 55,
      "componentType": 5126,
      "count": 8,
      "type": "VEC3",
      "min": [
        23.825201,
        0.00508000003,
        -2.08279991
      ],
      "max": [
        26.7715988,
        0.00762000028,
        1.17406201
      ]
    },
    {
      "bufferView": 56,
      "componentType": 5126,
      "count": 8,
      "type": "VEC3"
    },
    {
      "bufferView": 57,
      "componentType": 5126,
      "count": 8,
      "type": "VEC2"
    },
    {
      "bufferView": 58,
      "componentType": 5126,
      "count": 8,
      "type": "VEC4"
    },
    {
      "bufferView": 59,
      "componentType": 5123,
      "count": 18,
      "type": "SCALAR"
    },
    {
      "bufferView": 60,
      "componentType": 5126,
      "count": 28,
      "type": "VEC3",
      "min": [
        24.2315998,
        0,
        -1.67639995
      ],
      "max": [
        27.1779995,
        1.52399993,
        1.36593795
      ]
    },
    {
      "bufferView": 61,
      "componentType": 5126,
      "count": 28,
      "type": "VEC3"
    },
    {
      "bufferView": 62,
      "componentType": 5126,
      "count": 28,
      "type": "VEC2"
    },
    {
      "bufferView": 63,
      "componentType": 5126,
      "count": 28,
      "type": "VEC4"
    },
    {
      "bufferView": 64,
      "componentType": 5123,
      "count": 108,
      "type": "SCALAR"
    },
    {
      "bufferView": 65,
      "componentType": 5126,
      "count": 10,
      "type": "VEC3",
      "min": [
        22.0979996,
        0.00508000003,
        1.07812417
      ],
      "max": [
        24.2315998,
        0.00762000028,
        3.40359998
      ]
    },
    {
      "bufferView": 66,
      "componentType": 5126,
      "count": 10,
      "type": "VEC3"
    },
    {
      "bufferView": 67,
      "componentType": 5126,
      "count": 10,
      "type": "VEC2"
    },
    {
      "bufferView": 68,
      "componentType": 5126,
      "count": 10,
      "type": "VEC4"
    },
    {
      "bufferView": 69,
      "componentType": 5123,
      "count": 24,
      "type": "SCALAR"
    },
    {
      "bufferView": 70,
      "componentType": 5126,
      "count": 35,
      "type": "VEC3",
      "min": [
        22.0979996,
        0,
        1.17406201
      ],
      "max": [
        25.0444012,
        1.52399993,
        4.21640015
      ]
    },
    {
      "bufferView": 71,
      "componentType": 5126,
      "count": 35,
      "type": "VEC3"
    },
    {
      "bufferView": 72,
      "componentType": 5126,
      "count": 35,
      "type": "VEC2"
    },
    {
      "bufferView": 73,
      "componentType": 5126,
      "count": 35,
      "type": "VEC4"
    },
    {
      "bufferView": 74,
      "componentType": 5123,
      "count": 144,
      "type": "SCALAR"
    },
    {
      "bufferView": 75,
      "componentType": 5126,
      "count": 6,
      "type": "VEC3",
      "min": [
        32.7151985,
        0.00508000003,
        -5.39769268
      ],
      "max": [
        33.1216011,
        0.00762000028,
        -2.79116893
      ]
    },
    {
      "bufferView": 76,
      "componentType": 5126,
      "count": 6,
      "type": "VEC3"
    },
    {
      "bufferView": 77,
      "componentType": 5126,
      "count": 6,
      "type": "VEC2"
    },
    {
      "bufferView": 78,
      "componentType": 5126,
      "count": 6,
      "type": "VEC4"
    },
    {
      "bufferView": 79,
      "componentType": 5123,
      "count": 12,
      "type": "SCALAR"
    },
    {
      "bufferView": 80,
      "componentType": 5126,
      "count": 21,
      "type": "VEC3",
      "min": [
        33.1216011,
        0,
        -6.03230762
      ],
      "max": [
        33.9343987,
        1.52399993,
        -2.288831
      ]
    },
    {
      "bufferView": 81,
      "componentType": 5126,
      "count": 21,
      "type": "VEC3"
    },
    {
      "bufferView": 82,
      "componentType": 5126,
      "count": 21,
      "type": "VEC2"
    },
    {
      "bufferView": 83,
      "componentType": 5126,
      "count": 21,
      "type": "VEC4"
    },
    {
      "bufferView": 84,
      "componentType": 5123,
      "count": 72,
      "type": "SCALAR"
    },
    {
      "bufferView": 85,
      "componentType": 5126,
      "count": 10,
      "type": "VEC3",
      "min": [
        27.5844002,
        0.00508000003,
        -6.50526094
      ],
      "max": [
        33.1216011,
        0.00762000028,
        -5.08038521
      ]
    },
    {
      "bufferView": 86,
      "componentType": 5126,
      "count": 10,
      "type": "VEC3"
    },
    {
      "bufferView": 87,
      "componentType": 5126,
      "count": 10,
      "type": "VEC2"
    },
    {
      "bufferView": 88,
      "componentType": 5126,
      "count": 10,
      "type": "VEC4"
    },
    {
      "bufferView": 89,
      "componentType": 5123,
      "count": 24,
      "type": "SCALAR"
    },
    {
      "bufferView": 90,
      "componentType": 5126,
      "count": 35,
      "type": "VEC3",
      "min": [
        27.1779995,
        0,
        -7.39140034
      ],
      "max": [
        33.9343987,
        1.52399993,
        -5.39769268
      ]
    },
    {
      "bufferView": 91,
      "componentType": 5126,
      "count": 35,
      "type": "VEC3"
    },
    {
      "bufferView": 92,
      "componentType": 5126,
      "count": 35,
      "type": "VEC2"
    },
    {
      "bufferView": 93,
      "componentType": 5126,
      "count": 35,
      "type": "VEC4"
    },
    {
      "bufferView": 94,
      "componentType": 5123,
      "count": 144,
      "type": "SCALAR"
    },
    {
      "bufferView": 95,
      "componentType": 5126,
      "count": 6,
      "type": "VEC3",
      "min": [
        26.3652,
        0.00508000003,
        -6.57859993
      ],
      "max": [
        26.7715988,
        0.00762000028,
        -4.92759991
      ]
    },
    {
      "bufferView": 96,
      "componentType": 5126,
      "count": 6,
      "type": "VEC3"
    },
    {
      "bufferView": 97,
      "componentType": 5126,
      "count": 6,
      "type": "VEC2"
    },
    {
      "bufferView": 98,
      "componentType": 5126,
      "count": 6,
      "type": "VEC4"
    },
    {
      "bufferView": 99,
      "componentType": 5123,
      "count": 12,
      "type": "SCALAR"
    },
    {
      "bufferView": 100,
      "componentType": 5126,
      "count": 6,
      "type": "VEC3",
      "min": [
        27.5844002,
        0.00508000003,
        -6.50526094
      ],
      "max": [
        27.990799,
        0.00762000028,
        -4.92759991
      ]
    },
    {
      "bufferView": 101,
      "componentType": 5126,
      "count": 6,
      "type": "VEC3"
    },
    {
      "bufferView": 102,
      "componentType": 5126,
      "count": 6,
      "type": "VEC2"
    },
    {
      "bufferView": 103,
      "componentType": 5126,
      "count": 6,
      "type": "VEC4"
    },
    {
      "bufferView": 104,
      "componentType": 5123,
      "count": 12,
      "type": "SCALAR"
    },
    {
      "bufferView": 105,
      "componentType": 5126,
      "count": 28,
      "type": "VEC3",
      "min": [
        26.7715988,
        0,
        -6.98500013
      ],
      "max": [
        27.5844002,
        1.52399993,
        -4.92759991
      ]
    },
    {
      "bufferView": 106,
      "componentType": 5126,
      "count": 28,
      "type": "VEC3"
    },
    {
      "bufferView": 107,
      "componentType": 5126,
      "count": 28,
      "type": "VEC2"
    },
    {
      "bufferView": 108,
      "componentType": 5126,
      "count": 28,
      "type": "VEC4"
    },
    {
      "bufferView": 109,
      "componentType": 5123,
      "count": 87,
      "type": "SCALAR"
    },
    {
      "bufferView": 110,
      "componentType": 5126,
      "count": 8,
      "type": "VEC3",
      "min": [
        23.825201,
        0.00508000003,
        -9.42906189
      ],
      "max": [
        26.7715988,
        0.00762000028,
        -6.1722002
      ]
    },
    {
      "bufferView": 111,
      "componentType": 5126,
      "count": 8,
      "type": "VEC3"
    },
    {
      "bufferView": 112,
      "componentType": 5126,
      "count": 8,
      "type": "VEC2"
    },
    {
      "bufferView": 113,
      "componentType": 5126,
      "count": 8,
      "type": "VEC4"
    },
    {
      "bufferView": 114,
      "componentType": 5123,
      "count": 18,
      "type": "SCALAR"
    },
    {
      "bufferView": 115,
      "componentType": 5126,
      "count": 28,
      "type": "VEC3",
      "min": [
        24.2315998,
        0,
        -9.62093735
      ],
      "max": [
        27.2116337,
        1.52399993,
        -6.57859993
      ]
    },
    {
      "bufferView": 116,
      "componentType": 5126,
      "count": 28,
      "type": "VEC3"
    },
    {
      "bufferView": 117,
      "componentType": 5126,
      "count": 28,
      "type": "VEC2"
    },
    {
      "bufferView": 118,
      "componentType": 5126,
      "count": 28,
      "type": "VEC4"
    },
    {
      "bufferView": 119,
      "componentType": 5123,
      "count": 108,
      "type": "SCALAR"
    },
    {
      "bufferView": 120,
      "componentType": 5126,
      "count": 10,
      "type": "VEC3",
      "min": [
        22.0979996,
        0.00508000003,
        -11.6585999
      ],
      "max": [
        24.2315998,
        0.00762000028,
        -9.33312416
      ]
    },
    {
      "bufferView": 121,
      "componentType": 5126,
      "count": 10,
      "type": "VEC3"
    },
    {
      "bufferView": 122,
      "componentType": 5126,
      "count": 10,
      "type": "VEC2"
    },
    {
      "bufferView": 123,
      "componentType": 5126,
      "count": 10,
      "type": "VEC4"
    },
    {
      "bufferView": 124,
      "componentType": 5123,
      "count": 24,
      "type": "SCALAR"
    },
    {
      "bufferView": 125,
      "componentType": 5126,
      "count": 35,
      "type": "VEC3",
      "min": [
        22.0979996,
        0,
        -12.4713993
      ],
      "max": [
        25.0444012,
        1.52399993,
        -9.42906189
      ]
    },
    {
      "bufferView": 126,
      "componentType": 5126,
      "count": 35,
      "type": "VEC3"
    },
    {
      "bufferView": 127,
      "componentType": 5126,
      "count": 35,
      "type": "VEC2"
    },
    {
      "bufferView": 128,
      "componentType": 5126,
      "count": 35,
      "type": "VEC4"
    },
    {
      "bufferView": 129,
      "componentType": 5123,
      "count": 144,
      "type": "SCALAR"
    },
    {
      "bufferView": 130,
      "componentType": 5126,
      "count": 20,
      "type": "VEC3",
      "min": [
        14.9047003,
        0.00508000003,
        -11.6585999
      ],
      "max": [
        22.0979996,
        0.00762000028,
        -4.11499834
      ]
    },
    {
      "bufferView": 131,
      "componentType": 5126,
      "count": 20,
      "type": "VEC3"
    },
    {
      "bufferView": 132,
      "componentType": 5126,
      "count": 20,
      "type": "VEC2"
    },
    {
      "bufferView": 133,
      "componentType": 5126,
      "count": 20,
      "type": "VEC4"
    },
    {
      "bufferView": 134,
      "componentType": 5123,
      "count": 54,
      "type": "SCALAR"
    },
    {
      "bufferView": 135,
      "componentType": 5126,
      "count": 70,
      "type": "VEC3",
      "min": [
        14.0512991,
        0,
        -12.4713993
      ],
      "max": [
        22.0979996,
        1.52399993,
        -4.11460161
      ]
    },
    {
      "bufferView": 136,
      "componentType": 5126,
      "count": 70,
      "type": "VEC3"
    },
    {
      "bufferView": 137,
      "componentType": 5126,
      "count": 70,
      "type": "VEC2"
    },
    {
      "bufferView": 138,
      "componentType": 5126,
      "count": 70,
      "type": "VEC4"
    },
    {
      "bufferView": 139,
      "componentType": 5123,
      "count": 324,
      "type": "SCALAR"
    },
    {
      "bufferView": 140,
      "componentType": 5126,
      "count": 20,
      "type": "VEC3",
      "min": [
        14.9047003,
        0.00508000003,
        -4.11519623
      ],
      "max": [
        22.0979996,
        0.00762000028,
        3.40359998
      ]
    },
    {
      "bufferView": 141,
      "componentType": 5126,
      "count": 20,
      "type": "VEC3"
    },
    {
      "bufferView": 142,
      "componentType": 5126,
      "count": 20,
      "type": "VEC2"
    },
    {
      "bufferView": 143,
      "componentType": 5126,
      "count": 20,
      "type": "VEC4"
    },
    {
      "bufferView": 144,
      "componentType": 5123,
      "count": 54,
      "type": "SCALAR"
    },
    {
      "bufferView": 145,
      "componentType": 5126,
      "count": 70,
      "type": "VEC3",
      "min": [
        14.0512991,
        0,
        -4.11499834
      ],
      "max": [
        22.0979996,
        1.52399993,
        4.21640015
      ]
    },
    {
      "bufferView": 146,
      "componentType": 5126,
      "count": 70,
      "type": "VEC3"
    },
    {
      "bufferView": 147,
      "componentType": 5126,
      "count": 70,
      "type": "VEC2"
    },
    {
      "bufferView": 148,
      "componentType": 5126,
      "count": 70,
      "type": "VEC4"
    },
    {
      "bufferView": 149,
      "componentType": 5123,
      "count": 324,
      "type": "SCALAR"
    },
    {
      "bufferView": 150,
      "componentType": 5126,
      "count": 16,
      "type": "VEC3",
      "min": [
        1.07865834,
        0.00508000003,
        -10.5663996
      ],
      "max": [
        12.044445,
        0.00762000028,
        -6.48148632
      ]
    },
    {
      "bufferView": 151,
      "componentType": 5126,
      "count": 16,
      "type": "VEC3"
    },
    {
      "bufferView": 152,
      "componentType": 5126,
      "count": 16,
      "type": "VEC2"
    },
    {
      "bufferView": 153,
      "componentType": 5126,
      "count": 16,
      "type": "VEC4"
    },
    {
      "bufferView": 154,
      "componentType": 5123,
      "count": 42,
      "type": "SCALAR"
    },
    {
      "bufferView": 155,
      "componentType": 5126,
      "count": 16,
      "type": "VEC3",
      "min": [
        1.89907074,
        0.00508000003,
        -10.5663996
      ],
      "max": [
        10.1321774,
        0.00762000028,
        -7.73205662
      ]
    },
    {
      "bufferView": 156,
      "componentType": 5126,
      "count": 16,
      "type": "VEC3"
    },
    {
      "bufferView": 157,
      "componentType": 5126,
      "count": 16,
      "type": "VEC2"
    },
    {
      "bufferView": 158,
      "componentType": 5126,
      "count": 16,
      "type": "VEC4"
    },
    {
      "bufferView": 159,
      "componentType": 5123,
      "count": 42,
      "type": "SCALAR"
    },
    {
      "bufferView": 160,
      "componentType": 5126,
      "count": 56,
      "type": "VEC3",
      "min": [
        1.35212922,
        0,
        -10.5663996
      ],
      "max": [
        11.4070225,
        1.52399993,
        -6.89834309
      ]
    },
    {
      "bufferView": 161,
      "componentType": 5126,
      "count": 56,
      "type": "VEC3"
    },
    {
      "bufferView": 162,
      "componentType": 5126,
      "count": 56,
      "type": "VEC2"
    },
    {
      "bufferView": 163,
      "componentType": 5126,
      "count": 56,
      "type": "VEC4"
    },
    {
      "bufferView": 164,
      "componentType": 5123,
      "count": 252,
      "type": "SCALAR"
    },
    {
      "bufferView": 165,
      "componentType": 5126,
      "count": 16,
      "type": "VEC3",
      "min": [
        1.07865834,
        0.00508000003,
        -14.6513138
      ],
      "max": [
        12.044445,
        0.00762000028,
        -10.5663996
      ]
    },
    {
      "bufferView": 166,
      "componentType": 5126,
      "count": 16,
      "type": "VEC3"
    },
    {
      "bufferView": 167,
      "componentType": 5126,
      "count": 16,
      "type": "VEC2"
    },
    {
      "bufferView": 168,
      "componentType": 5126,
      "count": 16,
      "type": "VEC4"
    },
    {
      "bufferView": 169,
      "componentType": 5123,
      "count": 42,
      "type": "SCALAR"
    },
    {
      "bufferView": 170,
      "componentType": 5126,
      "count": 16,
      "type": "VEC3",
      "min": [
        1.89907086,
        0.00508000003,
        -13.4007435
      ],
      "max": [
        10.1321774,
        0.00762000028,
        -10.5663996
      ]
    },
    {
      "bufferView": 171,
      "componentType": 5126,
      "count": 16,
      "type": "VEC3"
    },
    {
      "bufferView": 172,
      "componentType": 5126,
      "count": 16,
      "type": "VEC2"
    },
    {
      "bufferView": 173,
      "componentType": 5126,
      "count": 16,
      "type": "VEC4"
    },
    {
      "bufferView": 174,
      "componentType": 5123,
      "count": 42,
      "type": "SCALAR"
    },
    {
      "bufferView": 175,
      "componentType": 5126,
      "count": 56,
      "type": "VEC3",
      "min": [
        1.3521291,
        0,
        -14.234457
      ],
      "max": [
        11.4070225,
        1.52399993,
        -10.5663996
      ]
    },
    {
      "bufferView": 176,
      "componentType": 5126,
      "count": 56,
      "type": "VEC3"
    },
    {
      "bufferView": 177,
      "componentType": 5126,
      "count": 56,
      "type": "VEC2"
    },
    {
      "bufferView": 178,
      "componentType": 5126,
      "count": 56,
      "type": "VEC4"
    },
    {
      "bufferView": 179,
      "componentType": 5123,
      "count": 252,
      "type": "SCALAR"
    },
    {
      "bufferView": 180,
      "componentType": 5126,
      "count": 12,
      "type": "VEC3",
      "min": [
        0.205669224,
        0.00508000003,
        -14.6513138
      ],
      "max": [
        1.35212922,
        0.00762000028,
        -6.48148632
      ]
    },
    {
      "bufferView": 181,
      "componentType": 5126,
      "count": 12,
      "type": "VEC3"
    },
    {
      "bufferView": 182,
      "componentType": 5126,
      "count": 12,
      "type": "VEC2"
    },
    {
      "bufferView": 183,
      "componentType": 5126,
      "count": 12,
      "type": "VEC4"
    },
    {
      "bufferView": 184,
      "componentType": 5123,
      "count": 30,
      "type": "SCALAR"
    },
    {
      "bufferView": 185,
      "componentType": 5126,
      "count": 12,
      "type": "VEC3",
      "min": [
        1.42116547,
        0.00508000003,
        -13.4007435
      ],
      "max": [
        2.17254162,
        0.00762000028,
        -7.73205662
      ]
    },
    {
      "bufferView": 186,
      "componentType": 5126,
      "count": 12,
      "type": "VEC3"
    },
    {
      "bufferView": 187,
      "componentType": 5126,
      "count": 12,
      "type": "VEC2"
    },
    {
      "bufferView": 188,
      "componentType": 5126,
      "count": 12,
      "type": "VEC4"
    },
    {
      "bufferView": 189,
      "componentType": 5123,
      "count": 30,
      "type": "SCALAR"
    },
    {
      "bufferView": 190,
      "componentType": 5126,
      "count": 42,
      "type": "VEC3",
      "min": [
        0.610834599,
        0,
        -14.234457
      ],
      "max": [
        1.89907086,
        1.52399993,
        -6.89834309
      ]
    },
    {
      "bufferView": 191,
      "componentType": 5126,
      "count": 42,
      "type": "VEC3"
    },
    {
      "bufferView": 192,
      "componentType": 5126,
      "count": 42,
      "type": "VEC2"
    },
    {
      "bufferView": 193,
      "componentType": 5126,
      "count": 42,
      "type": "VEC4"
    },
    {
      "bufferView": 194,
      "componentType": 5123,
      "count": 180,
      "type": "SCALAR"
    },
    {
      "bufferView": 195,
      "componentType": 5126,
      "count": 8,
      "type": "VEC3",
      "min": [
        1.62559998,
        0.0253999997,
        -11.3792
      ],
      "max": [
        30.8864002,
        0.0253999997,
        -3.25119996
      ]
    },
    {
      "bufferView": 196,
      "componentType": 5126,
      "count": 8,
      "type": "VEC3"
    },
    {
      "bufferView": 197,
      "componentType": 5126,
      "count": 8,
      "type": "VEC2"
    },
    {
      "bufferView": 198,
      "componentType": 5126,
      "count": 8,
      "type": "VEC4"
    },
    {
      "bufferView": 199,
      "componentType": 5123,
      "count": 12,
      "type": "SCALAR"
    }
  ],
  "bufferViews": [
    {
      "buffer": 0,
      "byteOffset": 0,
      "byteLength": 216,
      "target": 34962
    },
    {
      "buffer": 0,
      "byteOffset": 216,
      "byteLength": 216,
      "target": 34962
    },
    {
      "buffer": 0,
      "byteOffset": 432,
      "byteLength": 144,
      "target": 34962
    },
    {
      "buffer": 0,
      "byteOffset": 576,
      "byteLength": 288,
      "target": 34962
    },
    {
      "buffer": 0,
      "byteOffset": 864,
      "byteLength": 96,
      "target": 34963
    },
    {
      "buffer": 0,
      "byteOffset": 960,
      "byteLength": 228,
      "target": 34962
    },
    {
      "buffer": 0,
      "byteOffset": 1188,
      "byteLength": 228,
      "target": 34962
    },
    {
      "buffer": 0,
      "byteOffset": 1416,
      "byteLength": 152,
      "target": 34962
    },
    {
      "buffer": 0,
      "byteOffset": 1568,
      "byteLength": 304,
      "target": 34962
    },
    {
      "buffer": 0,
      "byteOffset": 1872,
      "byteLength": 102,
      "target": 34963
    },
    {
      "buffer": 0,
      "byteOffset": 1976,
      "byteLength": 120,
      "target": 34962
    },
    {
      "buffer": 0,
      "byteOffset": 2096,
      "byteLength": 120,
      "target": 34962
    },
    {
      "buffer": 0,
      "byteOffset": 2216,
      "byteLength": 80,
      "target": 34962
    },
    {
      "buffer": 0,
      "byteOffset": 2296,
      "byteLength": 160,
      "target": 34962
    },
    {
      "buffer": 0,
      "byteOffset": 2456,
      "byteLength": 48,
      "target": 34963
    },
    {
      "buffer": 0,
      "byteOffset": 2504,
      "byteLength": 120,
      "target": 34962
    },
    {
      "buffer": 0,
      "byteOffset": 2624,
      "byteLength": 120,
      "target": 34962
    },
    {
      "buffer": 0,
      "byteOffset": 2744,
      "byteLength": 80,
      "target": 34962
    },
    {
      "buffer": 0,
      "byteOffset": 2824,
      "byteLength": 160,
      "target": 34962
    },
    {
      "buffer": 0,
      "byteOffset": 2984,
      "byteLength": 48,
      "target": 34963
    },
    {
      "buffer": 0,
      "byteOffset": 3032,
      "byteLength": 228,
      "target": 34962
    },
    {
      "buffer": 0,
      "byteOffset": 3260,
      "byteLength": 228,
      "target": 34962
    },
    {
      "buffer": 0,
      "byteOffset": 3488,
      "byteLength": 152,
      "target": 34962
    },
    {
      "buffer": 0,
      "byteOffset": 3640,
      "byteLength": 304,
      "target": 34962
    },
    {
      "buffer": 0,
      "byteOffset": 3944,
      "byteLength": 102,
      "target": 34963
    },
    {
      "buffer": 0,
      "byteOffset": 4048,
      "byteLength": 288,
      "target": 34962
    },
    {
      "buffer": 0,
      "byteOffset": 4336,
      "byteLength": 288,
      "target": 34962
    },
    {
      "buffer": 0,
      "byteOffset": 4624,
      "byteLength": 192,
      "target": 34962
    },
    {
      "buffer": 0,
      "byteOffset": 4816,
      "byteLength": 384,
      "target": 34962
    },
    {
      "buffer": 0,
      "byteOffset": 5200,
      "byteLength": 132,
      "target": 34963
    },
    {
      "buffer": 0,
      "byteOffset": 5332,
      "byteLength": 144,
      "target": 34962
    },
    {
      "buffer": 0,
      "byteOffset": 5476,
      "byteLength": 144,
      "target": 34962
    },
    {
      "buffer": 0,
      "byteOffset": 5620,
      "byteLength": 96,
      "target": 34962
    },
    {
      "buffer": 0,
      "byteOffset": 5716,
      "byteLength": 192,
      "target": 34962
    },
    {
      "buffer": 0,
      "byteOffset": 5908,
      "byteLength": 60,
      "target": 34963
    },
    {
      "buffer": 0,
      "byteOffset": 5968,
      "byteLength": 504,
      "target": 34962
    },
    {
      "buffer": 0,
      "byteOffset": 6472,
      "byteLength": 504,
      "target": 34962
    },
    {
      "buffer": 0,
      "byteOffset": 6976,
      "byteLength": 336,
      "target": 34962
    },
    {
      "buffer": 0,
      "byteOffset": 7312,
      "byteLength": 672,
      "target": 34962
    },
    {
      "buffer": 0,
      "byteOffset": 7984,
      "byteLength": 360,
      "target": 34963
    },
    {
      "buffer": 0,
      "byteOffset": 8344,
      "byteLength": 72,
      "target": 34962
    },
    {
      "buffer": 0,
      "byteOffset": 8416,
      "byteLength": 72,
      "target": 34962
    },
    {
      "buffer": 0,
      "byteOffset": 8488,
      "byteLength": 48,
      "target": 34962
    },
    {
      "buffer": 0,
      "byteOffset": 8536,
      "byteLength": 96,
      "target": 34962
    },
    {
      "buffer": 0,
      "byteOffset": 8632,
      "byteLength": 24,
      "target": 34963
    },
    {
      "buffer": 0,
      "byteOffset": 8656,
      "byteLength": 72,
      "target": 34962
    },
    {
      "buffer": 0,
      "byteOffset": 8728,
      "byteLength": 72,
      "target": 34962
    },
    {
      "buffer": 0,
      "byteOffset": 8800,
      "byteLength": 48,
      "target": 34962
    },
    {
      "buffer": 0,
      "byteOffset": 8848,
      "byteLength": 96,
      "target": 34962
    },
    {
      "buffer": 0,
      "byteOffset": 8944,
      "byteLength": 24,
      "target": 34963
    },
    {
      "buffer": 0,
      "byteOffset": 8968,
      "byteLength": 336,
      "target": 34962
    },
    {
      "buffer": 0,
      "byteOffset": 9304,
      "byteLength": 336,
      "target": 34962
    },
    {
      "buffer": 0,
      "byteOffset": 9640,
      "byteLength": 224,
      "target": 34962
    },
    {
      "buffer": 0,
      "byteOffset": 9864,
      "byteLength": 448,
      "target": 34962
    },
    {
      "buffer": 0,
      "byteOffset": 10312,
      "byteLength": 174,
      "target": 34963
    },
    {
      "buffer": 0,
      "byteOffset": 10488,
      "byteLength": 96,
      "target": 34962
    },
    {
      "buffer": 0,
      "byteOffset": 10584,
      "byteLength": 96,
      "target": 34962
    },
    {
      "buffer": 0,
      "byteOffset": 10680,
      "byteLength": 64,
      "target": 34962
    },
    {
      "buffer": 0,
      "byteOffset": 10744,
      "byteLength": 128,
      "target": 34962
    },
    {
      "buffer": 0,
      "byteOffset": 10872,
      "byteLength": 36,
      "target": 34963
    },
    {
      "buffer": 0,
      "byteOffset": 10908,
      "byteLength": 336,
      "target": 34962
    },
    {
      "buffer": 0,
      "byteOffset": 11244,
      "byteLength": 336,
      "target": 34962
    },
    {
      "buffer": 0,
      "byteOffset": 11580,
      "byteLength": 224,
      "target": 34962
    },
    {
      "buffer": 0,
      "byteOffset": 11804,
      "byteLength": 448,
      "target": 34962
    },
    {
      "buffer": 0,
      "byteOffset": 12252,
      "byteLength": 216,
      "target": 34963
    },
    {
      "buffer": 0,
      "byteOffset": 12468,
      "byteLength": 120,
      "target": 34962
    },
    {
      "buffer": 0,
      "byteOffset": 12588,
      "byteLength": 120,
      "target": 34962
    },
    {
      "buffer": 0,
      "byteOffset": 12708,
      "byteLength": 80,
      "target": 34962
    },
    {
      "buffer": 0,
      "byteOffset": 12788,
      "byteLength": 160,
      "target": 34962
    },
    {
      "buffer": 0,
      "byteOffset": 12948,
      "byteLength": 48,
      "target": 34963
    },
    {
      "buffer": 0,
      "byteOffset": 12996,
      "byteLength": 420,
      "target": 34962
    },
    {
      "buffer": 0,
      "byteOffset": 13416,
      "byteLength": 420,
      "target": 34962
    },
    {
      "buffer": 0,
      "byteOffset": 13836,
      "byteLength": 280,
      "target": 34962
    },
    {
      "buffer": 0,
      "byteOffset": 14116,
      "byteLength": 560,
      "target": 34962
    },
    {
      "buffer": 0,
      "byteOffset": 14676,
      "byteLength": 288,
      "target": 34963
    },
    {
      "buffer": 0,
      "byteOffset": 14964,
      "byteLength": 72,
      "target": 34962
    },
    {
      "buffer": 0,
      "byteOffset": 15036,
      "byteLength": 72,
      "target": 34962
    },
    {
      "buffer": 0,
      "byteOffset": 15108,
      "byteLength": 48,
      "target": 34962
    },
    {
      "buffer": 0,
      "byteOffset": 15156,
      "byteLength": 96,
      "target": 34962
    },
    {
      "buffer": 0,
      "byteOffset": 15252,
      "byteLength": 24,
      "target": 34963
    },
    {
      "buffer": 0,
      "byteOffset": 15276,
      "byteLength": 252,
      "target": 34962
    },
    {
      "buffer": 0,
      "byteOffset": 15528,
      "byteLength": 252,
      "target": 34962
    },
    {
      "buffer": 0,
      "byteOffset": 15780,
      "byteLength": 168,
      "target": 34962
    },
    {
      "buffer": 0,
      "byteOffset": 15948,
      "byteLength": 336,
      "target": 34962
    },
    {
      "buffer": 0,
      "byteOffset": 16284,
      "byteLength": 144,
      "target": 34963
    },
    {
      "buffer": 0,
      "byteOffset": 16428,
      "byteLength": 120,
      "target": 34962
    },
    {
      "buffer": 0,
      "byteOffset": 16548,
      "byteLength": 120,
      "target": 34962
    },
    {
      "buffer": 0,
      "byteOffset": 16668,
      "byteLength": 80,
      "target": 34962
    },
    {
      "buffer": 0,
      "byteOffset": 16748,
      "byteLength": 160,
      "target": 34962
    },
    {
      "buffer": 0,
      "byteOffset": 16908,
      "byteLength": 48,
      "target": 34963
    },
    {
      "buffer": 0,
      "byteOffset": 16956,
      "byteLength": 420,
      "target": 34962
    },
    {
      "buffer": 0,
      "byteOffset": 17376,
      "byteLength": 420,
      "target": 34962
    },
    {
      "buffer": 0,
      "byteOffset": 17796,
      "byteLength": 280,
      "target": 34962
    },
    {
      "buffer": 0,
      "byteOffset": 18076,
      "byteLength": 560,
      "target": 34962
    },
    {
      "buffer": 0,
      "byteOffset": 18636,
      "byteLength": 288,
      "target": 34963
    },
    {
      "buffer": 0,
      "byteOffset": 18924,
      "byteLength": 72,
      "target": 34962
    },
    {
      "buffer": 0,
      "byteOffset": 18996,
      "byteLength": 72,
      "target": 34962
    },
    {
      "buffer": 0,
      "byteOffset": 19068,
      "byteLength": 48,
      "target": 34962
    },
    {
      "buffer": 0,
      "byteOffset": 19116,
      "byteLength": 96,
      "target": 34962
    },
    {
      "buffer": 0,
      "byteOffset": 19212,
      "byteLength": 24,
      "target": 34963
    },
    {
      "buffer": 0,
      "byteOffset": 19236,
      "byteLength": 72,
      "target": 34962
    },
    {
      "buffer": 0,
      "byteOffset": 19308,
      "byteLength": 72,
      "target": 34962
    },
    {
      "buffer": 0,
      "byteOffset": 19380,
      "byteLength": 48,
      "target": 34962
    },
    {
      "buffer": 0,
      "byteOffset": 19428,
      "byteLength": 96,
      "target": 34962
    },
    {
      "buffer": 0,
      "byteOffset": 19524,
      "byteLength": 24,
      "target": 34963
    },
    {
      "buffer": 0,
      "byteOffset": 19548,
      "byteLength": 336,
      "target": 34962
    },
    {
      "buffer": 0,
      "byteOffset": 19884,
      "byteLength": 336,
      "target": 34962
    },
    {
      "buffer": 0,
      "byteOffset": 20220,
      "byteLength": 224,
      "target": 34962
    },
    {
      "buffer": 0,
      "byteOffset": 20444,
      "byteLength": 448,
      "target": 34962
    },
    {
      "buffer": 0,
      "byteOffset": 20892,
      "byteLength": 174,
      "target": 34963
    },
    {
      "buffer": 0,
      "byteOffset": 21068,
      "byteLength": 96,
      "target": 34962
    },
    {
      "buffer": 0,
      "byteOffset": 21164,
      "byteLength": 96,
      "target": 34962
    },
    {
      "buffer": 0,
      "byteOffset": 21260,
      "byteLength": 64,
      "target": 34962
    },
    {
      "buffer": 0,
      "byteOffset": 21324,
      "byteLength": 128,
      "target": 34962
    },
    {
      "buffer": 0,
      "byteOffset": 21452,
      "byteLength": 36,
      "target": 34963
    },
    {
      "buffer": 0,
      "byteOffset": 21488,
      "byteLength": 336,
      "target": 34962
    },
    {
      "buffer": 0,
      "byteOffset": 21824,
      "byteLength": 336,
      "target": 34962
    },
    {
      "buffer": 0,
      "byteOffset": 22160,
      "byteLength": 224,
      "target": 34962
    },
    {
      "buffer": 0,
      "byteOffset": 22384,
      "byteLength": 448,
      "target": 34962
    },
    {
      "buffer": 0,
      "byteOffset": 22832,
      "byteLength": 216,
      "target": 34963
    },
    {
      "buffer": 0,
      "byteOffset": 23048,
      "byteLength": 120,
      "target": 34962
    },
    {
      "buffer": 0,
      "byteOffset": 23168,
      "byteLength": 120,
      "target": 34962
    },
    {
      "buffer": 0,
      "byteOffset": 23288,
      "byteLength": 80,
      "target": 34962
    },
    {
      "buffer": 0,
      "byteOffset": 23368,
      "byteLength": 160,
      "target": 34962
    },
    {
      "buffer": 0,
      "byteOffset": 23528,
      "byteLength": 48,
      "target": 34963
    },
    {
      "buffer": 0,
      "byteOffset": 23576,
      "byteLength": 420,
      "target": 34962
    },
    {
      "buffer": 0,
      "byteOffset": 23996,
      "byteLength": 420,
      "target": 34962
    },
    {
      "buffer": 0,
      "byteOffset": 24416,
      "byteLength": 280,
      "target": 34962
    },
    {
      "buffer": 0,
      "byteOffset": 24696,
      "byteLength": 560,
      "target": 34962
    },
    {
      "buffer": 0,
      "byteOffset": 25256,
      "byteLength": 288,
      "target": 34963
    },
    {
      "buffer": 0,
      "byteOffset": 25544,
      "byteLength": 240,
      "target": 34962
    },
    {
      "buffer": 0,
      "byteOffset": 25784,
      "byteLength": 240,
      "target": 34962
    },
    {
      "buffer": 0,
      "byteOffset": 26024,
      "byteLength": 160,
      "target": 34962
    },
    {
      "buffer": 0,
      "byteOffset": 26184,
      "byteLength": 320,
      "target": 34962
    },
    {
      "buffer": 0,
      "byteOffset": 26504,
      "byteLength": 108,
      "target": 34963
    },
    {
      "buffer": 0,
      "byteOffset": 26612,
      "byteLength": 840,
      "target": 34962
    },
    {
      "buffer": 0,
      "byteOffset": 27452,
      "byteLength": 840,
      "target": 34962
    },
    {
      "buffer": 0,
      "byteOffset": 28292,
      "byteLength": 560,
      "target": 34962
    },
    {
      "buffer": 0,
      "byteOffset": 28852,
      "byteLength": 1120,
      "target": 34962
    },
    {
      "buffer": 0,
      "byteOffset": 29972,
      "byteLength": 648,
      "target": 34963
    },
    {
      "buffer": 0,
      "byteOffset": 30620,
      "byteLength": 240,
      "target": 34962
    },
    {
      "buffer": 0,
      "byteOffset": 30860,
      "byteLength": 240,
      "target": 34962
    },
    {
      "buffer": 0,
      "byteOffset": 31100,
      "byteLength": 160,
      "target": 34962
    },
    {
      "buffer": 0,
      "byteOffset": 31260,
      "byteLength": 320,
      "target": 34962
    },
    {
      "buffer": 0,
      "byteOffset": 31580,
      "byteLength": 108,
      "target": 34963
    },
    {
      "buffer": 0,
      "byteOffset": 31688,
      "byteLength": 840,
      "target": 34962
    },
    {
      "buffer": 0,
      "byteOffset": 32528,
      "byteLength": 840,
      "target": 34962
    },
    {
      "buffer": 0,
      "byteOffset": 33368,
      "byteLength": 560,
      "target": 34962
    },
    {
      "buffer": 0,
      "byteOffset": 33928,
      "byteLength": 1120,
      "target": 34962
    },
    {
      "buffer": 0,
      "byteOffset": 35048,
      "byteLength": 648,
      "target": 34963
    },
    {
      "buffer": 0,
      "byteOffset": 35696,
      "byteLength": 192,
      "target": 34962
    },
    {
      "buffer": 0,
      "byteOffset": 35888,
      "byteLength": 192,
      "target": 34962
    },
    {
      "buffer": 0,
      "byteOffset": 36080,
      "byteLength": 128,
      "target": 34962
    },
    {
      "buffer": 0,
      "byteOffset": 36208,
      "byteLength": 256,
      "target": 34962
    },
    {
      "buffer": 0,
      "byteOffset": 36464,
      "byteLength": 84,
      "target": 34963
    },
    {
      "buffer": 0,
      "byteOffset": 36548,
      "byteLength": 192,
      "target": 34962
    },
    {
      "buffer": 0,
      "byteOffset": 36740,
      "byteLength": 192,
      "target": 34962
    },
    {
      "buffer": 0,
      "byteOffset": 36932,
      "byteLength": 128,
      "target": 34962
    },
    {
      "buffer": 0,
      "byteOffset": 37060,
      "byteLength": 256,
      "target": 34962
    },
    {
      "buffer": 0,
      "byteOffset": 37316,
      "byteLength": 84,
      "target": 34963
    },
    {
      "buffer": 0,
      "byteOffset": 37400,
      "byteLength": 672,
      "target": 34962
    },
    {
      "buffer": 0,
      "byteOffset": 38072,
      "byteLength": 672,
      "target": 34962
    },
    {
      "buffer": 0,
      "byteOffset": 38744,
      "byteLength": 448,
      "target": 34962
    },
    {
      "buffer": 0,
      "byteOffset": 39192,
      "byteLength": 896,
      "target": 34962
    },
    {
      "buffer": 0,
      "byteOffset": 40088,
      "byteLength": 504,
      "target": 34963
    },
    {
      "buffer": 0,
      "byteOffset": 40592,
      "byteLength": 192,
      "target": 34962
    },
    {
      "buffer": 0,
      "byteOffset": 40784,
      "byteLength": 192,
      "target": 34962
    },
    {
      "buffer": 0,
      "byteOffset": 40976,
      "byteLength": 128,
      "target": 34962
    },
    {
      "buffer": 0,
      "byteOffset": 41104,
      "byteLength": 256,
      "target": 34962
    },
    {
      "buffer": 0,
      "byteOffset": 41360,
      "byteLength": 84,
      "target": 34963
    },
    {
      "buffer": 0,
      "byteOffset": 41444,
      "byteLength": 192,
      "target": 34962
    },
    {
      "buffer": 0,
      "byteOffset": 41636,
      "byteLength": 192,
      "target": 34962
    },
    {
      "buffer": 0,
      "byteOffset": 41828,
      "byteLength": 128,
      "target": 34962
    },
    {
      "buffer": 0,
      "byteOffset": 41956,
      "byteLength": 256,
      "target": 34962
    },
    {
      "buffer": 0,
      "byteOffset": 42212,
      "byteLength": 84,
      "target": 34963
    },
    {
      "buffer": 0,
      "byteOffset": 42296,
      "byteLength": 672,
      "target": 34962
    },
    {
      "buffer": 0,
      "byteOffset": 42968,
      "byteLength": 672,
      "target": 34962
    },
    {
      "buffer": 0,
      "byteOffset": 43640,
      "byteLength": 448,
      "target": 34962
    },
    {
      "buffer": 0,
      "byteOffset": 44088,
      "byteLength": 896,
      "target": 34962
    },
    {
      "buffer": 0,
      "byteOffset": 44984,
      "byteLength": 504,
      "target": 34963
    },
    {
      "buffer": 0,
      "byteOffset": 45488,
      "byteLength": 144,
      "target": 34962
    },
    {
      "buffer": 0,
      "byteOffset": 45632,
      "byteLength": 144,
      "target": 34962
    },
    {
      "buffer": 0,
      "byteOffset": 45776,
      "byteLength": 96,
      "target": 34962
    },
    {
      "buffer": 0,
      "byteOffset": 45872,
      "byteLength": 192,
      "target": 34962
    },
    {
      "buffer": 0,
      "byteOffset": 46064,
      "byteLength": 60,
      "target": 34963
    },
    {
      "buffer": 0,
      "byteOffset": 46124,
      "byteLength": 144,
      "target": 34962
    },
    {
      "buffer": 0,
      "byteOffset": 46268,
      "byteLength": 144,
      "target": 34962
    },
    {
      "buffer": 0,
      "byteOffset": 46412,
      "byteLength": 96,
      "target": 34962
    },
    {
      "buffer": 0,
      "byteOffset": 46508,
      "byteLength": 192,
      "target": 34962
    },
    {
      "buffer": 0,
      "byteOffset": 46700,
      "byteLength": 60,
      "target": 34963
    },
    {
      "buffer": 0,
      "byteOffset": 46760,
      "byteLength": 504,
      "target": 34962
    },
    {
      "buffer": 0,
      "byteOffset": 47264,
      "byteLength": 504,
      "target": 34962
    },
    {
      "buffer": 0,
      "byteOffset": 47768,
      "byteLength": 336,
      "target": 34962
    },
    {
      "buffer": 0,
      "byteOffset": 48104,
      "byteLength": 672,
      "target": 34962
    },
    {
      "buffer": 0,
      "byteOffset": 48776,
      "byteLength": 360,
      "target": 34963
    },
    {
      "buffer": 0,
      "byteOffset": 49136,
      "byteLength": 96,
      "target": 34962
    },
    {
      "buffer": 0,
      "byteOffset": 49232,
      "byteLength": 96,
      "target": 34962
    },
    {
      "buffer": 0,
      "byteOffset": 49328,
      "byteLength": 64,
      "target": 34962
    },
    {
      "buffer": 0,
      "byteOffset": 49392,
      "byteLength": 128,
      "target": 34962
    },
    {
      "buffer": 0,
      "byteOffset": 49520,
      "byteLength": 24,
      "target": 34963
    }
  ],
  "materials": [
    {
      "name": "Material_0",
      "pbrMetallicRoughness": {
        "baseColorFactor": [
          1,
          1,
          1,
          1
        ],
        "baseColorTexture": {
          "index": 0
        },
        "metallicFactor": 1,
        "roughnessFactor": 1
      },
      "normalTexture": {
        "index": 3
      },
      "extras": {
        "shaderHint": "blinn-phong",
        "originalFormat": "asc",
        "blinnPhong": {
          "diffuse": [
            1,
            1,
            1,
            1
          ],
          "specular": [
            1,
            1,
            1,
            1
          ],
          "emissive": [
            0,
            0,
            0,
            0
          ],
          "shininess": 0,
          "transparency": 0
        }
      }
    },
    {
      "name": "Material_1",
      "pbrMetallicRoughness": {
        "baseColorFactor": [
          1,
          1,
          1,
          1
        ],
        "baseColorTexture": {
          "index": 0
        },
        "metallicFactor": 1,
        "roughnessFactor": 1
      },
      "normalTexture": {
        "index": 4
      },
      "extras": {
        "shaderHint": "blinn-phong",
        "originalFormat": "asc",
        "blinnPhong": {
          "diffuse": [
            1,
            1,
            1,
            1
          ],
          "specular": [
            1,
            1,
            1,
            1
          ],
          "emissive": [
            0,
            0,
            0,
            0
          ],
          "shininess": 0,
          "transparency": 0
        }
      }
    },
    {
      "name": "Material_2",
      "pbrMetallicRoughness": {
        "baseColorFactor": [
          1,
          1,
          1,
          1
        ],
        "baseColorTexture": {
          "index": 1
        },
        "metallicFactor": 1,
        "roughnessFactor": 1
      },
      "normalTexture": {
        "index": 5
      },
      "extras": {
        "shaderHint": "blinn-phong",
        "originalFormat": "asc",
        "blinnPhong": {
          "diffuse": [
            1,
            1,
            1,
            1
          ],
          "specular": [
            1,
            1,
            1,
            1
          ],
          "emissive": [
            0,
            0,
            0,
            0
          ],
          "shininess": 0,
          "transparency": 0
        }
      }
    },
    {
      "name": "Material_3",
      "pbrMetallicRoughness": {
        "baseColorFactor": [
          1,
          1,
          1,
          1
        ],
        "baseColorTexture": {
          "index": 2
        },
        "metallicFactor": 1,
        "roughnessFactor": 1
      },
      "normalTexture": {
        "index": 6
      },
      "extras": {
        "shaderHint": "blinn-phong",
        "originalFormat": "asc",
        "blinnPhong": {
          "diffuse": [
            1,
            1,
            1,
            1
          ],
          "specular": [
            1,
            1,
            1,
            1
          ],
          "emissive": [
            0,
            0,
            0,
            0
          ],
          "shininess": 0,
          "transparency": 0
        }
      }
    }
  ],
  "images": [
    {
      "uri": "../textures/metal_grey_1_256.jpg"
    },
    {
      "uri": "../textures/envmapblue.jpg"
    },
    {
      "uri": "../textures/lift1_128.jpg"
    },
    {
      "uri": "../textures/norm_tile0_128.png"
    },
    {
      "uri": "../textures/norm_rounds1_128.png"
    },
    {
      "uri": "../textures/norm_tile2_128.png"
    },
    {
      "uri": "../textures/norm_lift1_128.png"
    }
  ],
  "textures": [
    {
      "source": 0
    },
    {
      "source": 1
    },
    {
      "source": 2
    },
    {
      "source": 3
    },
    {
      "source": 4
    },
    {
      "source": 5
    },
    {
      "source": 6
    }
  ],
  "buffers": [
    {
      "byteLength": 49544,
      "uri": "data:application/octet-stream;base64,"
    }
  ]
}