{
  "asset": {
    "version": "2.0",
    "generator": "model_tool (Raylib ASC Converter)"
  },
  "scene": 0,
  "scenes": [
    {
      "name": "Scene",
      "nodes": [
        0,
        1,
        2,
        3,
        4,
        5,
        6,
        7,
        8,
        9,
        10,
        11,
        12,
        13,
        14,
        15,
        16,
        17,
        18,
        19,
        20,
        21,
        22,
        23,
        24,
        25,
        26,
        27,
        28,
        29
      ]
    }
  ],
  "nodes": [
    {
      "name": "Mesh_0",
      "mesh": 0
    },
    {
      "name": "Mesh_1",
      "mesh": 1
    },
    {
      "name": "Mesh_2",
      "mesh": 2
    },
    {
      "name": "Mesh_3",
      "mesh": 3
    },
    {
      "name": "Mesh_4",
      "mesh": 4
    },
    {
      "name": "Mesh_5",
      "mesh": 5
    },
    {
      "name": "Mesh_6",
      "mesh": 6
    },
    {
      "name": "Mesh_7",
      "mesh": 7
    },
    {
      "name": "Mesh_8",
      "mesh": 8
    },
    {
      "name": "Mesh_9",
      "mesh": 9
    },
    {
      "name": "Mesh_10",
      "mesh": 10
    },
    {
      "name": "Mesh_11",
      "mesh": 11
    },
    {
      "name": "Mesh_12",
      "mesh": 12
    },
    {
      "name": "Mesh_13",
      "mesh": 13
    },
    {
      "name": "Mesh_14",
      "mesh": 14
    },
    {
      "name": "Mesh_15",
      "mesh": 15
    },
    {
      "name": "Mesh_16",
      "mesh": 16
    },
    {
      "name": "Mesh_17",
      "mesh": 17
    },
    {
      "name": "Mesh_18",
      "mesh": 18
    },
    {
      "name": "Mesh_19",
      "mesh": 19
    },
    {
      "name": "Mesh_20",
      "mesh": 20
    },
    {
      "name": "Mesh_21",
      "mesh": 21
    },
    {
      "name": "Mesh_22",
      "mesh": 22
    },
    {
      "name": "Mesh_23",
      "mesh": 23
    },
    {
      "name": "Mesh_24",
      "mesh": 24
    },
    {
      "name": "Mesh_25",
      "mesh": 25
    },
    {
      "name": "Mesh_26",
      "mesh": 26
    },
    {
      "name": "Mesh_27",
      "mesh": 27
    },
    {
      "name": "Mesh_28",
      "mesh": 28
    },
    {
      "name": "Mesh_29",
      "mesh": 29
    }
  ],
  "meshes": [
    {
      "name": "Mesh_0",
      "primitives": [
        {
          "attributes": {
            "POSITION": 0,
            "NORMAL": 1,
            "TEXCOORD_0": 2,
            "TANGENT": 3
          },
          "indices": 4,
          "material": 0
        }
      ]
    },
    {
      "name": "Mesh_1",
      "primitives": [
        {
          "attributes": {
            "POSITION": 5,
            "NORMAL": 6,
            "TEXCOORD_0": 7,
            "TANGENT": 8
          },
          "indices": 9,
          "material": 0
        }
      ]
    },
    {
      "name": "Mesh_2",
      "primitives": [
        {
          "attributes": {
            "POSITION": 10,
            "NORMAL": 11,
            "TEXCOORD_0": 12,
            "TANGENT": 13
          },
          "indices": 14,
          "material": 0
        }
      ]
    },
    {
      "name": "Mesh_3",
      "primitives": [
        {
          "attributes": {
            "POSITION": 15,
            "NORMAL": 16,
            "TEXCOORD_0": 17,
            "TANGENT": 18
          },
          "indices": 19,
          "material": 0
        }
      ]
    },
    {
      "name": "Mesh_4",
      "primitives": [
        {
          "attributes": {
            "POSITION": 20,
            "NORMAL": 21,
            "TEXCOORD_0": 22,
            "TANGENT": 23
          },
          "indices": 24,
          "material": 0
        }
      ]
    },
    {
      "name": "Mesh_5",
      "primitives": [
        {
          "attributes": {
            "POSITION": 25,
            "NORMAL": 26,
            "TEXCOORD_0": 27,
            "TANGENT": 28
          },
          "indices": 29,
          "material": 0
        }
      ]
    },
    {
      "name": "Mesh_6",
      "primitives": [
        {
          "attributes": {
            "POSITION": 30,
            "NORMAL": 31,
            "TEXCOORD_0": 32,
            "TANGENT": 33
          },
          "indices": 34,
          "material": 0
        }
      ]
    },
    {
      "name": "Mesh_7",
      "primitives": [
        {
          "attributes": {
            "POSITION": 35,
            "NORMAL": 36,
            "TEXCOORD_0": 37,
            "TANGENT": 38
          },
          "indices": 39,
          "material": 0
        }
      ]
    },
    {
      "name": "Mesh_8",
      "primitives": [
        {
          "attributes": {
            "POSITION": 40,
            "NORMAL": 41,
            "TEXCOORD_0": 42,
            "TANGENT": 43
          },
          "indices": 44,
          "material": 0
        }
      ]
    },
    {
      "name": "Mesh_9",
      "primitives": [
        {
          "attributes": {
            "POSITION": 45,
            "NORMAL": 46,
            "TEXCOORD_0": 47,
            "TANGENT": 48
          },
          "indices": 49,
          "material": 0
        }
      ]
    },
    {
      "name": "Mesh_10",
      "primitives": [
        {
          "attributes": {
            "POSITION": 50,
            "NORMAL": 51,
            "TEXCOORD_0": 52,
            "TANGENT": 53
          },
          "indices": 54,
          "material": 0
        }
      ]
    },
    {
      "name": "Mesh_11",
      "primitives": [
        {
          "attributes": {
            "POSITION": 55,
            "NORMAL": 56,
            "TEXCOORD_0": 57,
            "TANGENT": 58
          },
          "indices": 59,
          "material": 0
        }
      ]
    },
    {
      "name": "Mesh_12",
      "primitives": [
        {
          "attributes": {
            "POSITION": 60,
            "NORMAL": 61,
            "TEXCOORD_0": 62,
            "TANGENT": 63
          },
          "indices": 64,
          "material": 0
        }
      ]
    },
    {
      "name": "Mesh_13",
      "primitives": [
        {
          "attributes": {
            "POSITION": 65,
            "NORMAL": 66,
            "TEXCOORD_0": 67,
            "TANGENT": 68
          },
          "indices": 69,
          "material": 0
        }
      ]
    },
    {
      "name": "Mesh_14",
      "primitives": [
        {
          "attributes": {
            "POSITION": 70,
            "NORMAL": 71,
            "TEXCOORD_0": 72,
            "TANGENT": 73
          },
          "indices": 74,
          "material": 0
        }
      ]
    },
    {
      "name": "Mesh_15",
      "primitives": [
        {
          "attributes": {
            "POSITION": 75,
            "NORMAL": 76,
            "TEXCOORD_0": 77,
            "TANGENT": 78
          },
          "indices": 79,
          "material": 0
        }
      ]
    },
    {
      "name": "Mesh_16",
      "primitives": [
        {
          "attributes": {
            "POSITION": 80,
            "NORMAL": 81,
            "TEXCOORD_0": 82,
            "TANGENT": 83
          },
          "indices": 84,
          "material": 0
        }
      ]
    },
    {
      "name": "Mesh_17",
      "primitives": [
        {
          "attributes": {
            "POSITION": 85,
            "NORMAL": 86,
            "TEXCOORD_0": 87,
            "TANGENT": 88
          },
          "indices": 89,
          "material": 0
        }
      ]
    },
    {
      "name": "Mesh_18",
      "primitives": [
        {
          "attributes": {
            "POSITION": 90,
            "NORMAL": 91,
            "TEXCOORD_0": 92,
            "TANGENT": 93
          },
          "indices": 94,
          "material": 0
        }
      ]
    },
    {
      "name": "Mesh_19",
      "primitives": [
        {
          "attributes": {
            "POSITION": 95,
            "NORMAL": 96,
            "TEXCOORD_0": 97,
            "TANGENT": 98
          },
          "indices": 99,
          "material": 0
        }
      ]
    },
    {
      "name": "Mesh_20",
      "primitives": [
        {
          "attributes": {
            "POSITION": 100,
            "NORMAL": 101,
            "TEXCOORD_0": 102,
            "TANGENT": 103
          },
          "indices": 104,
          "material": 0
        }
      ]
    },
    {
      "name": "Mesh_21",
      "primitives": [
        {
          "attributes": {
            "POSITION": 105,
            "NORMAL": 106,
            "TEXCOORD_0": 107,
            "TANGENT": 108
          },
          "indices": 109,
          "material": 0
        }
      ]
    },
    {
      "name": "Mesh_22",
      "primitives": [
        {
          "attributes": {
            "POSITION": 110,
            "NORMAL": 111,
            "TEXCOORD_0": 112,
            "TANGENT": 113
          },
          "indices": 114,
          "material": 0
        }
      ]
    },
    {
      "name": "Mesh_23",
      "primitives": [
        {
          "attributes": {
            "POSITION": 115,
            "NORMAL": 116,
            "TEXCOORD_0": 117,
            "TANGENT": 118
          },
          "indices": 119,
          "material": 0
        }
      ]
    },
    {
      "name": "Mesh_24",
      "primitives": [
        {
          "attributes": {
            "POSITION": 120,
            "NORMAL": 121,
            "TEXCOORD_0": 122,
            "TANGENT": 123
          },
          "indices": 124,
          "material": 1
        }
      ]
    },
    {
      "name": "Mesh_25",
      "primitives": [
        {
          "attributes": {
            "POSITION": 125,
            "NORMAL": 126,
            "TEXCOORD_0": 127,
            "TANGENT": 128
          },
          "indices": 129,
          "material": 1
        }
      ]
    },
    {
      "name": "Mesh_26",
      "primitives": [
        {
          "attributes": {
            "POSITION": 130,
            "NORMAL": 131,
            "TEXCOORD_0": 132,
            "TANGENT": 133
          },
          "indices": 134,
          "material": 0
        }
      ]
    },
    {
      "name": "Mesh_27",
      "primitives": [
        {
          "attributes": {
            "POSITION": 135,
            "NORMAL": 136,
            "TEXCOORD_0": 137,
            "TANGENT": 138
          },
          "indices": 139,
          "material": 1
        }
      ]
    },
    {
      "name": "Mesh_28",
      "primitives": [
        {
          "attributes": {
            "POSITION": 140,
            "NORMAL": 141,
            "TEXCOORD_0": 142,
            "TANGENT": 143
          },
          "indices": 144,
          "material": 1
        }
      ]
    },
    {
      "name": "Mesh_29",
      "primitives": [
        {
          "attributes": {
            "POSITION": 145,
            "NORMAL": 146,
            "TEXCOORD_0": 147,
            "TANGENT": 148
          },
          "indices": 149,
          "material": 2
        }
      ]
    }
  ],
  "accessors": [
    {
      "bufferView": 0,
      "componentType": 5126,
      "count": 4,
      "type": "VEC3",
      "min": [
        0.81279999,
        0.0253999997,
        -5.68959999
      ],
      "max": [
        12.1919994,
        0.0253999997,
        -2.43840003
      ]
    },
    {
      "bufferView": 1,
      "componentType": 5126,
      "count": 4,
      "type": "VEC3"
    },
    {
      "bufferView": 2,
      "componentType": 5126,
      "count": 4,
      "type": "VEC2"
    },
    {
      "bufferView": 3,
      "componentType": 5126,
      "count": 4,
      "type": "VEC4"
    },
    {
      "bufferView": 4,
      "componentType": 5123,
      "count": 6,
      "type": "SCALAR"
    },
    {
      "bufferView": 5,
      "componentType": 5126,
      "count": 5,
      "type": "VEC3",
      "min": [
        8.94079971,
        0,
        -13.8176003
      ],
      "max": [
        15.4432001,
        0.0253999997,
        -0.81279999
      ]
    },
    {
      "bufferView": 6,
      "componentType": 5126,
      "count": 5,
      "type": "VEC3"
    },
    {
      "bufferView": 7,
      "componentType": 5126,
      "count": 5,
      "type": "VEC2"
    },
    {
      "bufferView": 8,
      "componentType": 5126,
      "count": 5,
      "type": "VEC4"
    },
    {
      "bufferView": 9,
      "componentType": 5123,
      "count": 9,
      "type": "SCALAR"
    },
    {
      "bufferView": 10,
      "componentType": 5126,
      "count": 4,
      "type": "VEC3",
      "min": [
        10.5663996,
        0,
        -23.5711994
      ],
      "max": [
        15.4432001,
        0.0253999997,
        -8.94079971
      ]
    },
    {
      "bufferView": 11,
      "componentType": 5126,
      "count": 4,
      "type": "VEC3"
    },
    {
      "bufferView": 12,
      "componentType": 5126,
      "count": 4,
      "type": "VEC2"
    },
    {
      "bufferView": 13,
      "componentType": 5126,
      "count": 4,
      "type": "VEC4"
    },
    {
      "bufferView": 14,
      "componentType": 5123,
      "count": 6,
      "type": "SCALAR"
    },
    {
      "bufferView": 15,
      "componentType": 5126,
      "count": 4,
      "type": "VEC3",
      "min": [
        0.81279999,
        0,
        -13.8176003
      ],
      "max": [
        5.68959999,
        0.0253999997,
        -2.43840003
      ]
    },
    {
      "bufferView": 16,
      "componentType": 5126,
      "count": 4,
      "type": "VEC3"
    },
    {
      "bufferView": 17,
      "componentType": 5126,
      "count": 4,
      "type": "VEC2"
    },
    {
      "bufferView": 18,
      "componentType": 5126,
      "count": 4,
      "type": "VEC4"
    },
    {
      "bufferView": 19,
      "componentType": 5123,
      "count": 6,
      "type": "SCALAR"
    },
    {
      "bufferView": 20,
      "componentType": 5126,
      "count": 4,
      "type": "VEC3",
      "min": [
        0.81279999,
        0,
        -23.5711994
      ],
      "max": [
        4.06400013,
        0.0253999997,
        -8.94079971
      ]
    },
    {
      "bufferView": 21,
      "componentType": 5126,
      "count": 4,
      "type": "VEC3"
    },
    {
      "bufferView": 22,
      "componentType": 5126,
      "count": 4,
      "type": "VEC2"
    },
    {
      "bufferView": 23,
      "componentType": 5126,
      "count": 4,
      "type": "VEC4"
    },
    {
      "bufferView": 24,
      "componentType": 5123,
      "count": 6,
      "type": "SCALAR"
    },
    {
      "bufferView": 25,
      "componentType": 5126,
      "count": 13,
      "type": "VEC3",
      "min": [
        0.81279999,
        0.0253999997,
        -26.0095997
      ],
      "max": [
        15.4432001,
        0.0254000016,
        -17.0688
      ]
    },
    {
      "bufferView": 26,
      "componentType": 5126,
      "count": 13,
      "type": "VEC3"
    },
    {
      "bufferView": 27,
      "componentType": 5126,
      "count": 13,
      "type": "VEC2"
    },
    {
      "bufferView": 28,
      "componentType": 5126,
      "count": 13,
      "type": "VEC4"
    },
    {
      "bufferView": 29,
      "componentType": 5123,
      "count": 33,
      "type": "SCALAR"
    },
    {
      "bufferView": 30,
      "componentType": 5126,
      "count": 18,
      "type": "VEC3",
      "min": [
        4.06400013,
        0.0253999997,
        -8.94079971
      ],
      "max": [
        10.5663996,
        0.0254000016,
        -5.68959999
      ]
    },
    {
      "bufferView": 31,
      "componentType": 5126,
      "count": 18,
      "type": "VEC3"
    },
    {
      "bufferView": 32,
      "componentType": 5126,
      "count": 18,
      "type": "VEC2"
    },
    {
      "bufferView": 33,
      "componentType": 5126,
      "count": 18,
      "type": "VEC4"
    },
    {
      "bufferView": 34,
      "componentType": 5123,
      "count": 48,
      "type": "SCALAR"
    },
    {
      "bufferView": 35,
      "componentType": 5126,
      "count": 13,
      "type": "VEC3",
      "min": [
        4.06400013,
        0.0253999997,
        -19.1007996
      ],
      "max": [
        10.5663996,
        0.0254000016,
        -8.94079971
      ]
    },
    {
      "bufferView": 36,
      "componentType": 5126,
      "count": 13,
      "type": "VEC3"
    },
    {
      "bufferView": 37,
      "componentType": 5126,
      "count": 13,
      "type": "VEC2"
    },
    {
      "bufferView": 38,
      "componentType": 5126,
      "count": 13,
      "type": "VEC4"
    },
    {
      "bufferView": 39,
      "componentType": 5123,
      "count": 33,
      "type": "SCALAR"
    },
    {
      "bufferView": 40,
      "componentType": 5126,
      "count": 88,
      "type": "VEC3",
      "min": [
        0.406399995,
        0.0253999997,
        -3.20039988
      ],
      "max": [
        12.9539995,
        1.54939997,
        -2.03200006
      ]
    },
    {
      "bufferView": 41,
      "componentType": 5126,
      "count": 88,
      "type": "VEC3"
    },
    {
      "bufferView": 42,
      "componentType": 5126,
      "count": 88,
      "type": "VEC2"
    },
    {
      "bufferView": 43,
      "componentType": 5126,
      "count": 88,
      "type": "VEC4"
    },
    {
      "bufferView": 44,
      "componentType": 5123,
      "count": 420,
      "type": "SCALAR"
    },
    {
      "bufferView": 45,
      "componentType": 5126,
      "count": 33,
      "type": "VEC3",
      "min": [
        11.7855997,
        0.0253999997,
        -3.20039988
      ],
      "max": [
        12.9539995,
        1.54939997,
        -0.406399935
      ]
    },
    {
      "bufferView": 46,
      "componentType": 5126,
      "count": 33,
      "type": "VEC3"
    },
    {
      "bufferView": 47,
      "componentType": 5126,
      "count": 33,
      "type": "VEC2"
    },
    {
      "bufferView": 48,
      "componentType": 5126,
      "count": 33,
      "type": "VEC4"
    },
    {
      "bufferView": 49,
      "componentType": 5123,
      "count": 120,
      "type": "SCALAR"
    },
    {
      "bufferView": 50,
      "componentType": 5126,
      "count": 44,
      "type": "VEC3",
      "min": [
        11.7855997,
        0.0253999997,
        -1.57480001
      ],
      "max": [
        15.8495998,
        1.54939997,
        -0.406399995
      ]
    },
    {
      "bufferView": 51,
      "componentType": 5126,
      "count": 44,
      "type": "VEC3"
    },
    {
      "bufferView": 52,
      "componentType": 5126,
      "count": 44,
      "type": "VEC2"
    },
    {
      "bufferView": 53,
      "componentType": 5126,
      "count": 44,
      "type": "VEC4"
    },
    {
      "bufferView": 54,
      "componentType": 5123,
      "count": 180,
      "type": "SCALAR"
    },
    {
      "bufferView": 55,
      "componentType": 5126,
      "count": 165,
      "type": "VEC3",
      "min": [
        14.6812,
        0.0253999997,
        -23.7886982
      ],
      "max": [
        15.8495998,
        1.54939997,
        -0.406399995
      ]
    },
    {
      "bufferView": 56,
      "componentType": 5126,
      "count": 165,
      "type": "VEC3"
    },
    {
      "bufferView": 57,
      "componentType": 5126,
      "count": 165,
      "type": "VEC2"
    },
    {
      "bufferView": 58,
      "componentType": 5126,
      "count": 165,
      "type": "VEC4"
    },
    {
      "bufferView": 59,
      "componentType": 5123,
      "count": 840,
      "type": "SCALAR"
    },
    {
      "bufferView": 60,
      "componentType": 5126,
      "count": 132,
      "type": "VEC3",
      "min": [
        0.406399995,
        0.0253999978,
        -26.3951015
      ],
      "max": [
        15.8495998,
        1.54939997,
        -23.1633892
      ]
    },
    {
      "bufferView": 61,
      "componentType": 5126,
      "count": 132,
      "type": "VEC3"
    },
    {
      "bufferView": 62,
      "componentType": 5126,
      "count": 132,
      "type": "VEC2"
    },
    {
      "bufferView": 63,
      "componentType": 5126,
      "count": 132,
      "type": "VEC4"
    },
    {
      "bufferView": 64,
      "componentType": 5123,
      "count": 660,
      "type": "SCALAR"
    },
    {
      "bufferView": 65,
      "componentType": 5126,
      "count": 154,
      "type": "VEC3",
      "min": [
        0.406399995,
        0.0253999997,
        -23.7886982
      ],
      "max": [
        1.57480001,
        1.54939997,
        -2.0320003
      ]
    },
    {
      "bufferView": 66,
      "componentType": 5126,
      "count": 154,
      "type": "VEC3"
    },
    {
      "bufferView": 67,
      "componentType": 5126,
      "count": 154,
      "type": "VEC2"
    },
    {
      "bufferView": 68,
      "componentType": 5126,
      "count": 154,
      "type": "VEC4"
    },
    {
      "bufferView": 69,
      "componentType": 5123,
      "count": 780,
      "type": "SCALAR"
    },
    {
      "bufferView": 70,
      "componentType": 5126,
      "count": 33,
      "type": "VEC3",
      "min": [
        8.12800026,
        0.0253999997,
        -6.45160007
      ],
      "max": [
        9.34719944,
        1.54939997,
        -5.28319979
      ]
    },
    {
      "bufferView": 71,
      "componentType": 5126,
      "count": 33,
      "type": "VEC3"
    },
    {
      "bufferView": 72,
      "componentType": 5126,
      "count": 33,
      "type": "VEC2"
    },
    {
      "bufferView": 73,
      "componentType": 5126,
      "count": 33,
      "type": "VEC4"
    },
    {
      "bufferView": 74,
      "componentType": 5123,
      "count": 87,
      "type": "SCALAR"
    },
    {
      "bufferView": 75,
      "componentType": 5126,
      "count": 44,
      "type": "VEC3",
      "min": [
        8.17879963,
        0.0253999978,
        -8.94079971
      ],
      "max": [
        10.9727993,
        1.54939997,
        -5.28319979
      ]
    },
    {
      "bufferView": 76,
      "componentType": 5126,
      "count": 44,
      "type": "VEC3"
    },
    {
      "bufferView": 77,
      "componentType": 5126,
      "count": 44,
      "type": "VEC2"
    },
    {
      "bufferView": 78,
      "componentType": 5126,
      "count": 44,
      "type": "VEC4"
    },
    {
      "bufferView": 79,
      "componentType": 5123,
      "count": 180,
      "type": "SCALAR"
    },
    {
      "bufferView": 80,
      "componentType": 5126,
      "count": 66,
      "type": "VEC3",
      "min": [
        9.80439949,
        0.0253999997,
        -17.2371368
      ],
      "max": [
        10.9727993,
        1.54939997,
        -8.7724638
      ]
    },
    {
      "bufferView": 81,
      "componentType": 5126,
      "count": 66,
      "type": "VEC3"
    },
    {
      "bufferView": 82,
      "componentType": 5126,
      "count": 66,
      "type": "VEC2"
    },
    {
      "bufferView": 83,
      "componentType": 5126,
      "count": 66,
      "type": "VEC4"
    },
    {
      "bufferView": 84,
      "componentType": 5123,
      "count": 300,
      "type": "SCALAR"
    },
    {
      "bufferView": 85,
      "componentType": 5126,
      "count": 33,
      "type": "VEC3",
      "min": [
        8.48942184,
        0.0253999997,
        -19.0284004
      ],
      "max": [
        10.9727993,
        1.54939997,
        -16.75317
      ]
    },
    {
      "bufferView": 86,
      "componentType": 5126,
      "count": 33,
      "type": "VEC3"
    },
    {
      "bufferView": 87,
      "componentType": 5126,
      "count": 33,
      "type": "VEC2"
    },
    {
      "bufferView": 88,
      "componentType": 5126,
      "count": 33,
      "type": "VEC4"
    },
    {
      "bufferView": 89,
      "componentType": 5123,
      "count": 120,
      "type": "SCALAR"
    },
    {
      "bufferView": 90,
      "componentType": 5126,
      "count": 44,
      "type": "VEC3",
      "min": [
        5.44886541,
        0.0253999978,
        -19.4565144
      ],
      "max": [
        9.18153477,
        1.54939997,
        -18.0681458
      ]
    },
    {
      "bufferView": 91,
      "componentType": 5126,
      "count": 44,
      "type": "VEC3"
    },
    {
      "bufferView": 92,
      "componentType": 5126,
      "count": 44,
      "type": "VEC2"
    },
    {
      "bufferView": 93,
      "componentType": 5126,
      "count": 44,
      "type": "VEC4"
    },
    {
      "bufferView": 94,
      "componentType": 5123,
      "count": 180,
      "type": "SCALAR"
    },
    {
      "bufferView": 95,
      "componentType": 5126,
      "count": 33,
      "type": "VEC3",
      "min": [
        3.65760016,
        0.0253999997,
        -19.0284004
      ],
      "max": [
        6.14097786,
        1.54939997,
        -16.75317
      ]
    },
    {
      "bufferView": 96,
      "componentType": 5126,
      "count": 33,
      "type": "VEC3"
    },
    {
      "bufferView": 97,
      "componentType": 5126,
      "count": 33,
      "type": "VEC2"
    },
    {
      "bufferView": 98,
      "componentType": 5126,
      "count": 33,
      "type": "VEC4"
    },
    {
      "bufferView": 99,
      "componentType": 5123,
      "count": 120,
      "type": "SCALAR"
    },
    {
      "bufferView": 100,
      "componentType": 5126,
      "count": 66,
      "type": "VEC3",
      "min": [
        3.65760016,
        0.0253999997,
        -17.2371368
      ],
      "max": [
        4.82600021,
        1.54939997,
        -8.7724638
      ]
    },
    {
      "bufferView": 101,
      "componentType": 5126,
      "count": 66,
      "type": "VEC3"
    },
    {
      "bufferView": 102,
      "componentType": 5126,
      "count": 66,
      "type": "VEC2"
    },
    {
      "bufferView": 103,
      "componentType": 5126,
      "count": 66,
      "type": "VEC4"
    },
    {
      "bufferView": 104,
      "componentType": 5123,
      "count": 300,
      "type": "SCALAR"
    },
    {
      "bufferView": 105,
      "componentType": 5126,
      "count": 44,
      "type": "VEC3",
      "min": [
        3.65760016,
        0.0253999978,
        -8.94079971
      ],
      "max": [
        6.45160007,
        1.54939997,
        -5.28319979
      ]
    },
    {
      "bufferView": 106,
      "componentType": 5126,
      "count": 44,
      "type": "VEC3"
    },
    {
      "bufferView": 107,
      "componentType": 5126,
      "count": 44,
      "type": "VEC2"
    },
    {
      "bufferView": 108,
      "componentType": 5126,
      "count": 44,
      "type": "VEC4"
    },
    {
      "bufferView": 109,
      "componentType": 5123,
      "count": 180,
      "type": "SCALAR"
    },
    {
      "bufferView": 110,
      "componentType": 5126,
      "count": 33,
      "type": "VEC3",
      "min": [
        5.28319979,
        0.0253999997,
        -6.45160007
      ],
      "max": [
        6.50239992,
        1.54939997,
        -5.28319979
      ]
    },
    {
      "bufferView": 111,
      "componentType": 5126,
      "count": 33,
      "type": "VEC3"
    },
    {
      "bufferView": 112,
      "componentType": 5126,
      "count": 33,
      "type": "VEC2"
    },
    {
      "bufferView": 113,
      "componentType": 5126,
      "count": 33,
      "type": "VEC4"
    },
    {
      "bufferView": 114,
      "componentType": 5123,
      "count": 87,
      "type": "SCALAR"
    },
    {
      "bufferView": 115,
      "componentType": 5126,
      "count": 28,
      "type": "VEC3",
      "min": [
        8.12800026,
        0.0253999997,
        -9.34719944
      ],
      "max": [
        10.5663996,
        1.54939997,
        -8.53439999
      ]
    },
    {
      "bufferView": 116,
      "componentType": 5126,
      "count": 28,
      "type": "VEC3"
    },
    {
      "bufferView": 117,
      "componentType": 5126,
      "count": 28,
      "type": "VEC2"
    },
    {
      "bufferView": 118,
      "componentType": 5126,
      "count": 28,
      "type": "VEC4"
    },
    {
      "bufferView": 119,
      "componentType": 5123,
      "count": 87,
      "type": "SCALAR"
    },
    {
      "bufferView": 120,
      "componentType": 5126,
      "count": 6,
      "type": "VEC3",
      "min": [
        8.12800026,
        0.0304799993,
        -9.75360012
      ],
      "max": [
        10.1599998,
        0.0330200009,
        -9.34719944
      ]
    },
    {
      "bufferView": 121,
      "componentType": 5126,
      "count": 6,
      "type": "VEC3"
    },
    {
      "bufferView": 122,
      "componentType": 5126,
      "count": 6,
      "type": "VEC2"
    },
    {
      "bufferView": 123,
      "componentType": 5126,
      "count": 6,
      "type": "VEC4"
    },
    {
      "bufferView": 124,
      "componentType": 5123,
      "count": 12,
      "type": "SCALAR"
    },
    {
      "bufferView": 125,
      "componentType": 5126,
      "count": 6,
      "type": "VEC3",
      "min": [
        8.12800026,
        0.0304799993,
        -8.53439999
      ],
      "max": [
        9.58526325,
        0.0330200009,
        -8.12799931
      ]
    },
    {
      "bufferView": 126,
      "componentType": 5126,
      "count": 6,
      "type": "VEC3"
    },
    {
      "bufferView": 127,
      "componentType": 5126,
      "count": 6,
      "type": "VEC2"
    },
    {
      "bufferView": 128,
      "componentType": 5126,
      "count": 6,
      "type": "VEC4"
    },
    {
      "bufferView": 129,
      "componentType": 5123,
      "count": 12,
      "type": "SCALAR"
    },
    {
      "bufferView": 130,
      "componentType": 5126,
      "count": 28,
      "type": "VEC3",
      "min": [
        4.06400013,
        0.0253999997,
        -9.34719944
      ],
      "max": [
        6.50239992,
        1.54939997,
        -8.53439999
      ]
    },
    {
      "bufferView": 131,
      "componentType": 5126,
      "count": 28,
      "type": "VEC3"
    },
    {
      "bufferView": 132,
      "componentType": 5126,
      "count": 28,
      "type": "VEC2"
    },
    {
      "bufferView": 133,
      "componentType": 5126,
      "count": 28,
      "type": "VEC4"
    },
    {
      "bufferView": 134,
      "componentType": 5123,
      "count": 87,
      "type": "SCALAR"
    },
    {
      "bufferView": 135,
      "componentType": 5126,
      "count": 6,
      "type": "VEC3",
      "min": [
        4.47040033,
        0.0304799993,
        -9.75360012
      ],
      "max": [
        6.50239992,
        0.0330200009,
        -9.34719944
      ]
    },
    {
      "bufferView": 136,
      "componentType": 5126,
      "count": 6,
      "type": "VEC3"
    },
    {
      "bufferView": 137,
      "componentType": 5126,
      "count": 6,
      "type": "VEC2"
    },
    {
      "bufferView": 138,
      "componentType": 5126,
      "count": 6,
      "type": "VEC4"
    },
    {
      "bufferView": 139,
      "componentType": 5123,
      "count": 12,
      "type": "SCALAR"
    },
    {
      "bufferView": 140,
      "componentType": 5126,
      "count": 6,
      "type": "VEC3",
      "min": [
        5.04513645,
        0.0304799993,
        -8.53439999
      ],
      "max": [
        6.50239992,
        0.0330200009,
        -8.12799931
      ]
    },
    {
      "bufferView": 141,
      "componentType": 5126,
      "count": 6,
      "type": "VEC3"
    },
    {
      "bufferView": 142,
      "componentType": 5126,
      "count": 6,
      "type": "VEC2"
    },
    {
      "bufferView": 143,
      "componentType": 5126,
      "count": 6,
      "type": "VEC4"
    },
    {
      "bufferView": 144,
      "componentType": 5123,
      "count": 12,
      "type": "SCALAR"
    },
    {
      "bufferView": 145,
      "componentType": 5126,
      "count": 4,
      "type": "VEC3",
      "min": [
        13.0047998,
        0.0253999997,
        -3.25119996
      ],
      "max": [
        14.6303997,
        0.0253999997,
        -1.62559998
      ]
    },
    {
      "bufferView": 146,
      "componentType": 5126,
      "count": 4,
      "type": "VEC3"
    },
    {
      "bufferView": 147,
      "componentType": 5126,
      "count": 4,
      "type": "VEC2"
    },
    {
      "bufferView": 148,
      "componentType": 5126,
      "count": 4,
      "type": "VEC4"
    },
    {
      "bufferView": 149,
      "componentType": 5123,
      "count": 6,
      "type": "SCALAR"
    }
  ],
  "bufferViews": [
    {
      "buffer": 0,
      "byteOffset": 0,
      "byteLength": 48,
      "target": 34962
    },
    {
      "buffer": 0,
      "byteOffset": 48,
      "byteLength": 48,
      "target": 34962
    },
    {
      "buffer": 0,
      "byteOffset": 96,
      "byteLength": 32,
      "target": 34962
    },
    {
      "buffer": 0,
      "byteOffset": 128,
      "byteLength": 64,
      "target": 34962
    },
    {
      "buffer": 0,
      "byteOffset": 192,
      "byteLength": 12,
      "target": 34963
    },
    {
      "buffer": 0,
      "byteOffset": 204,
      "byteLength": 60,
      "target": 34962
    },
    {
      "buffer": 0,
      "byteOffset": 264,
      "byteLength": 60,
      "target": 34962
    },
    {
      "buffer": 0,
      "byteOffset": 324,
      "byteLength": 40,
      "target": 34962
    },
    {
      "buffer": 0,
      "byteOffset": 364,
      "byteLength": 80,
      "target": 34962
    },
    {
      "buffer": 0,
      "byteOffset": 444,
      "byteLength": 18,
      "target": 34963
    },
    {
      "buffer": 0,
      "byteOffset": 464,
      "byteLength": 48,
      "target": 34962
    },
    {
      "buffer": 0,
      "byteOffset": 512,
      "byteLength": 48,
      "target": 34962
    },
    {
      "buffer": 0,
      "byteOffset": 560,
      "byteLength": 32,
      "target": 34962
    },
    {
      "buffer": 0,
      "byteOffset": 592,
      "byteLength": 64,
      "target": 34962
    },
    {
      "buffer": 0,
      "byteOffset": 656,
      "byteLength": 12,
      "target": 34963
    },
    {
      "buffer": 0,
      "byteOffset": 668,
      "byteLength": 48,
      "target": 34962
    },
    {
      "buffer": 0,
      "byteOffset": 716,
      "byteLength": 48,
      "target": 34962
    },
    {
      "buffer": 0,
      "byteOffset": 764,
      "byteLength": 32,
      "target": 34962
    },
    {
      "buffer": 0,
      "byteOffset": 796,
      "byteLength": 64,
      "target": 34962
    },
    {
      "buffer": 0,
      "byteOffset": 860,
      "byteLength": 12,
      "target": 34963
    },
    {
      "buffer": 0,
      "byteOffset": 872,
      "byteLength": 48,
      "target": 34962
    },
    {
      "buffer": 0,
      "byteOffset": 920,
      "byteLength": 48,
      "target": 34962
    },
    {
      "buffer": 0,
      "byteOffset": 968,
      "byteLength": 32,
      "target": 34962
    },
    {
      "buffer": 0,
      "byteOffset": 1000,
      "byteLength": 64,
      "target": 34962
    },
    {
      "buffer": 0,
      "byteOffset": 1064,
      "byteLength": 12,
      "target": 34963
    },
    {
      "buffer": 0,
      "byteOffset": 1076,
      "byteLength": 156,
      "target": 34962
    },
    {
      "buffer": 0,
      "byteOffset": 1232,
      "byteLength": 156,
      "target": 34962
    },
    {
      "buffer": 0,
      "byteOffset": 1388,
      "byteLength": 104,
      "target": 34962
    },
    {
      "buffer": 0,
      "byteOffset": 1492,
      "byteLength": 208,
      "target": 34962
    },
    {
      "buffer": 0,
      "byteOffset": 1700,
      "byteLength": 66,
      "target": 34963
    },
    {
      "buffer": 0,
      "byteOffset": 1768,
      "byteLength": 216,
      "target": 34962
    },
    {
      "buffer": 0,
      "byteOffset": 1984,
      "byteLength": 216,
      "target": 34962
    },
    {
      "buffer": 0,
      "byteOffset": 2200,
      "byteLength": 144,
      "target": 34962
    },
    {
      "buffer": 0,
      "byteOffset": 2344,
      "byteLength": 288,
      "target": 34962
    },
    {
      "buffer": 0,
      "byteOffset": 2632,
      "byteLength": 96,
      "target": 34963
    },
    {
      "buffer": 0,
      "byteOffset": 2728,
      "byteLength": 156,
      "target": 34962
    },
    {
      "buffer": 0,
      "byteOffset": 2884,
      "byteLength": 156,
      "target": 34962
    },
    {
      "buffer": 0,
      "byteOffset": 3040,
      "byteLength": 104,
      "target": 34962
    },
    {
      "buffer": 0,
      "byteOffset": 3144,
      "byteLength": 208,
      "target": 34962
    },
    {
      "buffer": 0,
      "byteOffset": 3352,
      "byteLength": 66,
      "target": 34963
    },
    {
      "buffer": 0,
      "byteOffset": 3420,
      "byteLength": 1056,
      "target": 34962
    },
    {
      "buffer": 0,
      "byteOffset": 4476,
      "byteLength": 1056,
      "target": 34962
    },
    {
      "buffer": 0,
      "byteOffset": 5532,
      "byteLength": 704,
      "target": 34962
    },
    {
      "buffer": 0,
      "byteOffset": 6236,
      "byteLength": 1408,
      "target": 34962
    },
    {
      "buffer": 0,
      "byteOffset": 7644,
      "byteLength": 840,
      "target": 34963
    },
    {
      "buffer": 0,
      "byteOffset": 8484,
      "byteLength": 396,
      "target": 34962
    },
    {
      "buffer": 0,
      "byteOffset": 8880,
      "byteLength": 396,
      "target": 34962
    },
    {
      "buffer": 0,
      "byteOffset": 9276,
      "byteLength": 264,
      "target": 34962
    },
    {
      "buffer": 0,
      "byteOffset": 9540,
      "byteLength": 528,
      "target": 34962
    },
    {
      "buffer": 0,
      "byteOffset": 10068,
      "byteLength": 240,
      "target": 34963
    },
    {
      "buffer": 0,
      "byteOffset": 10308,
      "byteLength": 528,
      "target": 34962
    },
    {
      "buffer": 0,
      "byteOffset": 10836,
      "byteLength": 528,
      "target": 34962
    },
    {
      "buffer": 0,
      "byteOffset": 11364,
      "byteLength": 352,
      "target": 34962
    },
    {
      "buffer": 0,
      "byteOffset": 11716,
      "byteLength": 704,
      "target": 34962
    },
    {
      "buffer": 0,
      "byteOffset": 12420,
      "byteLength": 360,
      "target": 34963
    },
    {
      "buffer": 0,
      "byteOffset": 12780,
      "byteLength": 1980,
      "target": 34962
    },
    {
      "buffer": 0,
      "byteOffset": 14760,
      "byteLength": 1980,
      "target": 34962
    },
    {
      "buffer": 0,
      "byteOffset": 16740,
      "byteLength": 1320,
      "target": 34962
    },
    {
      "buffer": 0,
      "byteOffset": 18060,
      "byteLength": 2640,
      "target": 34962
    },
    {
      "buffer": 0,
      "byteOffset": 20700,
      "byteLength": 1680,
      "target": 34963
    },
    {
      "buffer": 0,
      "byteOffset": 22380,
      "byteLength": 1584,
      "target": 34962
    },
    {
      "buffer": 0,
      "byteOffset": 23964,
      "byteLength": 1584,
      "target": 34962
    },
    {
      "buffer": 0,
      "byteOffset": 25548,
      "byteLength": 1056,
      "target": 34962
    },
    {
      "buffer": 0,
      "byteOffset": 26604,
      "byteLength": 2112,
      "target": 34962
    },
    {
      "buffer": 0,
      "byteOffset": 28716,
      "byteLength": 1320,
      "target": 34963
    },
    {
      "buffer": 0,
      "byteOffset": 30036,
      "byteLength": 1848,
      "target": 34962
    },
    {
      "buffer": 0,
      "byteOffset": 31884,
      "byteLength": 1848,
      "target": 34962
    },
    {
      "buffer": 0,
      "byteOffset": 33732,
      "byteLength": 1232,
      "target": 34962
    },
    {
      "buffer": 0,
      "byteOffset": 34964,
      "byteLength": 2464,
      "target": 34962
    },
    {
      "buffer": 0,
      "byteOffset": 37428,
      "byteLength": 1560,
      "target": 34963
    },
    {
      "buffer": 0,
      "byteOffset": 38988,
      "byteLength": 396,
      "target": 34962
    },
    {
      "buffer": 0,
      "byteOffset": 39384,
      "byteLength": 396,
      "target": 34962
    },
    {
      "buffer": 0,
      "byteOffset": 39780,
      "byteLength": 264,
      "target": 34962
    },
    {
      "buffer": 0,
      "byteOffset": 40044,
      "byteLength": 528,
      "target": 34962
    },
    {
      "buffer": 0,
      "byteOffset": 40572,
      "byteLength": 174,
      "target": 34963
    },
    {
      "buffer": 0,
      "byteOffset": 40748,
      "byteLength": 528,
      "target": 34962
    },
    {
      "buffer": 0,
      "byteOffset": 41276,
      "byteLength": 528,
      "target": 34962
    },
    {
      "buffer": 0,
      "byteOffset": 41804,
      "byteLength": 352,
      "target": 34962
    },
    {
      "buffer": 0,
      "byteOffset": 42156,
      "byteLength": 704,
      "target": 34962
    },
    {
      "buffer": 0,
      "byteOffset": 42860,
      "byteLength": 360,
      "target": 34963
    },
    {
      "buffer": 0,
      "byteOffset": 43220,
      "byteLength": 792,
      "target": 34962
    },
    {
      "buffer": 0,
      "byteOffset": 44012,
      "byteLength": 792,
      "target": 34962
    },
    {
      "buffer": 0,
      "byteOffset": 44804,
      "byteLength": 528,
      "target": 34962
    },
    {
      "buffer": 0,
      "byteOffset": 45332,
      "byteLength": 1056,
      "target": 34962
    },
    {
      "buffer": 0,
      "byteOffset": 46388,
      "byteLength": 600,
      "target": 34963
    },
    {
      "buffer": 0,
      "byteOffset": 46988,
      "byteLength": 396,
      "target": 34962
    },
    {
      "buffer": 0,
      "byteOffset": 47384,
      "byteLength": 396,
      "target": 34962
    },
    {
      "buffer": 0,
      "byteOffset": 47780,
      "byteLength": 264,
      "target": 34962
    },
    {
      "buffer": 0,
      "byteOffset": 48044,
      "byteLength": 528,
      "target": 34962
    },
    {
      "buffer": 0,
      "byteOffset": 48572,
      "byteLength": 240,
      "target": 34963
    },
    {
      "buffer": 0,
      "byteOffset": 48812,
      "byteLength": 528,
      "target": 34962
    },
    {
      "buffer": 0,
      "byteOffset": 49340,
      "byteLength": 528,
      "target": 34962
    },
    {
      "buffer": 0,
      "byteOffset": 49868,
      "byteLength": 352,
      "target": 34962
    },
    {
      "buffer": 0,
      "byteOffset": 50220,
      "byteLength": 704,
      "target": 34962
    },
    {
      "buffer": 0,
      "byteOffset": 50924,
      "byteLength": 360,
      "target": 34963
    },
    {
      "buffer": 0,
      "byteOffset": 51284,
      "byteLength": 396,
      "target": 34962
    },
    {
      "buffer": 0,
      "byteOffset": 51680,
      "byteLength": 396,
      "target": 34962
    },
    {
      "buffer": 0,
      "byteOffset": 52076,
      "byteLength": 264,
      "target": 34962
    },
    {
      "buffer": 0,
      "byteOffset": 52340,
      "byteLength": 528,
      "target": 34962
    },
    {
      "buffer": 0,
      "byteOffset": 52868,
      "byteLength": 240,
      "target": 34963
    },
    {
      "buffer": 0,
      "byteOffset": 53108,
      "byteLength": 792,
      "target": 34962
    },
    {
      "buffer": 0,
      "byteOffset": 53900,
      "byteLength": 792,
      "target": 34962
    },
    {
      "buffer": 0,
      "byteOffset": 54692,
      "byteLength": 528,
      "target": 34962
    },
    {
      "buffer": 0,
      "byteOffset": 55220,
      "byteLength": 1056,
      "target": 34962
    },
    {
      "buffer": 0,
      "byteOffset": 56276,
      "byteLength": 600,
      "target": 34963
    },
    {
      "buffer": 0,
      "byteOffset": 56876,
      "byteLength": 528,
      "target": 34962
    },
    {
      "buffer": 0,
      "byteOffset": 57404,
      "byteLength": 528,
      "target": 34962
    },
    {
      "buffer": 0,
      "byteOffset": 57932,
      "byteLength": 352,
      "target": 34962
    },
    {
      "buffer": 0,
      "byteOffset": 58284,
      "byteLength": 704,
      "target": 34962
    },
    {
      "buffer": 0,
      "byteOffset": 58988,
      "byteLength": 360,
      "target": 34963
    },
    {
      "buffer": 0,
      "byteOffset": 59348,
      "byteLength": 396,
      "target": 34962
    },
    {
      "buffer": 0,
      "byteOffset": 59744,
      "byteLength": 396,
      "target": 34962
    },
    {
      "buffer": 0,
      "byteOffset": 60140,
      "byteLength": 264,
      "target": 34962
    },
    {
      "buffer": 0,
      "byteOffset": 60404,
      "byteLength": 528,
      "target": 34962
    },
    {
      "buffer": 0,
      "byteOffset": 60932,
      "byteLength": 174,
      "target": 34963
    },
    {
      "buffer": 0,
      "byteOffset": 61108,
      "byteLength": 336,
      "target": 34962
    },
    {
      "buffer": 0,
      "byteOffset": 61444,
      "byteLength": 336,
      "target": 34962
    },
    {
      "buffer": 0,
      "byteOffset": 61780,
      "byteLength": 224,
      "target": 34962
    },
    {
      "buffer": 0,
      "byteOffset": 62004,
      "byteLength": 448,
      "target": 34962
    },
    {
      "buffer": 0,
      "byteOffset": 62452,
      "byteLength": 174,
      "target": 34963
    },
    {
      "buffer": 0,
      "byteOffset": 62628,
      "byteLength": 72,
      "target": 34962
    },
    {
      "buffer": 0,
      "byteOffset": 62700,
      "byteLength": 72,
      "target": 34962
    },
    {
      "buffer": 0,
      "byteOffset": 62772,
      "byteLength": 48,
      "target": 34962
    },
    {
      "buffer": 0,
      "byteOffset": 62820,
      "byteLength": 96,
      "target": 34962
    },
    {
      "buffer": 0,
      "byteOffset": 62916,
      "byteLength": 24,
      "target": 34963
    },
    {
      "buffer": 0,
      "byteOffset": 62940,
      "byteLength": 72,
      "target": 34962
    },
    {
      "buffer": 0,
      "byteOffset": 63012,
      "byteLength": 72,
      "target": 34962
    },
    {
      "buffer": 0,
      "byteOffset": 63084,
      "byteLength": 48,
      "target": 34962
    },
    {
      "buffer": 0,
      "byteOffset": 63132,
      "byteLength": 96,
      "target": 34962
    },
    {
      "buffer": 0,
      "byteOffset": 63228,
      "byteLength": 24,
      "target": 34963
    },
    {
      "buffer": 0,
      "byteOffset": 63252,
      "byteLength": 336,
      "target": 34962
    },
    {
      "buffer": 0,
      "byteOffset": 63588,
      "byteLength": 336,
      "target": 34962
    },
    {
      "buffer": 0,
      "byteOffset": 63924,
      "byteLength": 224,
      "target": 34962
    },
    {
      "buffer": 0,
      "byteOffset": 64148,
      "byteLength": 448,
      "target": 34962
    },
    {
      "buffer": 0,
      "byteOffset": 64596,
      "byteLength": 174,
      "target": 34963
    },
    {
      "buffer": 0,
      "byteOffset": 64772,
      "byteLength": 72,
      "target": 34962
    },
    {
      "buffer": 0,
      "byteOffset": 64844,
      "byteLength": 72,
      "target": 34962
    },
    {
      "buffer": 0,
      "byteOffset": 64916,
      "byteLength": 48,
      "target": 34962
    },
    {
      "buffer": 0,
      "byteOffset": 64964,
      "byteLength": 96,
      "target": 34962
    },
    {
      "buffer": 0,
      "byteOffset": 65060,
      "byteLength": 24,
      "target": 34963
    },
    {
      "buffer": 0,
      "byteOffset": 65084,
      "byteLength": 72,
      "target": 34962
    },
    {
      "buffer": 0,
      "byteOffset": 65156,
      "byteLength": 72,
      "target": 34962
    },
    {
      "buffer": 0,
      "byteOffset": 65228,
      "byteLength": 48,
      "target": 34962
    },
    {
      "buffer": 0,
      "byteOffset": 65276,
      "byteLength": 96,
      "target": 34962
    },
    {
      "buffer": 0,
      "byteOffset": 65372,
      "byteLength": 24,
      "target": 34963
    },
    {
      "buffer": 0,
      "byteOffset": 65396,
      "byteLength": 48,
      "target": 34962
    },
    {
      "buffer": 0,
      "byteOffset": 65444,
      "byteLength": 48,
      "target": 34962
    },
    {
      "buffer": 0,
      "byteOffset": 65492,
      "byteLength": 32,
      "target": 34962
    },
    {
      "buffer": 0,
      "byteOffset": 65524,
      "byteLength": 64,
      "target": 34962
    },
    {
      "buffer": 0,
      "byteOffset": 65588,
      "byteLength": 12,
      "target": 34963
    }
  ],
  "materials": [
    {
      "name": "Material_0",
      "pbrMetallicRoughness": {
        "baseColorFactor": [
          1,
          1,
          1,
          1
        ],
        "baseColorTexture": {
          "index": 0
        },
        "metallicFactor": 1,
        "roughnessFactor": 1
      },
      "normalTexture": {
        "index": 2
      },
      "extras": {
        "shaderHint": "blinn-phong",
        "originalFormat": "asc",
        "blinnPhong": {
          "diffuse": [
            1,
            1,
            1,
            1
          ],
          "specular": [
            1,
            1,
            1,
            1
          ],
          "emissive": [
            0,
            0,
            0,
            0
          ],
          "shininess": 0,
          "transparency": 0
        }
      }
    },
    {
      "name": "Material_1",
      "pbrMetallicRoughness": {
        "baseColorFactor": [
          1,
          1,
          1,
          1
        ],
        "baseColorTexture": {
          "index": 0
        },
        "metallicFactor": 1,
        "roughnessFactor": 1
      },
      "normalTexture": {
        "index": 3
      },
      "extras": {
        "shaderHint": "blinn-phong",
        "originalFormat": "asc",
        "blinnPhong": {
          "diffuse": [
            1,
            1,
            1,
            1
          ],
          "specular": [
            1,
            1,
            1,
            1
          ],
          "emissive": [
            0,
            0,
            0,
            0
          ],
          "shininess": 0,
          "transparency": 0
        }
      }
    },
    {
      "name": "Material_2",
      "pbrMetallicRoughness": {
        "baseColorFactor": [
          1,
          1,
          1,
          1
        ],
        "baseColorTexture": {
          "index": 1
        },
        "metallicFactor": 1,
        "roughnessFactor": 1
      },
      "normalTexture": {
        "index": 4
      },
      "extras": {
        "shaderHint": "blinn-phong",
        "originalFormat": "asc",
        "blinnPhong": {
          "diffuse": [
            1,
            1,
            1,
            1
          ],
          "specular": [
            1,
            1,
            1,
            1
          ],
          "emissive": [
            0,
            0,
            0,
            0
          ],
          "shininess": 0,
          "transparency": 0
        }
      }
    }
  ],
  "images": [
    {
      "uri": "../textures/metal_grey_1_256.jpg"
    },
    {
      "uri": "../textures/lift1_128.jpg"
    },
    {
      "uri": "../textures/norm_tile0_128.png"
    },
    {
      "uri": "../textures/norm_rounds1_128.png"
    },
    {
      "uri": "../textures/norm_lift1_128.png"
    }
  ],
  "textures": [
    {
      "source": 0
    },
    {
      "source": 1
    },
    {
      "source": 2
    },
    {
      "source": 3
    },
    {
      "source": 4
    }
  ],
  "buffers": [
    {
      "byteLength": 65600,
      "uri": "data:application/octet-stream;base64,"
    }
  ]
}