{
  "asset": {
    "version": "2.0",
    "generator": "model_tool (Raylib ASC Converter)"
  },
  "extras": {
    "physics": {
      "shape": {
        "type": "circle",
        "radius": 0.173999324
      }
    }
  },
  "scene": 0,
  "scenes": [
    {
      "name": "Scene",
      "nodes": [
        0,
        1,
        2
      ]
    }
  ],
  "nodes": [
    {
      "name": "Mesh_0",
      "mesh": 0
    },
    {
      "name": "Mesh_1",
      "mesh": 1
    },
    {
      "name": "Mesh_2",
      "mesh": 2
    }
  ],
  "meshes": [
    {
      "name": "Mesh_0",
      "primitives": [
        {
          "attributes": {
            "POSITION": 0,
            "NORMAL": 1,
            "TEXCOORD_0": 2,
            "TANGENT": 3
          },
          "indices": 4,
          "material": 0
        }
      ]
    },
    {
      "name": "Mesh_1",
      "primitives": [
        {
          "attributes": {
            "POSITION": 5,
            "NORMAL": 6,
            "TEXCOORD_0": 7,
            "TANGENT": 8
          },
          "indices": 9,
          "material": 0
        }
      ]
    },
    {
      "name": "Mesh_2",
      "primitives": [
        {
          "attributes": {
            "POSITION": 10,
            "NORMAL": 11,
            "TEXCOORD_0": 12,
            "TANGENT": 13
          },
          "indices": 14,
          "material": 1
        }
      ]
    }
  ],
  "accessors": [
    {
      "bufferView": 0,
      "componentType": 5126,
      "count": 48,
      "type": "VEC3",
      "min": [
        -0.173999324,
        0.000211658204,
        -0.173999324
      ],
      "max": [
        0.173999324,
        0.0711200237,
        0.173999324
      ]
    },
    {
      "bufferView": 1,
      "componentType": 5126,
      "count": 48,
      "type": "VEC3"
    },
    {
      "bufferView": 2,
      "componentType": 5126,
      "count": 48,
      "type": "VEC2"
    },
    {
      "bufferView": 3,
      "componentType": 5126,
      "count": 48,
      "type": "VEC4"
    },
    {
      "bufferView": 4,
      "componentType": 5123,
      "count": 48,
      "type": "SCALAR"
    },
    {
      "bufferView": 5,
      "componentType": 5126,
      "count": 36,
      "type": "VEC3",
      "min": [
        -0.101262458,
        0,
        -0.101262458
      ],
      "max": [
        0.101262458,
        0.0711200237,
        0.101262458
      ]
    },
    {
      "bufferView": 6,
      "componentType": 5126,
      "count": 36,
      "type": "VEC3"
    },
    {
      "bufferView": 7,
      "componentType": 5126,
      "count": 36,
      "type": "VEC2"
    },
    {
      "bufferView": 8,
      "componentType": 5126,
      "count": 36,
      "type": "VEC4"
    },
    {
      "bufferView": 9,
      "componentType": 5123,
      "count": 36,
      "type": "SCALAR"
    },
    {
      "bufferView": 10,
      "componentType": 5126,
      "count": 24,
      "type": "VEC3",
      "min": [
        -0.16956681,
        0.0124043692,
        -0.16956681
      ],
      "max": [
        0.16956681,
        0.0589273386,
        0.16956681
      ]
    },
    {
      "bufferView": 11,
      "componentType": 5126,
      "count": 24,
      "type": "VEC3"
    },
    {
      "bufferView": 12,
      "componentType": 5126,
      "count": 24,
      "type": "VEC2"
    },
    {
      "bufferView": 13,
      "componentType": 5126,
      "count": 24,
      "type": "VEC4"
    },
    {
      "bufferView": 14,
      "componentType": 5123,
      "count": 24,
      "type": "SCALAR"
    }
  ],
  "bufferViews": [
    {
      "buffer": 0,
      "byteOffset": 0,
      "byteLength": 576,
      "target": 34962
    },
    {
      "buffer": 0,
      "byteOffset": 576,
      "byteLength": 576,
      "target": 34962
    },
    {
      "buffer": 0,
      "byteOffset": 1152,
      "byteLength": 384,
      "target": 34962
    },
    {
      "buffer": 0,
      "byteOffset": 1536,
      "byteLength": 768,
      "target": 34962
    },
    {
      "buffer": 0,
      "byteOffset": 2304,
      "byteLength": 96,
      "target": 34963
    },
    {
      "buffer": 0,
      "byteOffset": 2400,
      "byteLength": 432,
      "target": 34962
    },
    {
      "buffer": 0,
      "byteOffset": 2832,
      "byteLength": 432,
      "target": 34962
    },
    {
      "buffer": 0,
      "byteOffset": 3264,
      "byteLength": 288,
      "target": 34962
    },
    {
      "buffer": 0,
      "byteOffset": 3552,
      "byteLength": 576,
      "target": 34962
    },
    {
      "buffer": 0,
      "byteOffset": 4128,
      "byteLength": 72,
      "target": 34963
    },
    {
      "buffer": 0,
      "byteOffset": 4200,
      "byteLength": 288,
      "target": 34962
    },
    {
      "buffer": 0,
      "byteOffset": 4488,
      "byteLength": 288,
      "target": 34962
    },
    {
      "buffer": 0,
      "byteOffset": 4776,
      "byteLength": 192,
      "target": 34962
    },
    {
      "buffer": 0,
      "byteOffset": 4968,
      "byteLength": 384,
      "target": 34962
    },
    {
      "buffer": 0,
      "byteOffset": 5352,
      "byteLength": 48,
      "target": 34963
    }
  ],
  "materials": [
    {
      "name": "Material_0",
      "pbrMetallicRoughness": {
        "baseColorFactor": [
          0.800000012,
          0.800000012,
          0.800000012,
          1
        ],
        "baseColorTexture": {
          "index": 0
        },
        "metallicFactor": 0,
        "roughnessFactor": 1
      },
      "extras": {
        "glow": true,
        "shaderHint": "blinn-phong",
        "originalFormat": "asc",
        "blinnPhong": {
          "diffuse": [
            0.800000012,
            0.800000012,
            0.800000012,
            1
          ],
          "specular": [
            0,
            0,
            0,
            1
          ],
          "emissive": [
            0,
            0,
            0,
            1
          ],
          "shininess": 0,
          "transparency": 1
        }
      }
    },
    {
      "name": "Material_1",
      "pbrMetallicRoughness": {
        "baseColorFactor": [
          0.800000012,
          0.800000012,
          0.800000012,
          1
        ],
        "baseColorTexture": {
          "index": 1
        },
        "metallicFactor": 0,
        "roughnessFactor": 1
      },
      "extras": {
        "shaderHint": "blinn-phong",
        "originalFormat": "asc",
        "blinnPhong": {
          "diffuse": [
            0.800000012,
            0.800000012,
            0.800000012,
            1
          ],
          "specular": [
            0,
            0,
            0,
            1
          ],
          "emissive": [
            0,
            0,
            0,
            1
          ],
          "shininess": 0,
          "transparency": 1
        }
      }
    }
  ],
  "images": [
    {
      "uri": "textures/blue-glass.jpg"
    },
    {
      "uri": "textures/metal-yellow.jpg"
    }
  ],
  "textures": [
    {
      "source": 0
    },
    {
      "source": 1
    }
  ],
  "buffers": [
    {
      "byteLength": 5400,
      "uri": "data:application/octet-stream;base64,"
    }
  ]
}