{
  "asset": {
    "version": "2.0",
    "generator": "Python ellipsoid generator"
  },
  "scene": 0,
  "scenes": [
    {
      "nodes": [
        0
      ]
    }
  ],
  "nodes": [
    {
      "mesh": 0,
      "name": "Ellipsoid"
    }
  ],
  "meshes": [
    {
      "primitives": [
        {
          "attributes": {
            "POSITION": 0,
            "NORMAL": 1
          },
          "indices": 2,
          "mode": 4
        }
      ],
      "name": "Ellipsoid"
    }
  ],
  "accessors": [
    {
      "bufferView": 0,
      "componentType": 5126,
      "count": 561,
      "type": "VEC3",
      "min": [
        -2.0,
        -1.0,
        -1.0
      ],
      "max": [
        2.0,
        1.0,
        1.0
      ]
    },
    {
      "bufferView": 1,
      "componentType": 5126,
      "count": 561,
      "type": "VEC3"
    },
    {
      "bufferView": 2,
      "componentType": 5123,
      "count": 3072,
      "type": "SCALAR"
    }
  ],
  "bufferViews": [
    {
      "buffer": 0,
      "byteOffset": 0,
      "byteLength": 6732,
      "target": 34962
    },
    {
      "buffer": 0,
      "byteOffset": 6732,
      "byteLength": 6732,
      "target": 34962
    },
    {
      "buffer": 0,
      "byteOffset": 13464,
      "byteLength": 6144,
      "target": 34963
    }
  ],
  "buffers": [
    {
      "uri": "data:application/octet-stream;base64,",
      "byteLength": 19608
    }
  ]
}
