{
  "asset": {
    "version": "2.0",
    "generator": "model_tool (Raylib ASC Converter)"
  },
  "scene": 0,
  "scenes": [
    {
      "name": "Scene",
      "nodes": [
        0,
        1,
        2,
        3
      ]
    }
  ],
  "nodes": [
    {
      "name": "Mesh_0",
      "mesh": 0
    },
    {
      "name": "Mesh_1",
      "mesh": 1
    },
    {
      "name": "Mesh_2",
      "mesh": 2
    },
    {
      "name": "Mesh_3",
      "mesh": 3
    }
  ],
  "meshes": [
    {
      "name": "Mesh_0",
      "primitives": [
        {
          "attributes": {
            "POSITION": 0,
            "NORMAL": 1,
            "TEXCOORD_0": 2
          },
          "indices": 3,
          "material": 0
        }
      ]
    },
    {
      "name": "Mesh_1",
      "primitives": [
        {
          "attributes": {
            "POSITION": 4,
            "NORMAL": 5,
            "TEXCOORD_0": 6
          },
          "indices": 7,
          "material": 0
        }
      ]
    },
    {
      "name": "Mesh_2",
      "primitives": [
        {
          "attributes": {
            "POSITION": 8,
            "NORMAL": 9,
            "TEXCOORD_0": 10
          },
          "indices": 11,
          "material": 1
        }
      ]
    },
    {
      "name": "Mesh_3",
      "primitives": [
        {
          "attributes": {
            "POSITION": 12,
            "NORMAL": 13,
            "TEXCOORD_0": 14
          },
          "indices": 15,
          "material": 0
        }
      ]
    }
  ],
  "accessors": [
    {
      "bufferView": 0,
      "componentType": 5126,
      "count": 291,
      "type": "VEC3",
      "min": [
        -0.514349997,
        -0.0771524981,
        -0.520699978
      ],
      "max": [
        0.514349997,
        0.154304996,
        0.508000016
      ]
    },
    {
      "bufferView": 1,
      "componentType": 5126,
      "count": 291,
      "type": "VEC3"
    },
    {
      "bufferView": 2,
      "componentType": 5126,
      "count": 291,
      "type": "VEC2"
    },
    {
      "bufferView": 3,
      "componentType": 5123,
      "count": 291,
      "type": "SCALAR"
    },
    {
      "bufferView": 4,
      "componentType": 5126,
      "count": 84,
      "type": "VEC3",
      "min": [
        -0.341940373,
        0.0482848138,
        -0.400134861
      ],
      "max": [
        -0.14686811,
        0.24335666,
        0.400981039
      ]
    },
    {
      "bufferView": 5,
      "componentType": 5126,
      "count": 84,
      "type": "VEC3"
    },
    {
      "bufferView": 6,
      "componentType": 5126,
      "count": 84,
      "type": "VEC2"
    },
    {
      "bufferView": 7,
      "componentType": 5123,
      "count": 84,
      "type": "SCALAR"
    },
    {
      "bufferView": 8,
      "componentType": 5126,
      "count": 84,
      "type": "VEC3",
      "min": [
        -0.373151958,
        0.017073296,
        -0.174455881
      ],
      "max": [
        -0.115656562,
        0.27456817,
        0.175302058
      ]
    },
    {
      "bufferView": 9,
      "componentType": 5126,
      "count": 84,
      "type": "VEC3"
    },
    {
      "bufferView": 10,
      "componentType": 5126,
      "count": 84,
      "type": "VEC2"
    },
    {
      "bufferView": 11,
      "componentType": 5123,
      "count": 84,
      "type": "SCALAR"
    },
    {
      "bufferView": 12,
      "componentType": 5126,
      "count": 96,
      "type": "VEC3",
      "min": [
        -0.261055529,
        0.102076299,
        -0.48745212
      ],
      "max": [
        -0.00723125273,
        0.155698553,
        -0.223854721
      ]
    },
    {
      "bufferView": 13,
      "componentType": 5126,
      "count": 96,
      "type": "VEC3"
    },
    {
      "bufferView": 14,
      "componentType": 5126,
      "count": 96,
      "type": "VEC2"
    },
    {
      "bufferView": 15,
      "componentType": 5123,
      "count": 96,
      "type": "SCALAR"
    }
  ],
  "bufferViews": [
    {
      "buffer": 0,
      "byteOffset": 0,
      "byteLength": 3492,
      "target": 34962
    },
    {
      "buffer": 0,
      "byteOffset": 3492,
      "byteLength": 3492,
      "target": 34962
    },
    {
      "buffer": 0,
      "byteOffset": 6984,
      "byteLength": 2328,
      "target": 34962
    },
    {
      "buffer": 0,
      "byteOffset": 9312,
      "byteLength": 582,
      "target": 34963
    },
    {
      "buffer": 0,
      "byteOffset": 9896,
      "byteLength": 1008,
      "target": 34962
    },
    {
      "buffer": 0,
      "byteOffset": 10904,
      "byteLength": 1008,
      "target": 34962
    },
    {
      "buffer": 0,
      "byteOffset": 11912,
      "byteLength": 672,
      "target": 34962
    },
    {
      "buffer": 0,
      "byteOffset": 12584,
      "byteLength": 168,
      "target": 34963
    },
    {
      "buffer": 0,
      "byteOffset": 12752,
      "byteLength": 1008,
      "target": 34962
    },
    {
      "buffer": 0,
      "byteOffset": 13760,
      "byteLength": 1008,
      "target": 34962
    },
    {
      "buffer": 0,
      "byteOffset": 14768,
      "byteLength": 672,
      "target": 34962
    },
    {
      "buffer": 0,
      "byteOffset": 15440,
      "byteLength": 168,
      "target": 34963
    },
    {
      "buffer": 0,
      "byteOffset": 15608,
      "byteLength": 1152,
      "target": 34962
    },
    {
      "buffer": 0,
      "byteOffset": 16760,
      "byteLength": 1152,
      "target": 34962
    },
    {
      "buffer": 0,
      "byteOffset": 17912,
      "byteLength": 768,
      "target": 34962
    },
    {
      "buffer": 0,
      "byteOffset": 18680,
      "byteLength": 192,
      "target": 34963
    }
  ],
  "materials": [
    {
      "name": "Material_0",
      "pbrMetallicRoughness": {
        "baseColorFactor": [
          0.800000012,
          0.800000012,
          0.800000012,
          1
        ],
        "baseColorTexture": {
          "index": 0
        },
        "metallicFactor": 0,
        "roughnessFactor": 1
      },
      "extras": {
        "shaderHint": "blinn-phong",
        "originalFormat": "asc",
        "blinnPhong": {
          "diffuse": [
            0.800000012,
            0.800000012,
            0.800000012,
            1
          ],
          "specular": [
            0,
            0,
            0,
            1
          ],
          "emissive": [
            0,
            0,
            0,
            1
          ],
          "shininess": 0,
          "transparency": 1
        }
      }
    },
    {
      "name": "Material_1",
      "pbrMetallicRoughness": {
        "baseColorFactor": [
          0.800000012,
          0.800000012,
          0.800000012,
          1
        ],
        "baseColorTexture": {
          "index": 1
        },
        "metallicFactor": 0,
        "roughnessFactor": 1
      },
      "extras": {
        "shaderHint": "blinn-phong",
        "originalFormat": "asc",
        "blinnPhong": {
          "diffuse": [
            0.800000012,
            0.800000012,
            0.800000012,
            1
          ],
          "specular": [
            0,
            0,
            0,
            1
          ],
          "emissive": [
            0,
            0,
            0,
            1
          ],
          "shininess": 0,
          "transparency": 1
        }
      }
    }
  ],
  "images": [
    {
      "uri": "textures/chrome1.jpg"
    },
    {
      "uri": "textures/mtl_orange.jpg"
    }
  ],
  "textures": [
    {
      "source": 0
    },
    {
      "source": 1
    }
  ],
  "buffers": [
    {
      "byteLength": 18872,
      "uri": "data:application/octet-stream;base64,"
    }
  ]
}