{
  "asset": {
    "version": "2.0",
    "generator": "model_tool (Raylib ASC Converter)"
  },
  "extras": {
    "physics": {
      "shape": {
        "type": "circle",
        "radius": 0.591629505
      }
    }
  },
  "scene": 0,
  "scenes": [
    {
      "name": "Scene",
      "nodes": [
        0,
        1,
        2,
        3,
        4,
        5,
        6
      ]
    }
  ],
  "nodes": [
    {
      "name": "Mesh_0",
      "mesh": 0
    },
    {
      "name": "Mesh_1",
      "mesh": 1
    },
    {
      "name": "Mesh_2",
      "mesh": 2
    },
    {
      "name": "Mesh_3",
      "mesh": 3
    },
    {
      "name": "Mesh_4",
      "mesh": 4
    },
    {
      "name": "Mesh_5",
      "mesh": 5
    },
    {
      "name": "Mesh_6",
      "mesh": 6
    }
  ],
  "meshes": [
    {
      "name": "Mesh_0",
      "primitives": [
        {
          "attributes": {
            "POSITION": 0,
            "NORMAL": 1,
            "TEXCOORD_0": 2
          },
          "indices": 3,
          "material": 0
        }
      ]
    },
    {
      "name": "Mesh_1",
      "primitives": [
        {
          "attributes": {
            "POSITION": 4,
            "NORMAL": 5,
            "TEXCOORD_0": 6
          },
          "indices": 7,
          "material": 1
        }
      ]
    },
    {
      "name": "Mesh_2",
      "primitives": [
        {
          "attributes": {
            "POSITION": 8,
            "NORMAL": 9,
            "TEXCOORD_0": 10
          },
          "indices": 11,
          "material": 0
        }
      ]
    },
    {
      "name": "Mesh_3",
      "primitives": [
        {
          "attributes": {
            "POSITION": 12,
            "NORMAL": 13,
            "TEXCOORD_0": 14
          },
          "indices": 15,
          "material": 0
        }
      ]
    },
    {
      "name": "Mesh_4",
      "primitives": [
        {
          "attributes": {
            "POSITION": 16,
            "NORMAL": 17,
            "TEXCOORD_0": 18
          },
          "indices": 19,
          "material": 0
        }
      ]
    },
    {
      "name": "Mesh_5",
      "primitives": [
        {
          "attributes": {
            "POSITION": 20,
            "NORMAL": 21,
            "TEXCOORD_0": 22
          },
          "indices": 23,
          "material": 0
        }
      ]
    },
    {
      "name": "Mesh_6",
      "primitives": [
        {
          "attributes": {
            "POSITION": 24,
            "NORMAL": 25,
            "TEXCOORD_0": 26
          },
          "indices": 27,
          "material": 1
        }
      ]
    }
  ],
  "accessors": [
    {
      "bufferView": 0,
      "componentType": 5126,
      "count": 216,
      "type": "VEC3",
      "min": [
        -0.169036999,
        -0.169036999,
        -0.591629505
      ],
      "max": [
        0.169036999,
        0.169036999,
        -0.253555506
      ]
    },
    {
      "bufferView": 1,
      "componentType": 5126,
      "count": 216,
      "type": "VEC3"
    },
    {
      "bufferView": 2,
      "componentType": 5126,
      "count": 216,
      "type": "VEC2"
    },
    {
      "bufferView": 3,
      "componentType": 5123,
      "count": 216,
      "type": "SCALAR"
    },
    {
      "bufferView": 4,
      "componentType": 5126,
      "count": 36,
      "type": "VEC3",
      "min": [
        -0.0439171083,
        -0.0507110991,
        -0.251865119
      ],
      "max": [
        0.0439171083,
        0.0507110991,
        -0.167346597
      ]
    },
    {
      "bufferView": 5,
      "componentType": 5126,
      "count": 36,
      "type": "VEC3"
    },
    {
      "bufferView": 6,
      "componentType": 5126,
      "count": 36,
      "type": "VEC2"
    },
    {
      "bufferView": 7,
      "componentType": 5123,
      "count": 36,
      "type": "SCALAR"
    },
    {
      "bufferView": 8,
      "componentType": 5126,
      "count": 216,
      "type": "VEC3",
      "min": [
        -0.591629505,
        -0.169036999,
        -0.169036999
      ],
      "max": [
        -0.253555506,
        0.169036999,
        0.169036999
      ]
    },
    {
      "bufferView": 9,
      "componentType": 5126,
      "count": 216,
      "type": "VEC3"
    },
    {
      "bufferView": 10,
      "componentType": 5126,
      "count": 216,
      "type": "VEC2"
    },
    {
      "bufferView": 11,
      "componentType": 5123,
      "count": 216,
      "type": "SCALAR"
    },
    {
      "bufferView": 12,
      "componentType": 5126,
      "count": 216,
      "type": "VEC3",
      "min": [
        -0.169036999,
        -0.169036999,
        0.253555506
      ],
      "max": [
        0.169036999,
        0.169036999,
        0.591629505
      ]
    },
    {
      "bufferView": 13,
      "componentType": 5126,
      "count": 216,
      "type": "VEC3"
    },
    {
      "bufferView": 14,
      "componentType": 5126,
      "count": 216,
      "type": "VEC2"
    },
    {
      "bufferView": 15,
      "componentType": 5123,
      "count": 216,
      "type": "SCALAR"
    },
    {
      "bufferView": 16,
      "componentType": 5126,
      "count": 216,
      "type": "VEC3",
      "min": [
        0.253555506,
        -0.169036999,
        -0.169036999
      ],
      "max": [
        0.591629505,
        0.169036999,
        0.169036999
      ]
    },
    {
      "bufferView": 17,
      "componentType": 5126,
      "count": 216,
      "type": "VEC3"
    },
    {
      "bufferView": 18,
      "componentType": 5126,
      "count": 216,
      "type": "VEC2"
    },
    {
      "bufferView": 19,
      "componentType": 5123,
      "count": 216,
      "type": "SCALAR"
    },
    {
      "bufferView": 20,
      "componentType": 5126,
      "count": 96,
      "type": "VEC3",
      "min": [
        -0.203020766,
        -0.236651808,
        -0.203020766
      ],
      "max": [
        0.203020766,
        0.236651808,
        0.203020766
      ]
    },
    {
      "bufferView": 21,
      "componentType": 5126,
      "count": 96,
      "type": "VEC3"
    },
    {
      "bufferView": 22,
      "componentType": 5126,
      "count": 96,
      "type": "VEC2"
    },
    {
      "bufferView": 23,
      "componentType": 5123,
      "count": 96,
      "type": "SCALAR"
    },
    {
      "bufferView": 24,
      "componentType": 5126,
      "count": 108,
      "type": "VEC3",
      "min": [
        -0.251865119,
        -0.0507110991,
        -0.0439171083
      ],
      "max": [
        0.251865119,
        0.0507110991,
        0.251865119
      ]
    },
    {
      "bufferView": 25,
      "componentType": 5126,
      "count": 108,
      "type": "VEC3"
    },
    {
      "bufferView": 26,
      "componentType": 5126,
      "count": 108,
      "type": "VEC2"
    },
    {
      "bufferView": 27,
      "componentType": 5123,
      "count": 108,
      "type": "SCALAR"
    }
  ],
  "bufferViews": [
    {
      "buffer": 0,
      "byteOffset": 0,
      "byteLength": 2592,
      "target": 34962
    },
    {
      "buffer": 0,
      "byteOffset": 2592,
      "byteLength": 2592,
      "target": 34962
    },
    {
      "buffer": 0,
      "byteOffset": 5184,
      "byteLength": 1728,
      "target": 34962
    },
    {
      "buffer": 0,
      "byteOffset": 6912,
      "byteLength": 432,
      "target": 34963
    },
    {
      "buffer": 0,
      "byteOffset": 7344,
      "byteLength": 432,
      "target": 34962
    },
    {
      "buffer": 0,
      "byteOffset": 7776,
      "byteLength": 432,
      "target": 34962
    },
    {
      "buffer": 0,
      "byteOffset": 8208,
      "byteLength": 288,
      "target": 34962
    },
    {
      "buffer": 0,
      "byteOffset": 8496,
      "byteLength": 72,
      "target": 34963
    },
    {
      "buffer": 0,
      "byteOffset": 8568,
      "byteLength": 2592,
      "target": 34962
    },
    {
      "buffer": 0,
      "byteOffset": 11160,
      "byteLength": 2592,
      "target": 34962
    },
    {
      "buffer": 0,
      "byteOffset": 13752,
      "byteLength": 1728,
      "target": 34962
    },
    {
      "buffer": 0,
      "byteOffset": 15480,
      "byteLength": 432,
      "target": 34963
    },
    {
      "buffer": 0,
      "byteOffset": 15912,
      "byteLength": 2592,
      "target": 34962
    },
    {
      "buffer": 0,
      "byteOffset": 18504,
      "byteLength": 2592,
      "target": 34962
    },
    {
      "buffer": 0,
      "byteOffset": 21096,
      "byteLength": 1728,
      "target": 34962
    },
    {
      "buffer": 0,
      "byteOffset": 22824,
      "byteLength": 432,
      "target": 34963
    },
    {
      "buffer": 0,
      "byteOffset": 23256,
      "byteLength": 2592,
      "target": 34962
    },
    {
      "buffer": 0,
      "byteOffset": 25848,
      "byteLength": 2592,
      "target": 34962
    },
    {
      "buffer": 0,
      "byteOffset": 28440,
      "byteLength": 1728,
      "target": 34962
    },
    {
      "buffer": 0,
      "byteOffset": 30168,
      "byteLength": 432,
      "target": 34963
    },
    {
      "buffer": 0,
      "byteOffset": 30600,
      "byteLength": 1152,
      "target": 34962
    },
    {
      "buffer": 0,
      "byteOffset": 31752,
      "byteLength": 1152,
      "target": 34962
    },
    {
      "buffer": 0,
      "byteOffset": 32904,
      "byteLength": 768,
      "target": 34962
    },
    {
      "buffer": 0,
      "byteOffset": 33672,
      "byteLength": 192,
      "target": 34963
    },
    {
      "buffer": 0,
      "byteOffset": 33864,
      "byteLength": 1296,
      "target": 34962
    },
    {
      "buffer": 0,
      "byteOffset": 35160,
      "byteLength": 1296,
      "target": 34962
    },
    {
      "buffer": 0,
      "byteOffset": 36456,
      "byteLength": 864,
      "target": 34962
    },
    {
      "buffer": 0,
      "byteOffset": 37320,
      "byteLength": 216,
      "target": 34963
    }
  ],
  "materials": [
    {
      "name": "Material_0",
      "pbrMetallicRoughness": {
        "baseColorFactor": [
          0.800000012,
          0.800000012,
          0.800000012,
          1
        ],
        "baseColorTexture": {
          "index": 0
        },
        "metallicFactor": 0,
        "roughnessFactor": 1
      },
      "extras": {
        "shaderHint": "blinn-phong",
        "originalFormat": "asc",
        "blinnPhong": {
          "diffuse": [
            0.800000012,
            0.800000012,
            0.800000012,
            1
          ],
          "specular": [
            0,
            0,
            0,
            1
          ],
          "emissive": [
            0,
            0,
            0,
            1
          ],
          "shininess": 0,
          "transparency": 1
        }
      }
    },
    {
      "name": "Material_1",
      "pbrMetallicRoughness": {
        "baseColorFactor": [
          0.800000012,
          0.800000012,
          0.800000012,
          1
        ],
        "baseColorTexture": {
          "index": 1
        },
        "metallicFactor": 0,
        "roughnessFactor": 1
      },
      "extras": {
        "shaderHint": "blinn-phong",
        "originalFormat": "asc",
        "blinnPhong": {
          "diffuse": [
            0.800000012,
            0.800000012,
            0.800000012,
            1
          ],
          "specular": [
            0,
            0,
            0,
            1
          ],
          "emissive": [
            0,
            0,
            0,
            1
          ],
          "shininess": 0,
          "transparency": 1
        }
      }
    }
  ],
  "images": [
    {
      "uri": "textures/mtl_orange.jpg"
    },
    {
      "uri": "textures/chrome1.jpg"
    }
  ],
  "textures": [
    {
      "source": 0
    },
    {
      "source": 1
    }
  ],
  "buffers": [
    {
      "byteLength": 37536,
      "uri": "data:application/octet-stream;base64,"
    }
  ]
}