{
  "asset": {
    "version": "2.0",
    "generator": "model_tool (Raylib ASC Converter)"
  },
  "scene": 0,
  "scenes": [
    {
      "name": "Scene",
      "nodes": [
        0,
        1,
        2,
        3,
        4
      ]
    }
  ],
  "nodes": [
    {
      "name": "Mesh_0",
      "mesh": 0
    },
    {
      "name": "Mesh_1",
      "mesh": 1
    },
    {
      "name": "Mesh_2",
      "mesh": 2
    },
    {
      "name": "Mesh_3",
      "mesh": 3
    },
    {
      "name": "Mesh_4",
      "mesh": 4
    }
  ],
  "meshes": [
    {
      "name": "Mesh_0",
      "primitives": [
        {
          "attributes": {
            "POSITION": 0,
            "NORMAL": 1,
            "TEXCOORD_0": 2
          },
          "indices": 3,
          "material": 1
        }
      ]
    },
    {
      "name": "Mesh_1",
      "primitives": [
        {
          "attributes": {
            "POSITION": 4,
            "NORMAL": 5,
            "TEXCOORD_0": 6
          },
          "indices": 7,
          "material": 1
        }
      ]
    },
    {
      "name": "Mesh_2",
      "primitives": [
        {
          "attributes": {
            "POSITION": 8,
            "NORMAL": 9,
            "TEXCOORD_0": 10
          },
          "indices": 11,
          "material": 0
        }
      ]
    },
    {
      "name": "Mesh_3",
      "primitives": [
        {
          "attributes": {
            "POSITION": 12,
            "NORMAL": 13,
            "TEXCOORD_0": 14
          },
          "indices": 15,
          "material": 0
        }
      ]
    },
    {
      "name": "Mesh_4",
      "primitives": [
        {
          "attributes": {
            "POSITION": 16,
            "NORMAL": 17,
            "TEXCOORD_0": 18
          },
          "indices": 19,
          "material": 0
        }
      ]
    }
  ],
  "accessors": [
    {
      "bufferView": 0,
      "componentType": 5126,
      "count": 108,
      "type": "VEC3",
      "min": [
        -0.0761819631,
        0.330597371,
        -0.0630903244
      ],
      "max": [
        0.0621466599,
        0.456304789,
        0.0630903244
      ]
    },
    {
      "bufferView": 1,
      "componentType": 5126,
      "count": 108,
      "type": "VEC3"
    },
    {
      "bufferView": 2,
      "componentType": 5126,
      "count": 108,
      "type": "VEC2"
    },
    {
      "bufferView": 3,
      "componentType": 5123,
      "count": 108,
      "type": "SCALAR"
    },
    {
      "bufferView": 4,
      "componentType": 5126,
      "count": 72,
      "type": "VEC3",
      "min": [
        -0.11231865,
        0.00666229334,
        -0.0315780677
      ],
      "max": [
        0.00799076352,
        0.120032318,
        0.0315780677
      ]
    },
    {
      "bufferView": 5,
      "componentType": 5126,
      "count": 72,
      "type": "VEC3"
    },
    {
      "bufferView": 6,
      "componentType": 5126,
      "count": 72,
      "type": "VEC2"
    },
    {
      "bufferView": 7,
      "componentType": 5123,
      "count": 72,
      "type": "SCALAR"
    },
    {
      "bufferView": 8,
      "componentType": 5126,
      "count": 108,
      "type": "VEC3",
      "min": [
        -0.0997497812,
        0.0862449631,
        -0.0347133428
      ],
      "max": [
        0.0652314648,
        0.354701787,
        0.0389466546
      ]
    },
    {
      "bufferView": 9,
      "componentType": 5126,
      "count": 108,
      "type": "VEC3"
    },
    {
      "bufferView": 10,
      "componentType": 5126,
      "count": 108,
      "type": "VEC2"
    },
    {
      "bufferView": 11,
      "componentType": 5123,
      "count": 108,
      "type": "SCALAR"
    },
    {
      "bufferView": 12,
      "componentType": 5126,
      "count": 60,
      "type": "VEC3",
      "min": [
        -0.0733907074,
        -0.193337634,
        -0.0150101045
      ],
      "max": [
        0.00695551047,
        0.038149301,
        0.0150101045
      ]
    },
    {
      "bufferView": 13,
      "componentType": 5126,
      "count": 60,
      "type": "VEC3"
    },
    {
      "bufferView": 14,
      "componentType": 5126,
      "count": 60,
      "type": "VEC2"
    },
    {
      "bufferView": 15,
      "componentType": 5123,
      "count": 60,
      "type": "SCALAR"
    },
    {
      "bufferView": 16,
      "componentType": 5126,
      "count": 60,
      "type": "VEC3",
      "min": [
        -0.0579126328,
        -0.30366075,
        -0.0269079208
      ],
      "max": [
        0.0353576131,
        -0.185209915,
        0.02560132
      ]
    },
    {
      "bufferView": 17,
      "componentType": 5126,
      "count": 60,
      "type": "VEC3"
    },
    {
      "bufferView": 18,
      "componentType": 5126,
      "count": 60,
      "type": "VEC2"
    },
    {
      "bufferView": 19,
      "componentType": 5123,
      "count": 60,
      "type": "SCALAR"
    }
  ],
  "bufferViews": [
    {
      "buffer": 0,
      "byteOffset": 0,
      "byteLength": 1296,
      "target": 34962
    },
    {
      "buffer": 0,
      "byteOffset": 1296,
      "byteLength": 1296,
      "target": 34962
    },
    {
      "buffer": 0,
      "byteOffset": 2592,
      "byteLength": 864,
      "target": 34962
    },
    {
      "buffer": 0,
      "byteOffset": 3456,
      "byteLength": 216,
      "target": 34963
    },
    {
      "buffer": 0,
      "byteOffset": 3672,
      "byteLength": 864,
      "target": 34962
    },
    {
      "buffer": 0,
      "byteOffset": 4536,
      "byteLength": 864,
      "target": 34962
    },
    {
      "buffer": 0,
      "byteOffset": 5400,
      "byteLength": 576,
      "target": 34962
    },
    {
      "buffer": 0,
      "byteOffset": 5976,
      "byteLength": 144,
      "target": 34963
    },
    {
      "buffer": 0,
      "byteOffset": 6120,
      "byteLength": 1296,
      "target": 34962
    },
    {
      "buffer": 0,
      "byteOffset": 7416,
      "byteLength": 1296,
      "target": 34962
    },
    {
      "buffer": 0,
      "byteOffset": 8712,
      "byteLength": 864,
      "target": 34962
    },
    {
      "buffer": 0,
      "byteOffset": 9576,
      "byteLength": 216,
      "target": 34963
    },
    {
      "buffer": 0,
      "byteOffset": 9792,
      "byteLength": 720,
      "target": 34962
    },
    {
      "buffer": 0,
      "byteOffset": 10512,
      "byteLength": 720,
      "target": 34962
    },
    {
      "buffer": 0,
      "byteOffset": 11232,
      "byteLength": 480,
      "target": 34962
    },
    {
      "buffer": 0,
      "byteOffset": 11712,
      "byteLength": 120,
      "target": 34963
    },
    {
      "buffer": 0,
      "byteOffset": 11832,
      "byteLength": 720,
      "target": 34962
    },
    {
      "buffer": 0,
      "byteOffset": 12552,
      "byteLength": 720,
      "target": 34962
    },
    {
      "buffer": 0,
      "byteOffset": 13272,
      "byteLength": 480,
      "target": 34962
    },
    {
      "buffer": 0,
      "byteOffset": 13752,
      "byteLength": 120,
      "target": 34963
    }
  ],
  "materials": [
    {
      "name": "Material_0",
      "pbrMetallicRoughness": {
        "baseColorFactor": [
          0.800000012,
          0.800000012,
          0.800000012,
          1
        ],
        "baseColorTexture": {
          "index": 0
        },
        "metallicFactor": 0,
        "roughnessFactor": 1
      },
      "extras": {
        "shaderHint": "blinn-phong",
        "originalFormat": "asc",
        "blinnPhong": {
          "diffuse": [
            0.800000012,
            0.800000012,
            0.800000012,
            1
          ],
          "specular": [
            0,
            0,
            0,
            1
          ],
          "emissive": [
            0,
            0,
            0,
            1
          ],
          "shininess": 0,
          "transparency": 1
        }
      }
    },
    {
      "name": "Material_1",
      "pbrMetallicRoughness": {
        "baseColorFactor": [
          0.800000012,
          0.800000012,
          0.800000012,
          1
        ],
        "baseColorTexture": {
          "index": 1
        },
        "metallicFactor": 0,
        "roughnessFactor": 1
      },
      "extras": {
        "shaderHint": "blinn-phong",
        "originalFormat": "asc",
        "blinnPhong": {
          "diffuse": [
            0.800000012,
            0.800000012,
            0.800000012,
            1
          ],
          "specular": [
            0,
            0,
            0,
            1
          ],
          "emissive": [
            0,
            0,
            0,
            1
          ],
          "shininess": 0,
          "transparency": 1
        }
      }
    }
  ],
  "images": [
    {
      "uri": "textures/shiptech_grey.jpg"
    },
    {
      "uri": "textures/metal-blue.jpg"
    }
  ],
  "textures": [
    {
      "source": 0
    },
    {
      "source": 1
    }
  ],
  "buffers": [
    {
      "byteLength": 13872,
      "uri": "data:application/octet-stream;base64,"
    }
  ]
}