{
  "asset": {
    "version": "2.0",
    "generator": "model_tool (Raylib ASC Converter)"
  },
  "extras": {
    "physics": {
      "shape": {
        "type": "box",
        "width": 0.53993392,
        "height": 0.277787209
      }
    }
  },
  "scene": 0,
  "scenes": [
    {
      "name": "Scene",
      "nodes": [
        0,
        1,
        2,
        3,
        4
      ]
    }
  ],
  "nodes": [
    {
      "name": "Mesh_0",
      "mesh": 0
    },
    {
      "name": "Mesh_1",
      "mesh": 1
    },
    {
      "name": "Mesh_2",
      "mesh": 2
    },
    {
      "name": "Mesh_3",
      "mesh": 3
    },
    {
      "name": "Mesh_4",
      "mesh": 4
    }
  ],
  "meshes": [
    {
      "name": "Mesh_0",
      "primitives": [
        {
          "attributes": {
            "POSITION": 0,
            "NORMAL": 1,
            "TEXCOORD_0": 2
          },
          "indices": 3,
          "material": 0
        }
      ]
    },
    {
      "name": "Mesh_1",
      "primitives": [
        {
          "attributes": {
            "POSITION": 4,
            "NORMAL": 5,
            "TEXCOORD_0": 6
          },
          "indices": 7,
          "material": 0
        }
      ]
    },
    {
      "name": "Mesh_2",
      "primitives": [
        {
          "attributes": {
            "POSITION": 8,
            "NORMAL": 9,
            "TEXCOORD_0": 10
          },
          "indices": 11,
          "material": 0
        }
      ]
    },
    {
      "name": "Mesh_3",
      "primitives": [
        {
          "attributes": {
            "POSITION": 12,
            "NORMAL": 13,
            "TEXCOORD_0": 14
          },
          "indices": 15,
          "material": 1
        }
      ]
    },
    {
      "name": "Mesh_4",
      "primitives": [
        {
          "attributes": {
            "POSITION": 16,
            "NORMAL": 17,
            "TEXCOORD_0": 18
          },
          "indices": 19,
          "material": 2
        }
      ]
    }
  ],
  "accessors": [
    {
      "bufferView": 0,
      "componentType": 5126,
      "count": 42,
      "type": "VEC3",
      "min": [
        -0.152474165,
        -0.162441194,
        -0.0998141244
      ],
      "max": [
        0.152630627,
        -0.0569774583,
        0.131488174
      ]
    },
    {
      "bufferView": 1,
      "componentType": 5126,
      "count": 42,
      "type": "VEC3"
    },
    {
      "bufferView": 2,
      "componentType": 5126,
      "count": 42,
      "type": "VEC2"
    },
    {
      "bufferView": 3,
      "componentType": 5123,
      "count": 42,
      "type": "SCALAR"
    },
    {
      "bufferView": 4,
      "componentType": 5126,
      "count": 159,
      "type": "VEC3",
      "min": [
        -0.205839559,
        -0.162441194,
        -0.146299019
      ],
      "max": [
        0.205996022,
        0.177202031,
        0.131488174
      ]
    },
    {
      "bufferView": 5,
      "componentType": 5126,
      "count": 159,
      "type": "VEC3"
    },
    {
      "bufferView": 6,
      "componentType": 5126,
      "count": 159,
      "type": "VEC2"
    },
    {
      "bufferView": 7,
      "componentType": 5123,
      "count": 159,
      "type": "SCALAR"
    },
    {
      "bufferView": 8,
      "componentType": 5126,
      "count": 12,
      "type": "VEC3",
      "min": [
        -0.0686541647,
        0.147029549,
        -0.0210819989
      ],
      "max": [
        0.0685312301,
        0.177202031,
        0.0891844779
      ]
    },
    {
      "bufferView": 9,
      "componentType": 5126,
      "count": 12,
      "type": "VEC3"
    },
    {
      "bufferView": 10,
      "componentType": 5126,
      "count": 12,
      "type": "VEC2"
    },
    {
      "bufferView": 11,
      "componentType": 5123,
      "count": 12,
      "type": "SCALAR"
    },
    {
      "bufferView": 12,
      "componentType": 5126,
      "count": 144,
      "type": "VEC3",
      "min": [
        -0.26996696,
        0.020737499,
        -0.0287421066
      ],
      "max": [
        0.26996696,
        0.234407082,
        0.0414421074
      ]
    },
    {
      "bufferView": 13,
      "componentType": 5126,
      "count": 144,
      "type": "VEC3"
    },
    {
      "bufferView": 14,
      "componentType": 5126,
      "count": 144,
      "type": "VEC2"
    },
    {
      "bufferView": 15,
      "componentType": 5123,
      "count": 144,
      "type": "SCALAR"
    },
    {
      "bufferView": 16,
      "componentType": 5126,
      "count": 21,
      "type": "VEC3",
      "min": [
        -0.0967095345,
        -0.139436781,
        -0.0430904664
      ],
      "max": [
        0.0965926424,
        -4.06400005e-07,
        0.0721419677
      ]
    },
    {
      "bufferView": 17,
      "componentType": 5126,
      "count": 21,
      "type": "VEC3"
    },
    {
      "bufferView": 18,
      "componentType": 5126,
      "count": 21,
      "type": "VEC2"
    },
    {
      "bufferView": 19,
      "componentType": 5123,
      "count": 21,
      "type": "SCALAR"
    }
  ],
  "bufferViews": [
    {
      "buffer": 0,
      "byteOffset": 0,
      "byteLength": 504,
      "target": 34962
    },
    {
      "buffer": 0,
      "byteOffset": 504,
      "byteLength": 504,
      "target": 34962
    },
    {
      "buffer": 0,
      "byteOffset": 1008,
      "byteLength": 336,
      "target": 34962
    },
    {
      "buffer": 0,
      "byteOffset": 1344,
      "byteLength": 84,
      "target": 34963
    },
    {
      "buffer": 0,
      "byteOffset": 1428,
      "byteLength": 1908,
      "target": 34962
    },
    {
      "buffer": 0,
      "byteOffset": 3336,
      "byteLength": 1908,
      "target": 34962
    },
    {
      "buffer": 0,
      "byteOffset": 5244,
      "byteLength": 1272,
      "target": 34962
    },
    {
      "buffer": 0,
      "byteOffset": 6516,
      "byteLength": 318,
      "target": 34963
    },
    {
      "buffer": 0,
      "byteOffset": 6836,
      "byteLength": 144,
      "target": 34962
    },
    {
      "buffer": 0,
      "byteOffset": 6980,
      "byteLength": 144,
      "target": 34962
    },
    {
      "buffer": 0,
      "byteOffset": 7124,
      "byteLength": 96,
      "target": 34962
    },
    {
      "buffer": 0,
      "byteOffset": 7220,
      "byteLength": 24,
      "target": 34963
    },
    {
      "buffer": 0,
      "byteOffset": 7244,
      "byteLength": 1728,
      "target": 34962
    },
    {
      "buffer": 0,
      "byteOffset": 8972,
      "byteLength": 1728,
      "target": 34962
    },
    {
      "buffer": 0,
      "byteOffset": 10700,
      "byteLength": 1152,
      "target": 34962
    },
    {
      "buffer": 0,
      "byteOffset": 11852,
      "byteLength": 288,
      "target": 34963
    },
    {
      "buffer": 0,
      "byteOffset": 12140,
      "byteLength": 252,
      "target": 34962
    },
    {
      "buffer": 0,
      "byteOffset": 12392,
      "byteLength": 252,
      "target": 34962
    },
    {
      "buffer": 0,
      "byteOffset": 12644,
      "byteLength": 168,
      "target": 34962
    },
    {
      "buffer": 0,
      "byteOffset": 12812,
      "byteLength": 42,
      "target": 34963
    }
  ],
  "materials": [
    {
      "name": "Material_0",
      "pbrMetallicRoughness": {
        "baseColorFactor": [
          0.800000012,
          0.800000012,
          0.800000012,
          1
        ],
        "baseColorTexture": {
          "index": 0
        },
        "metallicFactor": 0,
        "roughnessFactor": 1
      },
      "extras": {
        "shaderHint": "blinn-phong",
        "originalFormat": "asc",
        "blinnPhong": {
          "diffuse": [
            0.800000012,
            0.800000012,
            0.800000012,
            1
          ],
          "specular": [
            0,
            0,
            0,
            1
          ],
          "emissive": [
            0,
            0,
            0,
            1
          ],
          "shininess": 0,
          "transparency": 1
        }
      }
    },
    {
      "name": "Material_1",
      "pbrMetallicRoughness": {
        "baseColorFactor": [
          0.800000012,
          0.800000012,
          0.800000012,
          1
        ],
        "baseColorTexture": {
          "index": 1
        },
        "metallicFactor": 0,
        "roughnessFactor": 1
      },
      "extras": {
        "shaderHint": "blinn-phong",
        "originalFormat": "asc",
        "blinnPhong": {
          "diffuse": [
            0.800000012,
            0.800000012,
            0.800000012,
            1
          ],
          "specular": [
            0,
            0,
            0,
            1
          ],
          "emissive": [
            0,
            0,
            0,
            1
          ],
          "shininess": 0,
          "transparency": 1
        }
      }
    },
    {
      "name": "Material_2",
      "pbrMetallicRoughness": {
        "baseColorFactor": [
          0.800000012,
          0.800000012,
          0.800000012,
          1
        ],
        "baseColorTexture": {
          "index": 2
        },
        "metallicFactor": 0,
        "roughnessFactor": 1
      },
      "extras": {
        "shaderHint": "blinn-phong",
        "originalFormat": "asc",
        "blinnPhong": {
          "diffuse": [
            0.800000012,
            0.800000012,
            0.800000012,
            1
          ],
          "specular": [
            0,
            0,
            0,
            1
          ],
          "emissive": [
            0,
            0,
            0,
            1
          ],
          "shininess": 0,
          "transparency": 1
        }
      }
    }
  ],
  "images": [
    {
      "uri": "textures/chrome1.jpg"
    },
    {
      "uri": "textures/metal-yellow.jpg"
    },
    {
      "uri": "textures/st_mat52.jpg"
    }
  ],
  "textures": [
    {
      "source": 0
    },
    {
      "source": 1
    },
    {
      "source": 2
    }
  ],
  "buffers": [
    {
      "byteLength": 12856,
      "uri": "data:application/octet-stream;base64,"
    }
  ]
}