{
  "asset": {
    "version": "2.0",
    "generator": "model_tool (Raylib ASC Converter)"
  },
  "scene": 0,
  "scenes": [
    {
      "name": "Scene",
      "nodes": [
        0,
        1,
        2,
        3,
        4
      ]
    }
  ],
  "nodes": [
    {
      "name": "Mesh_0",
      "mesh": 0
    },
    {
      "name": "Mesh_1",
      "mesh": 1
    },
    {
      "name": "Mesh_2",
      "mesh": 2
    },
    {
      "name": "Mesh_3",
      "mesh": 3
    },
    {
      "name": "Mesh_4",
      "mesh": 4
    }
  ],
  "meshes": [
    {
      "name": "Mesh_0",
      "primitives": [
        {
          "attributes": {
            "POSITION": 0,
            "NORMAL": 1,
            "TEXCOORD_0": 2
          },
          "indices": 3,
          "material": 0
        }
      ]
    },
    {
      "name": "Mesh_1",
      "primitives": [
        {
          "attributes": {
            "POSITION": 4,
            "NORMAL": 5,
            "TEXCOORD_0": 6
          },
          "indices": 7,
          "material": 0
        }
      ]
    },
    {
      "name": "Mesh_2",
      "primitives": [
        {
          "attributes": {
            "POSITION": 8,
            "NORMAL": 9,
            "TEXCOORD_0": 10
          },
          "indices": 11,
          "material": 0
        }
      ]
    },
    {
      "name": "Mesh_3",
      "primitives": [
        {
          "attributes": {
            "POSITION": 12,
            "NORMAL": 13,
            "TEXCOORD_0": 14
          },
          "indices": 15,
          "material": 0
        }
      ]
    },
    {
      "name": "Mesh_4",
      "primitives": [
        {
          "attributes": {
            "POSITION": 16,
            "NORMAL": 17,
            "TEXCOORD_0": 18
          },
          "indices": 19,
          "material": 0
        }
      ]
    }
  ],
  "accessors": [
    {
      "bufferView": 0,
      "componentType": 5126,
      "count": 36,
      "type": "VEC3",
      "min": [
        -0.0233131349,
        0.0147116547,
        -0.0664656013
      ],
      "max": [
        0.0241026171,
        0.154819176,
        0.034348648
      ]
    },
    {
      "bufferView": 1,
      "componentType": 5126,
      "count": 36,
      "type": "VEC3"
    },
    {
      "bufferView": 2,
      "componentType": 5126,
      "count": 36,
      "type": "VEC2"
    },
    {
      "bufferView": 3,
      "componentType": 5123,
      "count": 36,
      "type": "SCALAR"
    },
    {
      "bufferView": 4,
      "componentType": 5126,
      "count": 54,
      "type": "VEC3",
      "min": [
        -0.0317786001,
        -0.00775736291,
        -0.00471990416
      ],
      "max": [
        0.0325680561,
        0.0379626341,
        0.048073031
      ]
    },
    {
      "bufferView": 5,
      "componentType": 5126,
      "count": 54,
      "type": "VEC3"
    },
    {
      "bufferView": 6,
      "componentType": 5126,
      "count": 54,
      "type": "VEC2"
    },
    {
      "bufferView": 7,
      "componentType": 5123,
      "count": 54,
      "type": "SCALAR"
    },
    {
      "bufferView": 8,
      "componentType": 5126,
      "count": 36,
      "type": "VEC3",
      "min": [
        -0.049276378,
        0.136303604,
        -0.0811202377
      ],
      "max": [
        0.0500658378,
        0.193876877,
        -0.0122580398
      ]
    },
    {
      "bufferView": 9,
      "componentType": 5126,
      "count": 36,
      "type": "VEC3"
    },
    {
      "bufferView": 10,
      "componentType": 5126,
      "count": 36,
      "type": "VEC2"
    },
    {
      "bufferView": 11,
      "componentType": 5123,
      "count": 36,
      "type": "SCALAR"
    },
    {
      "bufferView": 12,
      "componentType": 5126,
      "count": 36,
      "type": "VEC3",
      "min": [
        -0.0233131349,
        -0.14115946,
        -0.0015932403
      ],
      "max": [
        0.0241026171,
        -0.00840178598,
        0.04582287
      ]
    },
    {
      "bufferView": 13,
      "componentType": 5126,
      "count": 36,
      "type": "VEC3"
    },
    {
      "bufferView": 14,
      "componentType": 5126,
      "count": 36,
      "type": "VEC2"
    },
    {
      "bufferView": 15,
      "componentType": 5123,
      "count": 36,
      "type": "SCALAR"
    },
    {
      "bufferView": 16,
      "componentType": 5126,
      "count": 54,
      "type": "VEC3",
      "min": [
        -0.0418902375,
        -0.183348656,
        -0.0115344701
      ],
      "max": [
        0.0417604446,
        -0.137628645,
        0.0570963025
      ]
    },
    {
      "bufferView": 17,
      "componentType": 5126,
      "count": 54,
      "type": "VEC3"
    },
    {
      "bufferView": 18,
      "componentType": 5126,
      "count": 54,
      "type": "VEC2"
    },
    {
      "bufferView": 19,
      "componentType": 5123,
      "count": 54,
      "type": "SCALAR"
    }
  ],
  "bufferViews": [
    {
      "buffer": 0,
      "byteOffset": 0,
      "byteLength": 432,
      "target": 34962
    },
    {
      "buffer": 0,
      "byteOffset": 432,
      "byteLength": 432,
      "target": 34962
    },
    {
      "buffer": 0,
      "byteOffset": 864,
      "byteLength": 288,
      "target": 34962
    },
    {
      "buffer": 0,
      "byteOffset": 1152,
      "byteLength": 72,
      "target": 34963
    },
    {
      "buffer": 0,
      "byteOffset": 1224,
      "byteLength": 648,
      "target": 34962
    },
    {
      "buffer": 0,
      "byteOffset": 1872,
      "byteLength": 648,
      "target": 34962
    },
    {
      "buffer": 0,
      "byteOffset": 2520,
      "byteLength": 432,
      "target": 34962
    },
    {
      "buffer": 0,
      "byteOffset": 2952,
      "byteLength": 108,
      "target": 34963
    },
    {
      "buffer": 0,
      "byteOffset": 3060,
      "byteLength": 432,
      "target": 34962
    },
    {
      "buffer": 0,
      "byteOffset": 3492,
      "byteLength": 432,
      "target": 34962
    },
    {
      "buffer": 0,
      "byteOffset": 3924,
      "byteLength": 288,
      "target": 34962
    },
    {
      "buffer": 0,
      "byteOffset": 4212,
      "byteLength": 72,
      "target": 34963
    },
    {
      "buffer": 0,
      "byteOffset": 4284,
      "byteLength": 432,
      "target": 34962
    },
    {
      "buffer": 0,
      "byteOffset": 4716,
      "byteLength": 432,
      "target": 34962
    },
    {
      "buffer": 0,
      "byteOffset": 5148,
      "byteLength": 288,
      "target": 34962
    },
    {
      "buffer": 0,
      "byteOffset": 5436,
      "byteLength": 72,
      "target": 34963
    },
    {
      "buffer": 0,
      "byteOffset": 5508,
      "byteLength": 648,
      "target": 34962
    },
    {
      "buffer": 0,
      "byteOffset": 6156,
      "byteLength": 648,
      "target": 34962
    },
    {
      "buffer": 0,
      "byteOffset": 6804,
      "byteLength": 432,
      "target": 34962
    },
    {
      "buffer": 0,
      "byteOffset": 7236,
      "byteLength": 108,
      "target": 34963
    }
  ],
  "materials": [
    {
      "name": "Material_0",
      "pbrMetallicRoughness": {
        "baseColorFactor": [
          0.800000012,
          0.800000012,
          0.800000012,
          1
        ],
        "baseColorTexture": {
          "index": 0
        },
        "metallicFactor": 0,
        "roughnessFactor": 1
      },
      "extras": {
        "shaderHint": "blinn-phong",
        "originalFormat": "asc",
        "blinnPhong": {
          "diffuse": [
            0.800000012,
            0.800000012,
            0.800000012,
            1
          ],
          "specular": [
            0,
            0,
            0,
            1
          ],
          "emissive": [
            0,
            0,
            0,
            1
          ],
          "shininess": 0,
          "transparency": 1
        }
      }
    }
  ],
  "images": [
    {
      "uri": "textures/mtl_orange.jpg"
    }
  ],
  "textures": [
    {
      "source": 0
    }
  ],
  "buffers": [
    {
      "byteLength": 7344,
      "uri": "data:application/octet-stream;base64,"
    }
  ]
}