{
  "accessors": [
    {
      "bufferView": 0,
      "componentType": 5126,
      "count": 8,
      "type": "MAT4"
    },
    {
      "bufferView": 1,
      "componentType": 5126,
      "count": 780,
      "max": [
        0.18320555984973907,
        1.0430659055709839,
        0.4939383864402771
      ],
      "min": [
        -0.17191310226917267,
        -0.02344512939453125,
        -0.42420604825019836
      ],
      "type": "VEC3"
    },
    {
      "bufferView": 2,
      "componentType": 5126,
      "count": 780,
      "type": "VEC3"
    },
    {
      "bufferView": 3,
      "componentType": 5126,
      "count": 780,
      "type": "VEC2"
    },
    {
      "bufferView": 4,
      "componentType": 5121,
      "count": 780,
      "type": "VEC4"
    },
    {
      "bufferView": 5,
      "componentType": 5126,
      "count": 780,
      "type": "VEC4"
    },
    {
      "bufferView": 6,
      "componentType": 5123,
      "count": 780,
      "type": "SCALAR"
    },
    {
      "bufferView": 7,
      "componentType": 5126,
      "count": 60,
      "max": [
        0.039718374609947205,
        1.2514091730117798,
        0.054060354828834534
      ],
      "min": [
        -0.030878130346536636,
        1.02280855178833,
        -0.0102510005235672
      ],
      "type": "VEC3"
    },
    {
      "bufferView": 8,
      "componentType": 5126,
      "count": 60,
      "type": "VEC3"
    },
    {
      "bufferView": 9,
      "componentType": 5126,
      "count": 60,
      "type": "VEC2"
    },
    {
      "bufferView": 10,
      "componentType": 5121,
      "count": 60,
      "type": "VEC4"
    },
    {
      "bufferView": 11,
      "componentType": 5126,
      "count": 60,
      "type": "VEC4"
    },
    {
      "bufferView": 12,
      "componentType": 5123,
      "count": 60,
      "type": "SCALAR"
    },
    {
      "bufferView": 13,
      "componentType": 5126,
      "count": 24,
      "max": [
        0.9583333134651184
      ],
      "min": [
        0
      ],
      "type": "SCALAR"
    },
    {
      "bufferView": 14,
      "componentType": 5126,
      "count": 24,
      "type": "VEC3"
    },
    {
      "bufferView": 15,
      "componentType": 5126,
      "count": 24,
      "type": "VEC4"
    },
    {
      "bufferView": 16,
      "componentType": 5126,
      "count": 24,
      "max": [
        0.9583333134651184
      ],
      "min": [
        0
      ],
      "type": "SCALAR"
    },
    {
      "bufferView": 17,
      "componentType": 5126,
      "count": 24,
      "type": "VEC3"
    },
    {
      "bufferView": 18,
      "componentType": 5126,
      "count": 24,
      "type": "VEC4"
    },
    {
      "bufferView": 19,
      "componentType": 5126,
      "count": 24,
      "max": [
        0.9583333134651184
      ],
      "min": [
        0
      ],
      "type": "SCALAR"
    },
    {
      "bufferView": 20,
      "componentType": 5126,
      "count": 24,
      "type": "VEC3"
    },
    {
      "bufferView": 21,
      "componentType": 5126,
      "count": 24,
      "type": "VEC4"
    },
    {
      "bufferView": 22,
      "componentType": 5126,
      "count": 24,
      "max": [
        0.9583333134651184
      ],
      "min": [
        0
      ],
      "type": "SCALAR"
    },
    {
      "bufferView": 23,
      "componentType": 5126,
      "count": 24,
      "type": "VEC3"
    },
    {
      "bufferView": 24,
      "componentType": 5126,
      "count": 24,
      "type": "VEC4"
    },
    {
      "bufferView": 25,
      "componentType": 5126,
      "count": 24,
      "max": [
        0.9583333134651184
      ],
      "min": [
        0
      ],
      "type": "SCALAR"
    },
    {
      "bufferView": 26,
      "componentType": 5126,
      "count": 24,
      "type": "VEC3"
    },
    {
      "bufferView": 27,
      "componentType": 5126,
      "count": 24,
      "type": "VEC4"
    },
    {
      "bufferView": 28,
      "componentType": 5126,
      "count": 24,
      "max": [
        0.9583333134651184
      ],
      "min": [
        0
      ],
      "type": "SCALAR"
    },
    {
      "bufferView": 29,
      "componentType": 5126,
      "count": 24,
      "type": "VEC3"
    },
    {
      "bufferView": 30,
      "componentType": 5126,
      "count": 24,
      "type": "VEC4"
    },
    {
      "bufferView": 31,
      "componentType": 5126,
      "count": 24,
      "max": [
        0.9583333134651184
      ],
      "min": [
        0
      ],
      "type": "SCALAR"
    },
    {
      "bufferView": 32,
      "componentType": 5126,
      "count": 24,
      "type": "VEC3"
    },
    {
      "bufferView": 33,
      "componentType": 5126,
      "count": 24,
      "type": "VEC4"
    },
    {
      "bufferView": 34,
      "componentType": 5126,
      "count": 24,
      "max": [
        0.9583333134651184
      ],
      "min": [
        0
      ],
      "type": "SCALAR"
    },
    {
      "bufferView": 35,
      "componentType": 5126,
      "count": 24,
      "type": "VEC3"
    },
    {
      "bufferView": 36,
      "componentType": 5126,
      "count": 24,
      "type": "VEC4"
    },
    {
      "bufferView": 37,
      "componentType": 5126,
      "count": 111,
      "max": [
        4.583333492279053
      ],
      "min": [
        0
      ],
      "type": "SCALAR"
    },
    {
      "bufferView": 38,
      "componentType": 5126,
      "count": 111,
      "type": "VEC3"
    },
    {
      "bufferView": 39,
      "componentType": 5126,
      "count": 111,
      "type": "VEC4"
    },
    {
      "bufferView": 40,
      "componentType": 5126,
      "count": 111,
      "max": [
        4.583333492279053
      ],
      "min": [
        0
      ],
      "type": "SCALAR"
    },
    {
      "bufferView": 41,
      "componentType": 5126,
      "count": 111,
      "type": "VEC3"
    },
    {
      "bufferView": 42,
      "componentType": 5126,
      "count": 111,
      "type": "VEC4"
    },
    {
      "bufferView": 43,
      "componentType": 5126,
      "count": 111,
      "max": [
        4.583333492279053
      ],
      "min": [
        0
      ],
      "type": "SCALAR"
    },
    {
      "bufferView": 44,
      "componentType": 5126,
      "count": 111,
      "type": "VEC3"
    },
    {
      "bufferView": 45,
      "componentType": 5126,
      "count": 111,
      "type": "VEC4"
    },
    {
      "bufferView": 46,
      "componentType": 5126,
      "count": 111,
      "max": [
        4.583333492279053
      ],
      "min": [
        0
      ],
      "type": "SCALAR"
    },
    {
      "bufferView": 47,
      "componentType": 5126,
      "count": 111,
      "type": "VEC3"
    },
    {
      "bufferView": 48,
      "componentType": 5126,
      "count": 111,
      "type": "VEC4"
    },
    {
      "bufferView": 49,
      "componentType": 5126,
      "count": 111,
      "max": [
        4.583333492279053
      ],
      "min": [
        0
      ],
      "type": "SCALAR"
    },
    {
      "bufferView": 50,
      "componentType": 5126,
      "count": 111,
      "type": "VEC3"
    },
    {
      "bufferView": 51,
      "componentType": 5126,
      "count": 111,
      "type": "VEC4"
    },
    {
      "bufferView": 52,
      "componentType": 5126,
      "count": 111,
      "max": [
        4.583333492279053
      ],
      "min": [
        0
      ],
      "type": "SCALAR"
    },
    {
      "bufferView": 53,
      "componentType": 5126,
      "count": 111,
      "type": "VEC3"
    },
    {
      "bufferView": 54,
      "componentType": 5126,
      "count": 111,
      "type": "VEC4"
    },
    {
      "bufferView": 55,
      "componentType": 5126,
      "count": 111,
      "max": [
        4.583333492279053
      ],
      "min": [
        0
      ],
      "type": "SCALAR"
    },
    {
      "bufferView": 56,
      "componentType": 5126,
      "count": 111,
      "type": "VEC3"
    },
    {
      "bufferView": 57,
      "componentType": 5126,
      "count": 111,
      "type": "VEC4"
    },
    {
      "bufferView": 58,
      "componentType": 5126,
      "count": 111,
      "max": [
        4.583333492279053
      ],
      "min": [
        0
      ],
      "type": "SCALAR"
    },
    {
      "bufferView": 59,
      "componentType": 5126,
      "count": 111,
      "type": "VEC3"
    },
    {
      "bufferView": 60,
      "componentType": 5126,
      "count": 111,
      "type": "VEC4"
    }
  ],
  "animations": [
    {
      "channels": [
        {
          "sampler": 0,
          "target": {
            "node": 2,
            "path": "translation"
          }
        },
        {
          "sampler": 1,
          "target": {
            "node": 2,
            "path": "rotation"
          }
        },
        {
          "sampler": 2,
          "target": {
            "node": 3,
            "path": "translation"
          }
        },
        {
          "sampler": 3,
          "target": {
            "node": 3,
            "path": "rotation"
          }
        },
        {
          "sampler": 4,
          "target": {
            "node": 4,
            "path": "translation"
          }
        },
        {
          "sampler": 5,
          "target": {
            "node": 4,
            "path": "rotation"
          }
        },
        {
          "sampler": 6,
          "target": {
            "node": 5,
            "path": "translation"
          }
        },
        {
          "sampler": 7,
          "target": {
            "node": 5,
            "path": "rotation"
          }
        },
        {
          "sampler": 8,
          "target": {
            "node": 6,
            "path": "translation"
          }
        },
        {
          "sampler": 9,
          "target": {
            "node": 6,
            "path": "rotation"
          }
        },
        {
          "sampler": 10,
          "target": {
            "node": 7,
            "path": "translation"
          }
        },
        {
          "sampler": 11,
          "target": {
            "node": 7,
            "path": "rotation"
          }
        },
        {
          "sampler": 12,
          "target": {
            "node": 8,
            "path": "translation"
          }
        },
        {
          "sampler": 13,
          "target": {
            "node": 8,
            "path": "rotation"
          }
        },
        {
          "sampler": 14,
          "target": {
            "node": 9,
            "path": "translation"
          }
        },
        {
          "sampler": 15,
          "target": {
            "node": 9,
            "path": "rotation"
          }
        }
      ],
      "name": "walk",
      "samplers": [
        {
          "input": 13,
          "interpolation": "LINEAR",
          "output": 14
        },
        {
          "input": 13,
          "interpolation": "LINEAR",
          "output": 15
        },
        {
          "input": 16,
          "interpolation": "LINEAR",
          "output": 17
        },
        {
          "input": 16,
          "interpolation": "LINEAR",
          "output": 18
        },
        {
          "input": 19,
          "interpolation": "LINEAR",
          "output": 20
        },
        {
          "input": 19,
          "interpolation": "LINEAR",
          "output": 21
        },
        {
          "input": 22,
          "interpolation": "LINEAR",
          "output": 23
        },
        {
          "input": 22,
          "interpolation": "LINEAR",
          "output": 24
        },
        {
          "input": 25,
          "interpolation": "LINEAR",
          "output": 26
        },
        {
          "input": 25,
          "interpolation": "LINEAR",
          "output": 27
        },
        {
          "input": 28,
          "interpolation": "LINEAR",
          "output": 29
        },
        {
          "input": 28,
          "interpolation": "LINEAR",
          "output": 30
        },
        {
          "input": 31,
          "interpolation": "LINEAR",
          "output": 32
        },
        {
          "input": 31,
          "interpolation": "LINEAR",
          "output": 33
        },
        {
          "input": 34,
          "interpolation": "LINEAR",
          "output": 35
        },
        {
          "input": 34,
          "interpolation": "LINEAR",
          "output": 36
        }
      ]
    },
    {
      "channels": [
        {
          "sampler": 0,
          "target": {
            "node": 2,
            "path": "translation"
          }
        },
        {
          "sampler": 1,
          "target": {
            "node": 2,
            "path": "rotation"
          }
        },
        {
          "sampler": 2,
          "target": {
            "node": 3,
            "path": "translation"
          }
        },
        {
          "sampler": 3,
          "target": {
            "node": 3,
            "path": "rotation"
          }
        },
        {
          "sampler": 4,
          "target": {
            "node": 4,
            "path": "translation"
          }
        },
        {
          "sampler": 5,
          "target": {
            "node": 4,
            "path": "rotation"
          }
        },
        {
          "sampler": 6,
          "target": {
            "node": 5,
            "path": "translation"
          }
        },
        {
          "sampler": 7,
          "target": {
            "node": 5,
            "path": "rotation"
          }
        },
        {
          "sampler": 8,
          "target": {
            "node": 6,
            "path": "translation"
          }
        },
        {
          "sampler": 9,
          "target": {
            "node": 6,
            "path": "rotation"
          }
        },
        {
          "sampler": 10,
          "target": {
            "node": 7,
            "path": "translation"
          }
        },
        {
          "sampler": 11,
          "target": {
            "node": 7,
            "path": "rotation"
          }
        },
        {
          "sampler": 12,
          "target": {
            "node": 8,
            "path": "translation"
          }
        },
        {
          "sampler": 13,
          "target": {
            "node": 8,
            "path": "rotation"
          }
        },
        {
          "sampler": 14,
          "target": {
            "node": 9,
            "path": "translation"
          }
        },
        {
          "sampler": 15,
          "target": {
            "node": 9,
            "path": "rotation"
          }
        }
      ],
      "name": "idle",
      "samplers": [
        {
          "input": 37,
          "interpolation": "LINEAR",
          "output": 38
        },
        {
          "input": 37,
          "interpolation": "LINEAR",
          "output": 39
        },
        {
          "input": 40,
          "interpolation": "LINEAR",
          "output": 41
        },
        {
          "input": 40,
          "interpolation": "LINEAR",
          "output": 42
        },
        {
          "input": 43,
          "interpolation": "LINEAR",
          "output": 44
        },
        {
          "input": 43,
          "interpolation": "LINEAR",
          "output": 45
        },
        {
          "input": 46,
          "interpolation": "LINEAR",
          "output": 47
        },
        {
          "input": 46,
          "interpolation": "LINEAR",
          "output": 48
        },
        {
          "input": 49,
          "interpolation": "LINEAR",
          "output": 50
        },
        {
          "input": 49,
          "interpolation": "LINEAR",
          "output": 51
        },
        {
          "input": 52,
          "interpolation": "LINEAR",
          "output": 53
        },
        {
          "input": 52,
          "interpolation": "LINEAR",
          "output": 54
        },
        {
          "input": 55,
          "interpolation": "LINEAR",
          "output": 56
        },
        {
          "input": 55,
          "interpolation": "LINEAR",
          "output": 57
        },
        {
          "input": 58,
          "interpolation": "LINEAR",
          "output": 59
        },
        {
          "input": 58,
          "interpolation": "LINEAR",
          "output": 60
        }
      ]
    }
  ],
  "asset": {
    "generator": "model_tool MDL Converter",
    "version": "2.0"
  },
  "bufferViews": [
    {
      "buffer": 0,
      "byteLength": 512,
      "byteOffset": 0
    },
    {
      "buffer": 0,
      "byteLength": 9360,
      "byteOffset": 512,
      "target": 34962
    },
    {
      "buffer": 0,
      "byteLength": 9360,
      "byteOffset": 9872,
      "target": 34962
    },
    {
      "buffer": 0,
      "byteLength": 6240,
      "byteOffset": 19232,
      "target": 34962
    },
    {
      "buffer": 0,
      "byteLength": 3120,
      "byteOffset": 25472,
      "target": 34962
    },
    {
      "buffer": 0,
      "byteLength": 12480,
      "byteOffset": 28592,
      "target": 34962
    },
    {
      "buffer": 0,
      "byteLength": 1560,
      "byteOffset": 41072,
      "target": 34963
    },
    {
      "buffer": 0,
      "byteLength": 720,
      "byteOffset": 42632,
      "target": 34962
    },
    {
      "buffer": 0,
      "byteLength": 720,
      "byteOffset": 43352,
      "target": 34962
    },
    {
      "buffer": 0,
      "byteLength": 480,
      "byteOffset": 44072,
      "target": 34962
    },
    {
      "buffer": 0,
      "byteLength": 240,
      "byteOffset": 44552,
      "target": 34962
    },
    {
      "buffer": 0,
      "byteLength": 960,
      "byteOffset": 44792,
      "target": 34962
    },
    {
      "buffer": 0,
      "byteLength": 120,
      "byteOffset": 45752,
      "target": 34963
    },
    {
      "buffer": 0,
      "byteLength": 96,
      "byteOffset": 45872
    },
    {
      "buffer": 0,
      "byteLength": 288,
      "byteOffset": 45968
    },
    {
      "buffer": 0,
      "byteLength": 384,
      "byteOffset": 46256
    },
    {
      "buffer": 0,
      "byteLength": 96,
      "byteOffset": 46640
    },
    {
      "buffer": 0,
      "byteLength": 288,
      "byteOffset": 46736
    },
    {
      "buffer": 0,
      "byteLength": 384,
      "byteOffset": 47024
    },
    {
      "buffer": 0,
      "byteLength": 96,
      "byteOffset": 47408
    },
    {
      "buffer": 0,
      "byteLength": 288,
      "byteOffset": 47504
    },
    {
      "buffer": 0,
      "byteLength": 384,
      "byteOffset": 47792
    },
    {
      "buffer": 0,
      "byteLength": 96,
      "byteOffset": 48176
    },
    {
      "buffer": 0,
      "byteLength": 288,
      "byteOffset": 48272
    },
    {
      "buffer": 0,
      "byteLength": 384,
      "byteOffset": 48560
    },
    {
      "buffer": 0,
      "byteLength": 96,
      "byteOffset": 48944
    },
    {
      "buffer": 0,
      "byteLength": 288,
      "byteOffset": 49040
    },
    {
      "buffer": 0,
      "byteLength": 384,
      "byteOffset": 49328
    },
    {
      "buffer": 0,
      "byteLength": 96,
      "byteOffset": 49712
    },
    {
      "buffer": 0,
      "byteLength": 288,
      "byteOffset": 49808
    },
    {
      "buffer": 0,
      "byteLength": 384,
      "byteOffset": 50096
    },
    {
      "buffer": 0,
      "byteLength": 96,
      "byteOffset": 50480
    },
    {
      "buffer": 0,
      "byteLength": 288,
      "byteOffset": 50576
    },
    {
      "buffer": 0,
      "byteLength": 384,
      "byteOffset": 50864
    },
    {
      "buffer": 0,
      "byteLength": 96,
      "byteOffset": 51248
    },
    {
      "buffer": 0,
      "byteLength": 288,
      "byteOffset": 51344
    },
    {
      "buffer": 0,
      "byteLength": 384,
      "byteOffset": 51632
    },
    {
      "buffer": 0,
      "byteLength": 444,
      "byteOffset": 52016
    },
    {
      "buffer": 0,
      "byteLength": 1332,
      "byteOffset": 52460
    },
    {
      "buffer": 0,
      "byteLength": 1776,
      "byteOffset": 53792
    },
    {
      "buffer": 0,
      "byteLength": 444,
      "byteOffset": 55568
    },
    {
      "buffer": 0,
      "byteLength": 1332,
      "byteOffset": 56012
    },
    {
      "buffer": 0,
      "byteLength": 1776,
      "byteOffset": 57344
    },
    {
      "buffer": 0,
      "byteLength": 444,
      "byteOffset": 59120
    },
    {
      "buffer": 0,
      "byteLength": 1332,
      "byteOffset": 59564
    },
    {
      "buffer": 0,
      "byteLength": 1776,
      "byteOffset": 60896
    },
    {
      "buffer": 0,
      "byteLength": 444,
      "byteOffset": 62672
    },
    {
      "buffer": 0,
      "byteLength": 1332,
      "byteOffset": 63116
    },
    {
      "buffer": 0,
      "byteLength": 1776,
      "byteOffset": 64448
    },
    {
      "buffer": 0,
      "byteLength": 444,
      "byteOffset": 66224
    },
    {
      "buffer": 0,
      "byteLength": 1332,
      "byteOffset": 66668
    },
    {
      "buffer": 0,
      "byteLength": 1776,
      "byteOffset": 68000
    },
    {
      "buffer": 0,
      "byteLength": 444,
      "byteOffset": 69776
    },
    {
      "buffer": 0,
      "byteLength": 1332,
      "byteOffset": 70220
    },
    {
      "buffer": 0,
      "byteLength": 1776,
      "byteOffset": 71552
    },
    {
      "buffer": 0,
      "byteLength": 444,
      "byteOffset": 73328
    },
    {
      "buffer": 0,
      "byteLength": 1332,
      "byteOffset": 73772
    },
    {
      "buffer": 0,
      "byteLength": 1776,
      "byteOffset": 75104
    },
    {
      "buffer": 0,
      "byteLength": 444,
      "byteOffset": 76880
    },
    {
      "buffer": 0,
      "byteLength": 1332,
      "byteOffset": 77324
    },
    {
      "buffer": 0,
      "byteLength": 1776,
      "byteOffset": 78656
    }
  ],
  "buffers": [
    {
      "uri": "legs_data.bin",
      "byteLength": 80432
    }
  ],
  "materials": [
    {
      "name": "metal-blue.bmp",
      "pbrMetallicRoughness": {
        "metallicFactor": 0,
        "roughnessFactor": 0.8
      }
    },
    {
      "name": "metal-yellow.bmp",
      "pbrMetallicRoughness": {
        "metallicFactor": 0,
        "roughnessFactor": 0.8
      }
    }
  ],
  "meshes": [
    {
      "name": "body_0",
      "primitives": [
        {
          "attributes": {
            "JOINTS_0": 4,
            "NORMAL": 2,
            "POSITION": 1,
            "TEXCOORD_0": 3,
            "WEIGHTS_0": 5
          },
          "indices": 6,
          "material": 0,
          "mode": 4
        }
      ]
    },
    {
      "name": "body_1",
      "primitives": [
        {
          "attributes": {
            "JOINTS_0": 10,
            "NORMAL": 8,
            "POSITION": 7,
            "TEXCOORD_0": 9,
            "WEIGHTS_0": 11
          },
          "indices": 12,
          "material": 1,
          "mode": 4
        }
      ]
    }
  ],
  "nodes": [
    {
      "mesh": 0,
      "name": "body_0_node",
      "skin": 0
    },
    {
      "mesh": 1,
      "name": "body_1_node",
      "skin": 0
    },
    {
      "children": [
        3
      ],
      "name": "Bip01",
      "rotation": [
        0,
        0.999048113822937,
        0,
        0.04362231865525246
      ],
      "scale": [
        1,
        1,
        1
      ],
      "translation": [
        0.005845028441399336,
        0.9819149374961853,
        0.009624511934816837
      ]
    },
    {
      "children": [
        4,
        7
      ],
      "name": "Bip01 Pelvis",
      "rotation": [
        0.4999978840351105,
        -0.49999725818634033,
        0.5000021457672119,
        0.5000027418136597
      ],
      "scale": [
        1,
        1,
        1
      ],
      "translation": [
        -0.0007937742047943175,
        0,
        -0.008037014864385128
      ]
    },
    {
      "children": [
        5
      ],
      "name": "Bip01 L Leg",
      "rotation": [
        0.9858307242393494,
        -0.08075122535228729,
        0.14683356881141663,
        -0.007551804184913635
      ],
      "scale": [
        1,
        1,
        1
      ],
      "translation": [
        -1.5240000550420518e-7,
        0.09431664645671844,
        1.2699999274445872e-7
      ]
    },
    {
      "children": [
        6
      ],
      "name": "Bip01 L Leg1",
      "rotation": [
        0,
        -0.060688551515340805,
        0,
        0.998156726360321
      ],
      "scale": [
        1,
        1,
        1
      ],
      "translation": [
        -2.5400000325248584e-8,
        2.5400000325248584e-8,
        -0.45817017555236816
      ]
    },
    {
      "name": "Bip01 L Foot",
      "rotation": [
        -0.016218116506934166,
        -0.0860980823636055,
        -0.036769721657037735,
        0.9954757690429688
      ],
      "scale": [
        1,
        1,
        1
      ],
      "translation": [
        2.5400000325248584e-8,
        0,
        -0.44700783491134644
      ]
    },
    {
      "children": [
        8
      ],
      "name": "Bip01 R Leg",
      "rotation": [
        -0.9939339756965637,
        0.0024079512804746628,
        0.1096309944987297,
        -0.008395249955356121
      ],
      "scale": [
        1,
        1,
        1
      ],
      "translation": [
        5.080000065049717e-8,
        -0.09431664645671844,
        -1.2699999274445872e-7
      ]
    },
    {
      "children": [
        9
      ],
      "name": "Bip01 R Leg1",
      "rotation": [
        0,
        -0.19334891438484192,
        0,
        0.981130063533783
      ],
      "scale": [
        1,
        1,
        1
      ],
      "translation": [
        -5.080000065049717e-8,
        -2.5400000325248584e-8,
        -0.4582694172859192
      ]
    },
    {
      "name": "Bip01 R Foot",
      "rotation": [
        0.007745598442852497,
        0.10361143946647644,
        0.003196558216586709,
        0.9945825338363647
      ],
      "scale": [
        1,
        1,
        1
      ],
      "translation": [
        5.080000065049717e-8,
        -2.5400000325248584e-8,
        -0.44700783491134644
      ]
    }
  ],
  "scene": 0,
  "scenes": [
    {
      "name": ".\\legs.mdl",
      "nodes": [
        0,
        1,
        2
      ]
    }
  ],
  "skins": [
    {
      "inverseBindMatrices": 0,
      "joints": [
        2,
        3,
        4,
        5,
        6,
        7,
        8,
        9
      ],
      "name": "Armature",
      "skeleton": 2
    }
  ]
}