{
  "asset": {
    "version": "2.0",
    "generator": "model_tool (Raylib ASC Converter)"
  },
  "extras": {
    "physics": {
      "shape": {
        "type": "box",
        "width": 0.53993392,
        "height": 0.194837153
      }
    }
  },
  "scene": 0,
  "scenes": [
    {
      "name": "Scene",
      "nodes": [
        0,
        1,
        2,
        3,
        4
      ]
    }
  ],
  "nodes": [
    {
      "name": "Mesh_0",
      "mesh": 0
    },
    {
      "name": "Mesh_1",
      "mesh": 1
    },
    {
      "name": "Mesh_2",
      "mesh": 2
    },
    {
      "name": "Mesh_3",
      "mesh": 3
    },
    {
      "name": "Mesh_4",
      "mesh": 4
    }
  ],
  "meshes": [
    {
      "name": "Mesh_0",
      "primitives": [
        {
          "attributes": {
            "POSITION": 0,
            "NORMAL": 1,
            "TEXCOORD_0": 2
          },
          "indices": 3,
          "material": 1
        }
      ]
    },
    {
      "name": "Mesh_1",
      "primitives": [
        {
          "attributes": {
            "POSITION": 4,
            "NORMAL": 5,
            "TEXCOORD_0": 6
          },
          "indices": 7,
          "material": 1
        }
      ]
    },
    {
      "name": "Mesh_2",
      "primitives": [
        {
          "attributes": {
            "POSITION": 8,
            "NORMAL": 9,
            "TEXCOORD_0": 10
          },
          "indices": 11,
          "material": 0
        }
      ]
    },
    {
      "name": "Mesh_3",
      "primitives": [
        {
          "attributes": {
            "POSITION": 12,
            "NORMAL": 13,
            "TEXCOORD_0": 14
          },
          "indices": 15,
          "material": 0
        }
      ]
    },
    {
      "name": "Mesh_4",
      "primitives": [
        {
          "attributes": {
            "POSITION": 16,
            "NORMAL": 17,
            "TEXCOORD_0": 18
          },
          "indices": 19,
          "material": 0
        }
      ]
    }
  ],
  "accessors": [
    {
      "bufferView": 0,
      "componentType": 5126,
      "count": 48,
      "type": "VEC3",
      "min": [
        -0.024982525,
        0.247240618,
        -0.0287421066
      ],
      "max": [
        0.0248002298,
        0.320766956,
        0.0287421066
      ]
    },
    {
      "bufferView": 1,
      "componentType": 5126,
      "count": 48,
      "type": "VEC3"
    },
    {
      "bufferView": 2,
      "componentType": 5126,
      "count": 48,
      "type": "VEC2"
    },
    {
      "bufferView": 3,
      "componentType": 5123,
      "count": 48,
      "type": "SCALAR"
    },
    {
      "bufferView": 4,
      "componentType": 5126,
      "count": 96,
      "type": "VEC3",
      "min": [
        -0.26996696,
        0.152817473,
        -0.0287421066
      ],
      "max": [
        0.26996696,
        0.202782527,
        0.0287421066
      ]
    },
    {
      "bufferView": 5,
      "componentType": 5126,
      "count": 96,
      "type": "VEC3"
    },
    {
      "bufferView": 6,
      "componentType": 5126,
      "count": 96,
      "type": "VEC2"
    },
    {
      "bufferView": 7,
      "componentType": 5123,
      "count": 96,
      "type": "SCALAR"
    },
    {
      "bufferView": 8,
      "componentType": 5126,
      "count": 228,
      "type": "VEC3",
      "min": [
        -0.215845376,
        0.012939319,
        -0.09799584
      ],
      "max": [
        0.215954617,
        0.247719377,
        0.0968413055
      ]
    },
    {
      "bufferView": 9,
      "componentType": 5126,
      "count": 228,
      "type": "VEC3"
    },
    {
      "bufferView": 10,
      "componentType": 5126,
      "count": 228,
      "type": "VEC2"
    },
    {
      "bufferView": 11,
      "componentType": 5123,
      "count": 228,
      "type": "SCALAR"
    },
    {
      "bufferView": 12,
      "componentType": 5126,
      "count": 276,
      "type": "VEC3",
      "min": [
        -0.0743420124,
        -0.250296146,
        -0.0516263917
      ],
      "max": [
        0.0743420124,
        0.0114732562,
        0.0516263917
      ]
    },
    {
      "bufferView": 13,
      "componentType": 5126,
      "count": 276,
      "type": "VEC3"
    },
    {
      "bufferView": 14,
      "componentType": 5126,
      "count": 276,
      "type": "VEC2"
    },
    {
      "bufferView": 15,
      "componentType": 5123,
      "count": 276,
      "type": "SCALAR"
    },
    {
      "bufferView": 16,
      "componentType": 5126,
      "count": 36,
      "type": "VEC3",
      "min": [
        -0.116582371,
        -0.175859585,
        -0.0303416979
      ],
      "max": [
        0.116582371,
        0.0183830969,
        0.0303416979
      ]
    },
    {
      "bufferView": 17,
      "componentType": 5126,
      "count": 36,
      "type": "VEC3"
    },
    {
      "bufferView": 18,
      "componentType": 5126,
      "count": 36,
      "type": "VEC2"
    },
    {
      "bufferView": 19,
      "componentType": 5123,
      "count": 36,
      "type": "SCALAR"
    }
  ],
  "bufferViews": [
    {
      "buffer": 0,
      "byteOffset": 0,
      "byteLength": 576,
      "target": 34962
    },
    {
      "buffer": 0,
      "byteOffset": 576,
      "byteLength": 576,
      "target": 34962
    },
    {
      "buffer": 0,
      "byteOffset": 1152,
      "byteLength": 384,
      "target": 34962
    },
    {
      "buffer": 0,
      "byteOffset": 1536,
      "byteLength": 96,
      "target": 34963
    },
    {
      "buffer": 0,
      "byteOffset": 1632,
      "byteLength": 1152,
      "target": 34962
    },
    {
      "buffer": 0,
      "byteOffset": 2784,
      "byteLength": 1152,
      "target": 34962
    },
    {
      "buffer": 0,
      "byteOffset": 3936,
      "byteLength": 768,
      "target": 34962
    },
    {
      "buffer": 0,
      "byteOffset": 4704,
      "byteLength": 192,
      "target": 34963
    },
    {
      "buffer": 0,
      "byteOffset": 4896,
      "byteLength": 2736,
      "target": 34962
    },
    {
      "buffer": 0,
      "byteOffset": 7632,
      "byteLength": 2736,
      "target": 34962
    },
    {
      "buffer": 0,
      "byteOffset": 10368,
      "byteLength": 1824,
      "target": 34962
    },
    {
      "buffer": 0,
      "byteOffset": 12192,
      "byteLength": 456,
      "target": 34963
    },
    {
      "buffer": 0,
      "byteOffset": 12648,
      "byteLength": 3312,
      "target": 34962
    },
    {
      "buffer": 0,
      "byteOffset": 15960,
      "byteLength": 3312,
      "target": 34962
    },
    {
      "buffer": 0,
      "byteOffset": 19272,
      "byteLength": 2208,
      "target": 34962
    },
    {
      "buffer": 0,
      "byteOffset": 21480,
      "byteLength": 552,
      "target": 34963
    },
    {
      "buffer": 0,
      "byteOffset": 22032,
      "byteLength": 432,
      "target": 34962
    },
    {
      "buffer": 0,
      "byteOffset": 22464,
      "byteLength": 432,
      "target": 34962
    },
    {
      "buffer": 0,
      "byteOffset": 22896,
      "byteLength": 288,
      "target": 34962
    },
    {
      "buffer": 0,
      "byteOffset": 23184,
      "byteLength": 72,
      "target": 34963
    }
  ],
  "materials": [
    {
      "name": "Material_0",
      "pbrMetallicRoughness": {
        "baseColorFactor": [
          0.800000012,
          0.800000012,
          0.800000012,
          1
        ],
        "baseColorTexture": {
          "index": 0
        },
        "metallicFactor": 0,
        "roughnessFactor": 1
      },
      "extras": {
        "shaderHint": "blinn-phong",
        "originalFormat": "asc",
        "blinnPhong": {
          "diffuse": [
            0.800000012,
            0.800000012,
            0.800000012,
            1
          ],
          "specular": [
            0,
            0,
            0,
            1
          ],
          "emissive": [
            0,
            0,
            0,
            1
          ],
          "shininess": 0,
          "transparency": 1
        }
      }
    },
    {
      "name": "Material_1",
      "pbrMetallicRoughness": {
        "baseColorFactor": [
          0.800000012,
          0.800000012,
          0.800000012,
          1
        ],
        "baseColorTexture": {
          "index": 1
        },
        "metallicFactor": 0,
        "roughnessFactor": 1
      },
      "extras": {
        "shaderHint": "blinn-phong",
        "originalFormat": "asc",
        "blinnPhong": {
          "diffuse": [
            0.800000012,
            0.800000012,
            0.800000012,
            1
          ],
          "specular": [
            0,
            0,
            0,
            1
          ],
          "emissive": [
            0,
            0,
            0,
            1
          ],
          "shininess": 0,
          "transparency": 1
        }
      }
    }
  ],
  "images": [
    {
      "uri": "textures/chrome1.jpg"
    },
    {
      "uri": "textures/metal-yellow.jpg"
    }
  ],
  "textures": [
    {
      "source": 0
    },
    {
      "source": 1
    }
  ],
  "buffers": [
    {
      "byteLength": 23256,
      "uri": "data:application/octet-stream;base64,"
    }
  ]
}