{
  "asset": {
    "version": "2.0",
    "generator": "model_tool (Raylib ASC Converter)"
  },
  "extras": {
    "physics": {
      "shape": {
        "type": "box",
        "width": 0.295711756,
        "height": 0.124177776
      }
    }
  },
  "scene": 0,
  "scenes": [
    {
      "name": "Scene",
      "nodes": [
        0,
        1,
        2,
        3,
        4,
        5,
        6
      ]
    }
  ],
  "nodes": [
    {
      "name": "Mesh_0",
      "mesh": 0
    },
    {
      "name": "Mesh_1",
      "mesh": 1
    },
    {
      "name": "Mesh_2",
      "mesh": 2
    },
    {
      "name": "Mesh_3",
      "mesh": 3
    },
    {
      "name": "Mesh_4",
      "mesh": 4
    },
    {
      "name": "Mesh_5",
      "mesh": 5
    },
    {
      "name": "Mesh_6",
      "mesh": 6
    }
  ],
  "meshes": [
    {
      "name": "Mesh_0",
      "primitives": [
        {
          "attributes": {
            "POSITION": 0,
            "NORMAL": 1,
            "TEXCOORD_0": 2
          },
          "indices": 3,
          "material": 0
        }
      ]
    },
    {
      "name": "Mesh_1",
      "primitives": [
        {
          "attributes": {
            "POSITION": 4,
            "NORMAL": 5,
            "TEXCOORD_0": 6
          },
          "indices": 7,
          "material": 0
        }
      ]
    },
    {
      "name": "Mesh_2",
      "primitives": [
        {
          "attributes": {
            "POSITION": 8,
            "NORMAL": 9,
            "TEXCOORD_0": 10
          },
          "indices": 11,
          "material": 0
        }
      ]
    },
    {
      "name": "Mesh_3",
      "primitives": [
        {
          "attributes": {
            "POSITION": 12,
            "NORMAL": 13,
            "TEXCOORD_0": 14
          },
          "indices": 15,
          "material": 0
        }
      ]
    },
    {
      "name": "Mesh_4",
      "primitives": [
        {
          "attributes": {
            "POSITION": 16,
            "NORMAL": 17,
            "TEXCOORD_0": 18
          },
          "indices": 19,
          "material": 0
        }
      ]
    },
    {
      "name": "Mesh_5",
      "primitives": [
        {
          "attributes": {
            "POSITION": 20,
            "NORMAL": 21,
            "TEXCOORD_0": 22
          },
          "indices": 23,
          "material": 0
        }
      ]
    },
    {
      "name": "Mesh_6",
      "primitives": [
        {
          "attributes": {
            "POSITION": 24,
            "NORMAL": 25,
            "TEXCOORD_0": 26
          },
          "indices": 27,
          "material": 0
        }
      ]
    }
  ],
  "accessors": [
    {
      "bufferView": 0,
      "componentType": 5126,
      "count": 36,
      "type": "VEC3",
      "min": [
        -0.129289433,
        0.0393511541,
        -0.0296348408
      ],
      "max": [
        0.0706607178,
        0.213765264,
        0.029634865
      ]
    },
    {
      "bufferView": 1,
      "componentType": 5126,
      "count": 36,
      "type": "VEC3"
    },
    {
      "bufferView": 2,
      "componentType": 5126,
      "count": 36,
      "type": "VEC2"
    },
    {
      "bufferView": 3,
      "componentType": 5123,
      "count": 36,
      "type": "SCALAR"
    },
    {
      "bufferView": 4,
      "componentType": 5126,
      "count": 60,
      "type": "VEC3",
      "min": [
        -0.161087632,
        0.0108470954,
        -0.0402166806
      ],
      "max": [
        -0.0950965062,
        0.0870470926,
        0.0402166583
      ]
    },
    {
      "bufferView": 5,
      "componentType": 5126,
      "count": 60,
      "type": "VEC3"
    },
    {
      "bufferView": 6,
      "componentType": 5126,
      "count": 60,
      "type": "VEC2"
    },
    {
      "bufferView": 7,
      "componentType": 5123,
      "count": 60,
      "type": "SCALAR"
    },
    {
      "bufferView": 8,
      "componentType": 5126,
      "count": 36,
      "type": "VEC3",
      "min": [
        0.0137174735,
        0.17546244,
        -0.0620888993
      ],
      "max": [
        0.0997952297,
        0.247429028,
        0.062088877
      ]
    },
    {
      "bufferView": 9,
      "componentType": 5126,
      "count": 36,
      "type": "VEC3"
    },
    {
      "bufferView": 10,
      "componentType": 5126,
      "count": 36,
      "type": "VEC2"
    },
    {
      "bufferView": 11,
      "componentType": 5123,
      "count": 36,
      "type": "SCALAR"
    },
    {
      "bufferView": 12,
      "componentType": 5126,
      "count": 36,
      "type": "VEC3",
      "min": [
        -0.135625556,
        -0.114749983,
        -0.0296348408
      ],
      "max": [
        0.0657077655,
        0.0574219562,
        0.029634865
      ]
    },
    {
      "bufferView": 13,
      "componentType": 5126,
      "count": 36,
      "type": "VEC3"
    },
    {
      "bufferView": 14,
      "componentType": 5126,
      "count": 36,
      "type": "VEC2"
    },
    {
      "bufferView": 15,
      "componentType": 5123,
      "count": 36,
      "type": "SCALAR"
    },
    {
      "bufferView": 16,
      "componentType": 5126,
      "count": 60,
      "type": "VEC3",
      "min": [
        0.0336457007,
        -0.150019556,
        -0.0402166806
      ],
      "max": [
        0.099636808,
        -0.0738195628,
        0.0402166583
      ]
    },
    {
      "bufferView": 17,
      "componentType": 5126,
      "count": 60,
      "type": "VEC3"
    },
    {
      "bufferView": 18,
      "componentType": 5126,
      "count": 60,
      "type": "VEC2"
    },
    {
      "bufferView": 19,
      "componentType": 5123,
      "count": 60,
      "type": "SCALAR"
    },
    {
      "bufferView": 20,
      "componentType": 5126,
      "count": 60,
      "type": "VEC3",
      "min": [
        -0.00630958844,
        -0.225293174,
        -0.0259429496
      ],
      "max": [
        0.0450333618,
        -0.126515359,
        0.0259429738
      ]
    },
    {
      "bufferView": 21,
      "componentType": 5126,
      "count": 60,
      "type": "VEC3"
    },
    {
      "bufferView": 22,
      "componentType": 5126,
      "count": 60,
      "type": "VEC2"
    },
    {
      "bufferView": 23,
      "componentType": 5123,
      "count": 60,
      "type": "SCALAR"
    },
    {
      "bufferView": 24,
      "componentType": 5126,
      "count": 60,
      "type": "VEC3",
      "min": [
        0.0832811594,
        -0.225293174,
        -0.0212259684
      ],
      "max": [
        0.134624138,
        -0.126515359,
        0.0306599829
      ]
    },
    {
      "bufferView": 25,
      "componentType": 5126,
      "count": 60,
      "type": "VEC3"
    },
    {
      "bufferView": 26,
      "componentType": 5126,
      "count": 60,
      "type": "VEC2"
    },
    {
      "bufferView": 27,
      "componentType": 5123,
      "count": 60,
      "type": "SCALAR"
    }
  ],
  "bufferViews": [
    {
      "buffer": 0,
      "byteOffset": 0,
      "byteLength": 432,
      "target": 34962
    },
    {
      "buffer": 0,
      "byteOffset": 432,
      "byteLength": 432,
      "target": 34962
    },
    {
      "buffer": 0,
      "byteOffset": 864,
      "byteLength": 288,
      "target": 34962
    },
    {
      "buffer": 0,
      "byteOffset": 1152,
      "byteLength": 72,
      "target": 34963
    },
    {
      "buffer": 0,
      "byteOffset": 1224,
      "byteLength": 720,
      "target": 34962
    },
    {
      "buffer": 0,
      "byteOffset": 1944,
      "byteLength": 720,
      "target": 34962
    },
    {
      "buffer": 0,
      "byteOffset": 2664,
      "byteLength": 480,
      "target": 34962
    },
    {
      "buffer": 0,
      "byteOffset": 3144,
      "byteLength": 120,
      "target": 34963
    },
    {
      "buffer": 0,
      "byteOffset": 3264,
      "byteLength": 432,
      "target": 34962
    },
    {
      "buffer": 0,
      "byteOffset": 3696,
      "byteLength": 432,
      "target": 34962
    },
    {
      "buffer": 0,
      "byteOffset": 4128,
      "byteLength": 288,
      "target": 34962
    },
    {
      "buffer": 0,
      "byteOffset": 4416,
      "byteLength": 72,
      "target": 34963
    },
    {
      "buffer": 0,
      "byteOffset": 4488,
      "byteLength": 432,
      "target": 34962
    },
    {
      "buffer": 0,
      "byteOffset": 4920,
      "byteLength": 432,
      "target": 34962
    },
    {
      "buffer": 0,
      "byteOffset": 5352,
      "byteLength": 288,
      "target": 34962
    },
    {
      "buffer": 0,
      "byteOffset": 5640,
      "byteLength": 72,
      "target": 34963
    },
    {
      "buffer": 0,
      "byteOffset": 5712,
      "byteLength": 720,
      "target": 34962
    },
    {
      "buffer": 0,
      "byteOffset": 6432,
      "byteLength": 720,
      "target": 34962
    },
    {
      "buffer": 0,
      "byteOffset": 7152,
      "byteLength": 480,
      "target": 34962
    },
    {
      "buffer": 0,
      "byteOffset": 7632,
      "byteLength": 120,
      "target": 34963
    },
    {
      "buffer": 0,
      "byteOffset": 7752,
      "byteLength": 720,
      "target": 34962
    },
    {
      "buffer": 0,
      "byteOffset": 8472,
      "byteLength": 720,
      "target": 34962
    },
    {
      "buffer": 0,
      "byteOffset": 9192,
      "byteLength": 480,
      "target": 34962
    },
    {
      "buffer": 0,
      "byteOffset": 9672,
      "byteLength": 120,
      "target": 34963
    },
    {
      "buffer": 0,
      "byteOffset": 9792,
      "byteLength": 720,
      "target": 34962
    },
    {
      "buffer": 0,
      "byteOffset": 10512,
      "byteLength": 720,
      "target": 34962
    },
    {
      "buffer": 0,
      "byteOffset": 11232,
      "byteLength": 480,
      "target": 34962
    },
    {
      "buffer": 0,
      "byteOffset": 11712,
      "byteLength": 120,
      "target": 34963
    }
  ],
  "materials": [
    {
      "name": "Material_0",
      "pbrMetallicRoughness": {
        "baseColorFactor": [
          0.800000012,
          0.800000012,
          0.800000012,
          1
        ],
        "baseColorTexture": {
          "index": 0
        },
        "metallicFactor": 0,
        "roughnessFactor": 1
      },
      "extras": {
        "envTexture": "textures/centercongrey.jpg",
        "envColor": [
          0.3,
          0.3,
          0.3,
          1.0
        ],
        "envIntensity": 1.0,
        "shaderHint": "blinn-phong",
        "originalFormat": "asc",
        "blinnPhong": {
          "diffuse": [
            0.800000012,
            0.800000012,
            0.800000012,
            1
          ],
          "specular": [
            0,
            0,
            0,
            1
          ],
          "emissive": [
            0,
            0,
            0,
            1
          ],
          "shininess": 0,
          "transparency": 1
        }
      }
    }
  ],
  "images": [
    {
      "uri": "textures/mtl_orange.jpg"
    }
  ],
  "textures": [
    {
      "source": 0
    }
  ],
  "buffers": [
    {
      "byteLength": 11832,
      "uri": "data:application/octet-stream;base64,"
    }
  ]
}
