{
  "asset": {
    "version": "2.0",
    "generator": "model_tool (Raylib ASC Converter)"
  },
  "extras": {
    "physics": {
      "shape": {
        "type": "box",
        "width": 0.692943752,
        "height": 1.21959686
      }
    }
  },
  "scene": 0,
  "scenes": [
    {
      "name": "Scene",
      "nodes": [
        0,
        1
      ]
    }
  ],
  "nodes": [
    {
      "name": "Mesh_0",
      "mesh": 0
    },
    {
      "name": "Mesh_1",
      "mesh": 1
    }
  ],
  "meshes": [
    {
      "name": "Mesh_0",
      "primitives": [
        {
          "attributes": {
            "POSITION": 0,
            "NORMAL": 1,
            "TEXCOORD_0": 2
          },
          "indices": 3,
          "material": 0
        }
      ]
    },
    {
      "name": "Mesh_1",
      "primitives": [
        {
          "attributes": {
            "POSITION": 4,
            "NORMAL": 5,
            "TEXCOORD_0": 6
          },
          "indices": 7,
          "material": 1
        }
      ]
    }
  ],
  "accessors": [
    {
      "bufferView": 0,
      "componentType": 5126,
      "count": 906,
      "type": "VEC3",
      "min": [
        -0.346471876,
        -0.00657049753,
        -0.711199999
      ],
      "max": [
        0.346471876,
        0.807816982,
        0.508396864
      ]
    },
    {
      "bufferView": 1,
      "componentType": 5126,
      "count": 906,
      "type": "VEC3"
    },
    {
      "bufferView": 2,
      "componentType": 5126,
      "count": 906,
      "type": "VEC2"
    },
    {
      "bufferView": 3,
      "componentType": 5123,
      "count": 906,
      "type": "SCALAR"
    },
    {
      "bufferView": 4,
      "componentType": 5126,
      "count": 33,
      "type": "VEC3",
      "min": [
        -0.114299998,
        0.265685707,
        -0.294481248
      ],
      "max": [
        0.114299998,
        0.752254486,
        0.0869156271
      ]
    },
    {
      "bufferView": 5,
      "componentType": 5126,
      "count": 33,
      "type": "VEC3"
    },
    {
      "bufferView": 6,
      "componentType": 5126,
      "count": 33,
      "type": "VEC2"
    },
    {
      "bufferView": 7,
      "componentType": 5123,
      "count": 33,
      "type": "SCALAR"
    }
  ],
  "bufferViews": [
    {
      "buffer": 0,
      "byteOffset": 0,
      "byteLength": 10872,
      "target": 34962
    },
    {
      "buffer": 0,
      "byteOffset": 10872,
      "byteLength": 10872,
      "target": 34962
    },
    {
      "buffer": 0,
      "byteOffset": 21744,
      "byteLength": 7248,
      "target": 34962
    },
    {
      "buffer": 0,
      "byteOffset": 28992,
      "byteLength": 1812,
      "target": 34963
    },
    {
      "buffer": 0,
      "byteOffset": 30804,
      "byteLength": 396,
      "target": 34962
    },
    {
      "buffer": 0,
      "byteOffset": 31200,
      "byteLength": 396,
      "target": 34962
    },
    {
      "buffer": 0,
      "byteOffset": 31596,
      "byteLength": 264,
      "target": 34962
    },
    {
      "buffer": 0,
      "byteOffset": 31860,
      "byteLength": 66,
      "target": 34963
    }
  ],
  "materials": [
    {
      "name": "Material_0",
      "pbrMetallicRoughness": {
        "baseColorFactor": [
          0.800000012,
          0.800000012,
          0.800000012,
          1
        ],
        "baseColorTexture": {
          "index": 0
        },
        "metallicFactor": 0,
        "roughnessFactor": 1
      },
      "extras": {
        "shaderHint": "blinn-phong",
        "originalFormat": "asc",
        "blinnPhong": {
          "diffuse": [
            0.800000012,
            0.800000012,
            0.800000012,
            1
          ],
          "specular": [
            0,
            0,
            0,
            1
          ],
          "emissive": [
            0,
            0,
            0,
            1
          ],
          "shininess": 0,
          "transparency": 1
        }
      }
    },
    {
      "name": "Material_1",
      "pbrMetallicRoughness": {
        "baseColorFactor": [
          0.800000012,
          0.800000012,
          0.800000012,
          1
        ],
        "baseColorTexture": {
          "index": 1
        },
        "metallicFactor": 0,
        "roughnessFactor": 1
      },
      "extras": {
        "shaderHint": "blinn-phong",
        "originalFormat": "asc",
        "blinnPhong": {
          "diffuse": [
            0.800000012,
            0.800000012,
            0.800000012,
            1
          ],
          "specular": [
            0,
            0,
            0,
            1
          ],
          "emissive": [
            0,
            0,
            0,
            1
          ],
          "shininess": 0,
          "transparency": 1
        }
      }
    }
  ],
  "images": [
    {
      "uri": "textures/lower.jpg"
    },
    {
      "uri": "textures/head.jpg"
    }
  ],
  "textures": [
    {
      "source": 0
    },
    {
      "source": 1
    }
  ],
  "buffers": [
    {
      "byteLength": 31928,
      "uri": "data:application/octet-stream;base64,"
    }
  ]
}