{
  "asset": {
    "version": "2.0",
    "generator": "model_tool (Raylib ASC Converter)"
  },
  "scene": 0,
  "scenes": [
    {
      "name": "Scene",
      "nodes": [
        0,
        1,
        2,
        3
      ]
    }
  ],
  "nodes": [
    {
      "name": "Mesh_0",
      "mesh": 0
    },
    {
      "name": "Mesh_1",
      "mesh": 1
    },
    {
      "name": "Mesh_2",
      "mesh": 2
    },
    {
      "name": "Mesh_3",
      "mesh": 3
    }
  ],
  "meshes": [
    {
      "name": "Mesh_0",
      "primitives": [
        {
          "attributes": {
            "POSITION": 0,
            "NORMAL": 1,
            "TEXCOORD_0": 2
          },
          "indices": 3,
          "material": 0
        }
      ]
    },
    {
      "name": "Mesh_1",
      "primitives": [
        {
          "attributes": {
            "POSITION": 4,
            "NORMAL": 5,
            "TEXCOORD_0": 6
          },
          "indices": 7,
          "material": 0
        }
      ]
    },
    {
      "name": "Mesh_2",
      "primitives": [
        {
          "attributes": {
            "POSITION": 8,
            "NORMAL": 9,
            "TEXCOORD_0": 10
          },
          "indices": 11,
          "material": 0
        }
      ]
    },
    {
      "name": "Mesh_3",
      "primitives": [
        {
          "attributes": {
            "POSITION": 12,
            "NORMAL": 13,
            "TEXCOORD_0": 14
          },
          "indices": 15,
          "material": 0
        }
      ]
    }
  ],
  "accessors": [
    {
      "bufferView": 0,
      "componentType": 5126,
      "count": 30,
      "type": "VEC3",
      "min": [
        -0.182422802,
        0,
        -0.13335
      ],
      "max": [
        0.182422802,
        0.152400002,
        0.13335
      ]
    },
    {
      "bufferView": 1,
      "componentType": 5126,
      "count": 30,
      "type": "VEC3"
    },
    {
      "bufferView": 2,
      "componentType": 5126,
      "count": 30,
      "type": "VEC2"
    },
    {
      "bufferView": 3,
      "componentType": 5123,
      "count": 30,
      "type": "SCALAR"
    },
    {
      "bufferView": 4,
      "componentType": 5126,
      "count": 54,
      "type": "VEC3",
      "min": [
        -0.182422802,
        0,
        0.0860176831
      ],
      "max": [
        0.182422802,
        0.152400002,
        0.13335
      ]
    },
    {
      "bufferView": 5,
      "componentType": 5126,
      "count": 54,
      "type": "VEC3"
    },
    {
      "bufferView": 6,
      "componentType": 5126,
      "count": 54,
      "type": "VEC2"
    },
    {
      "bufferView": 7,
      "componentType": 5123,
      "count": 54,
      "type": "SCALAR"
    },
    {
      "bufferView": 8,
      "componentType": 5126,
      "count": 60,
      "type": "VEC3",
      "min": [
        -0.102463596,
        0.149629056,
        -0.0405245572
      ],
      "max": [
        -0.0753364041,
        0.200890914,
        0.041679088
      ]
    },
    {
      "bufferView": 9,
      "componentType": 5126,
      "count": 60,
      "type": "VEC3"
    },
    {
      "bufferView": 10,
      "componentType": 5126,
      "count": 60,
      "type": "VEC2"
    },
    {
      "bufferView": 11,
      "componentType": 5123,
      "count": 60,
      "type": "SCALAR"
    },
    {
      "bufferView": 12,
      "componentType": 5126,
      "count": 60,
      "type": "VEC3",
      "min": [
        0.0753364041,
        0.149629056,
        -0.041679088
      ],
      "max": [
        0.102463596,
        0.200890914,
        0.0405245572
      ]
    },
    {
      "bufferView": 13,
      "componentType": 5126,
      "count": 60,
      "type": "VEC3"
    },
    {
      "bufferView": 14,
      "componentType": 5126,
      "count": 60,
      "type": "VEC2"
    },
    {
      "bufferView": 15,
      "componentType": 5123,
      "count": 60,
      "type": "SCALAR"
    }
  ],
  "bufferViews": [
    {
      "buffer": 0,
      "byteOffset": 0,
      "byteLength": 360,
      "target": 34962
    },
    {
      "buffer": 0,
      "byteOffset": 360,
      "byteLength": 360,
      "target": 34962
    },
    {
      "buffer": 0,
      "byteOffset": 720,
      "byteLength": 240,
      "target": 34962
    },
    {
      "buffer": 0,
      "byteOffset": 960,
      "byteLength": 60,
      "target": 34963
    },
    {
      "buffer": 0,
      "byteOffset": 1020,
      "byteLength": 648,
      "target": 34962
    },
    {
      "buffer": 0,
      "byteOffset": 1668,
      "byteLength": 648,
      "target": 34962
    },
    {
      "buffer": 0,
      "byteOffset": 2316,
      "byteLength": 432,
      "target": 34962
    },
    {
      "buffer": 0,
      "byteOffset": 2748,
      "byteLength": 108,
      "target": 34963
    },
    {
      "buffer": 0,
      "byteOffset": 2856,
      "byteLength": 720,
      "target": 34962
    },
    {
      "buffer": 0,
      "byteOffset": 3576,
      "byteLength": 720,
      "target": 34962
    },
    {
      "buffer": 0,
      "byteOffset": 4296,
      "byteLength": 480,
      "target": 34962
    },
    {
      "buffer": 0,
      "byteOffset": 4776,
      "byteLength": 120,
      "target": 34963
    },
    {
      "buffer": 0,
      "byteOffset": 4896,
      "byteLength": 720,
      "target": 34962
    },
    {
      "buffer": 0,
      "byteOffset": 5616,
      "byteLength": 720,
      "target": 34962
    },
    {
      "buffer": 0,
      "byteOffset": 6336,
      "byteLength": 480,
      "target": 34962
    },
    {
      "buffer": 0,
      "byteOffset": 6816,
      "byteLength": 120,
      "target": 34963
    }
  ],
  "materials": [
    {
      "name": "Material_0",
      "pbrMetallicRoughness": {
        "baseColorFactor": [
          0.800000012,
          0.800000012,
          0.800000012,
          1
        ],
        "baseColorTexture": {
          "index": 0
        },
        "metallicFactor": 0,
        "roughnessFactor": 1
      },
      "extras": {
        "shaderHint": "blinn-phong",
        "originalFormat": "asc",
        "blinnPhong": {
          "diffuse": [
            0.800000012,
            0.800000012,
            0.800000012,
            1
          ],
          "specular": [
            0,
            0,
            0,
            1
          ],
          "emissive": [
            0,
            0,
            0,
            1
          ],
          "shininess": 0,
          "transparency": 1
        }
      }
    }
  ],
  "images": [
    {
      "uri": "textures/chrome1.jpg"
    }
  ],
  "textures": [
    {
      "source": 0
    }
  ],
  "buffers": [
    {
      "byteLength": 6936,
      "uri": "data:application/octet-stream;base64,"
    }
  ]
}